<?xml version="1.0" encoding="us-ascii" standalone="no"?><svg xmlns="http://www.w3.org/2000/svg" xmlns:xlink="http://www.w3.org/1999/xlink" contentStyleType="text/css" height="408px" preserveAspectRatio="none" style="width:624px;height:408px;background:#FFFFFF;" version="1.1" viewBox="0 0 624 408" width="624px" zoomAndPan="magnify"><defs/><g><!--class AbstractFactory--><g id="elem_AbstractFactory"><rect codeLine="1" fill="#F1F1F1" height="66.6211" id="AbstractFactory" rx="2.5" ry="2.5" style="stroke:#181818;stroke-width:0.5;" width="132" x="142" y="152.5"/><ellipse cx="157" cy="168.5" fill="#B4A7E5" rx="11" ry="11" style="stroke:#181818;stroke-width:1.0;"/><path d="M157.9531,165.1406 L157.9531,171.7969 L159.6719,171.7969 Q160.2813,171.7969 160.5469,172.0313 Q160.8125,172.2656 160.8125,172.6563 Q160.8125,173.0313 160.5469,173.2656 Q160.2813,173.5 159.6719,173.5 L154.5313,173.5 Q153.9219,173.5 153.6563,173.2656 Q153.3906,173.0313 153.3906,172.6406 Q153.3906,172.2656 153.6563,172.0313 Q153.9219,171.7969 154.5313,171.7969 L156.25,171.7969 L156.25,165.1406 L154.5313,165.1406 Q153.9219,165.1406 153.6563,164.9063 Q153.3906,164.6719 153.3906,164.2813 Q153.3906,163.9063 153.6563,163.6719 Q153.9219,163.4375 154.5313,163.4375 L159.6719,163.4375 Q160.2813,163.4375 160.5469,163.6719 Q160.8125,163.9063 160.8125,164.2813 Q160.8125,164.6719 160.5469,164.9063 Q160.2813,165.1406 159.6719,165.1406 L157.9531,165.1406 Z " fill="#000000"/><text fill="#000000" font-family="sans-serif" font-size="14" font-style="italic" lengthAdjust="spacing" textLength="100" x="171" y="174.2969">AbstractFactory</text><line style="stroke:#181818;stroke-width:0.5;" x1="143" x2="273" y1="184.5" y2="184.5"/><line style="stroke:#181818;stroke-width:0.5;" x1="143" x2="273" y1="192.5" y2="192.5"/><ellipse cx="153" cy="207.3105" fill="#84BE84" rx="3" ry="3" style="stroke:#038048;stroke-width:1.0;"/><text fill="#000000" font-family="sans-serif" font-size="14" lengthAdjust="spacing" textLength="106" x="162" y="211.6074">create(): Factory</text></g><!--class AbstractFactoryImpl--><g id="elem_AbstractFactoryImpl"><rect codeLine="4" fill="#F1F1F1" height="103.8633" id="AbstractFactoryImpl" rx="2.5" ry="2.5" style="stroke:#181818;stroke-width:0.5;" width="243" x="86.5" y="298"/><ellipse cx="141.25" cy="314" fill="#ADD1B2" rx="11" ry="11" style="stroke:#181818;stroke-width:1.0;"/><path d="M144.0156,309.875 Q144.1719,309.6563 144.3594,309.5469 Q144.5469,309.4375 144.7656,309.4375 Q145.1406,309.4375 145.375,309.7031 Q145.6094,309.9531 145.6094,310.5625 L145.6094,312.0156 Q145.6094,312.625 145.375,312.8906 Q145.1406,313.1563 144.7656,313.1563 Q144.4219,313.1563 144.2188,312.9531 Q144.0156,312.7656 143.9063,312.25 Q143.8594,311.8906 143.6719,311.7031 Q143.3438,311.3281 142.7344,311.1094 Q142.125,310.8906 141.5,310.8906 Q140.7344,310.8906 140.0938,311.2188 Q139.4688,311.5469 138.9688,312.2969 Q138.4844,313.0469 138.4844,314.0781 L138.4844,315.1719 Q138.4844,316.4063 139.375,317.2344 Q140.2656,318.0469 141.8594,318.0469 Q142.7969,318.0469 143.4531,317.7969 Q143.8438,317.6406 144.2656,317.2031 Q144.5313,316.9375 144.6719,316.8594 Q144.8281,316.7813 145.0313,316.7813 Q145.3594,316.7813 145.6094,317.0469 Q145.875,317.2969 145.875,317.6406 Q145.875,317.9844 145.5313,318.3906 Q145.0313,318.9688 144.2344,319.2969 Q143.1563,319.75 141.8594,319.75 Q140.3438,319.75 139.1406,319.125 Q138.1563,318.625 137.4688,317.5625 Q136.7813,316.4844 136.7813,315.2031 L136.7813,314.0469 Q136.7813,312.7188 137.3906,311.5781 Q138.0156,310.4219 139.1094,309.8125 Q140.2031,309.1875 141.4375,309.1875 Q142.1719,309.1875 142.8125,309.3594 Q143.4688,309.5156 144.0156,309.875 Z " fill="#000000"/><text fill="#000000" font-family="sans-serif" font-size="14" lengthAdjust="spacing" textLength="125" x="161.75" y="319.7969">AbstractFactoryImpl</text><line style="stroke:#181818;stroke-width:0.5;" x1="87.5" x2="328.5" y1="330" y2="330"/><rect fill="none" height="6" style="stroke:#C82930;stroke-width:1.0;" width="6" x="94.5" y="341.8105"/><text fill="#000000" font-family="sans-serif" font-size="14" lengthAdjust="spacing" textLength="107" x="106.5" y="349.1074">implState: Object</text><line style="stroke:#181818;stroke-width:0.5;" x1="87.5" x2="328.5" y1="356.6211" y2="356.6211"/><ellipse cx="97.5" cy="371.4316" fill="#84BE84" rx="3" ry="3" style="stroke:#038048;stroke-width:1.0;"/><text fill="#000000" font-family="sans-serif" font-size="14" lengthAdjust="spacing" textLength="217" x="106.5" y="375.7285">AbstractFactory(implState: Object)</text><ellipse cx="97.5" cy="390.0527" fill="#84BE84" rx="3" ry="3" style="stroke:#038048;stroke-width:1.0;"/><text fill="#000000" font-family="sans-serif" font-size="14" lengthAdjust="spacing" textLength="106" x="106.5" y="394.3496">create(): Factory</text></g><!--class Factory--><g id="elem_Factory"><rect codeLine="9" fill="#F1F1F1" height="66.6211" id="Factory" rx="2.5" ry="2.5" style="stroke:#181818;stroke-width:0.5;" width="130" x="444" y="7"/><ellipse cx="481.5" cy="23" fill="#B4A7E5" rx="11" ry="11" style="stroke:#181818;stroke-width:1.0;"/><path d="M482.4531,19.6406 L482.4531,26.2969 L484.1719,26.2969 Q484.7813,26.2969 485.0469,26.5313 Q485.3125,26.7656 485.3125,27.1563 Q485.3125,27.5313 485.0469,27.7656 Q484.7813,28 484.1719,28 L479.0313,28 Q478.4219,28 478.1563,27.7656 Q477.8906,27.5313 477.8906,27.1406 Q477.8906,26.7656 478.1563,26.5313 Q478.4219,26.2969 479.0313,26.2969 L480.75,26.2969 L480.75,19.6406 L479.0313,19.6406 Q478.4219,19.6406 478.1563,19.4063 Q477.8906,19.1719 477.8906,18.7813 Q477.8906,18.4063 478.1563,18.1719 Q478.4219,17.9375 479.0313,17.9375 L484.1719,17.9375 Q484.7813,17.9375 485.0469,18.1719 Q485.3125,18.4063 485.3125,18.7813 Q485.3125,19.1719 485.0469,19.4063 Q484.7813,19.6406 484.1719,19.6406 L482.4531,19.6406 Z " fill="#000000"/><text fill="#000000" font-family="sans-serif" font-size="14" font-style="italic" lengthAdjust="spacing" textLength="48" x="500.5" y="28.7969">Factory</text><line style="stroke:#181818;stroke-width:0.5;" x1="445" x2="573" y1="39" y2="39"/><line style="stroke:#181818;stroke-width:0.5;" x1="445" x2="573" y1="47" y2="47"/><ellipse cx="455" cy="61.8105" fill="#84BE84" rx="3" ry="3" style="stroke:#038048;stroke-width:1.0;"/><text fill="#000000" font-family="sans-serif" font-size="14" lengthAdjust="spacing" textLength="104" x="464" y="66.1074">operation(): void</text></g><!--class FactoryImpl--><g id="elem_FactoryImpl"><rect codeLine="12" fill="#F1F1F1" height="103.8633" id="FactoryImpl" rx="2.5" ry="2.5" style="stroke:#181818;stroke-width:0.5;" width="216" x="401" y="134"/><ellipse cx="468.25" cy="150" fill="#ADD1B2" rx="11" ry="11" style="stroke:#181818;stroke-width:1.0;"/><path d="M471.0156,145.875 Q471.1719,145.6563 471.3594,145.5469 Q471.5469,145.4375 471.7656,145.4375 Q472.1406,145.4375 472.375,145.7031 Q472.6094,145.9531 472.6094,146.5625 L472.6094,148.0156 Q472.6094,148.625 472.375,148.8906 Q472.1406,149.1563 471.7656,149.1563 Q471.4219,149.1563 471.2188,148.9531 Q471.0156,148.7656 470.9063,148.25 Q470.8594,147.8906 470.6719,147.7031 Q470.3438,147.3281 469.7344,147.1094 Q469.125,146.8906 468.5,146.8906 Q467.7344,146.8906 467.0938,147.2188 Q466.4688,147.5469 465.9688,148.2969 Q465.4844,149.0469 465.4844,150.0781 L465.4844,151.1719 Q465.4844,152.4063 466.375,153.2344 Q467.2656,154.0469 468.8594,154.0469 Q469.7969,154.0469 470.4531,153.7969 Q470.8438,153.6406 471.2656,153.2031 Q471.5313,152.9375 471.6719,152.8594 Q471.8281,152.7813 472.0313,152.7813 Q472.3594,152.7813 472.6094,153.0469 Q472.875,153.2969 472.875,153.6406 Q472.875,153.9844 472.5313,154.3906 Q472.0313,154.9688 471.2344,155.2969 Q470.1563,155.75 468.8594,155.75 Q467.3438,155.75 466.1406,155.125 Q465.1563,154.625 464.4688,153.5625 Q463.7813,152.4844 463.7813,151.2031 L463.7813,150.0469 Q463.7813,148.7188 464.3906,147.5781 Q465.0156,146.4219 466.1094,145.8125 Q467.2031,145.1875 468.4375,145.1875 Q469.1719,145.1875 469.8125,145.3594 Q470.4688,145.5156 471.0156,145.875 Z " fill="#000000"/><text fill="#000000" font-family="sans-serif" font-size="14" lengthAdjust="spacing" textLength="73" x="488.75" y="155.7969">FactoryImpl</text><line style="stroke:#181818;stroke-width:0.5;" x1="402" x2="616" y1="166" y2="166"/><rect fill="none" height="6" style="stroke:#C82930;stroke-width:1.0;" width="6" x="409" y="177.8105"/><text fill="#000000" font-family="sans-serif" font-size="14" lengthAdjust="spacing" textLength="107" x="421" y="185.1074">implState: Object</text><line style="stroke:#181818;stroke-width:0.5;" x1="402" x2="616" y1="192.6211" y2="192.6211"/><ellipse cx="412" cy="207.4316" fill="#84BE84" rx="3" ry="3" style="stroke:#038048;stroke-width:1.0;"/><text fill="#000000" font-family="sans-serif" font-size="14" lengthAdjust="spacing" textLength="190" x="421" y="211.7285">FactoryImpl(implState: Object)</text><ellipse cx="412" cy="226.0527" fill="#84BE84" rx="3" ry="3" style="stroke:#038048;stroke-width:1.0;"/><text fill="#000000" font-family="sans-serif" font-size="14" lengthAdjust="spacing" textLength="104" x="421" y="230.3496">operation(): void</text></g><!--class FactoryClient--><g id="elem_FactoryClient"><rect codeLine="17" fill="#F1F1F1" height="66.6211" id="FactoryClient" rx="2.5" ry="2.5" style="stroke:#181818;stroke-width:0.5;" width="402" x="7" y="7"/><ellipse cx="161.75" cy="23" fill="#ADD1B2" rx="11" ry="11" style="stroke:#181818;stroke-width:1.0;"/><path d="M164.5156,18.875 Q164.6719,18.6563 164.8594,18.5469 Q165.0469,18.4375 165.2656,18.4375 Q165.6406,18.4375 165.875,18.7031 Q166.1094,18.9531 166.1094,19.5625 L166.1094,21.0156 Q166.1094,21.625 165.875,21.8906 Q165.6406,22.1563 165.2656,22.1563 Q164.9219,22.1563 164.7188,21.9531 Q164.5156,21.7656 164.4063,21.25 Q164.3594,20.8906 164.1719,20.7031 Q163.8438,20.3281 163.2344,20.1094 Q162.625,19.8906 162,19.8906 Q161.2344,19.8906 160.5938,20.2188 Q159.9688,20.5469 159.4688,21.2969 Q158.9844,22.0469 158.9844,23.0781 L158.9844,24.1719 Q158.9844,25.4063 159.875,26.2344 Q160.7656,27.0469 162.3594,27.0469 Q163.2969,27.0469 163.9531,26.7969 Q164.3438,26.6406 164.7656,26.2031 Q165.0313,25.9375 165.1719,25.8594 Q165.3281,25.7813 165.5313,25.7813 Q165.8594,25.7813 166.1094,26.0469 Q166.375,26.2969 166.375,26.6406 Q166.375,26.9844 166.0313,27.3906 Q165.5313,27.9688 164.7344,28.2969 Q163.6563,28.75 162.3594,28.75 Q160.8438,28.75 159.6406,28.125 Q158.6563,27.625 157.9688,26.5625 Q157.2813,25.4844 157.2813,24.2031 L157.2813,23.0469 Q157.2813,21.7188 157.8906,20.5781 Q158.5156,19.4219 159.6094,18.8125 Q160.7031,18.1875 161.9375,18.1875 Q162.6719,18.1875 163.3125,18.3594 Q163.9688,18.5156 164.5156,18.875 Z " fill="#000000"/><text fill="#000000" font-family="sans-serif" font-size="14" lengthAdjust="spacing" textLength="84" x="182.25" y="28.7969">FactoryClient</text><line style="stroke:#181818;stroke-width:0.5;" x1="8" x2="408" y1="39" y2="39"/><line style="stroke:#181818;stroke-width:0.5;" x1="8" x2="408" y1="47" y2="47"/><ellipse cx="18" cy="61.8105" fill="#84BE84" rx="3" ry="3" style="stroke:#038048;stroke-width:1.0;"/><text fill="#000000" font-family="sans-serif" font-size="14" lengthAdjust="spacing" textLength="376" x="27" y="66.1074">staticGetMethod(abstractFactory: AbstractFactory): Factory</text></g><!--reverse link AbstractFactory to AbstractFactoryImpl--><g id="link_AbstractFactory_AbstractFactoryImpl"><path d="M208,239.92 C208,258.5 208,279.32 208,297.76 " fill="none" id="AbstractFactory-backto-AbstractFactoryImpl" style="stroke:#181818;stroke-width:1.0;stroke-dasharray:7.0,7.0;"/><polygon fill="none" points="201,239.78,208,219.78,215,239.78,201,239.78" style="stroke:#181818;stroke-width:1.0;"/></g><!--reverse link Factory to FactoryImpl--><g id="link_Factory_FactoryImpl"><path d="M509,94.13 C509,107.14 509,121.05 509,133.99 " fill="none" id="Factory-backto-FactoryImpl" style="stroke:#181818;stroke-width:1.0;stroke-dasharray:7.0,7.0;"/><polygon fill="none" points="502,94.06,509,74.06,516,94.06,502,94.06" style="stroke:#181818;stroke-width:1.0;"/></g><!--reverse link FactoryClient to AbstractFactory--><g id="link_FactoryClient_AbstractFactory"><path codeLine="21" d="M208,87.31 C208,108.37 208,132.87 208,152.07 " fill="none" id="FactoryClient-backto-AbstractFactory" style="stroke:#181818;stroke-width:1.0;"/><polygon fill="none" points="208,74.06,204,80.06,208,86.06,212,80.06,208,74.06" style="stroke:#181818;stroke-width:1.0;"/><text fill="#000000" font-family="sans-serif" font-size="13" lengthAdjust="spacing" textLength="22" x="183.9719" y="141.337">1..1</text></g><!--SRC=[ZP312i8m44Jl-Oh5YotIGg-zYQ1u446_84rN6acJaYoAYFzkBBNOQDL0SjdPcPUHcj0Uk42O5uui5xJqrzZBbO4_Cn0MEM4Kvz0Ds8q9nPqB5zPreq3w1slKv3xx9QrYJzuoXsrnH45TJY2FtdJn5o3P_oAWDmrQJjBeX_vaPDdJZr3_IVkoFKxwCtoXf0zziZhl8SKAQODKcJBYmqRoiA910zCTgZRBLRA10kcCgA5DGyS6UM2I12PPccQJqF8E]--></g></svg>