<?xml version="1.0" encoding="us-ascii" standalone="no"?><svg xmlns="http://www.w3.org/2000/svg" xmlns:xlink="http://www.w3.org/1999/xlink" contentStyleType="text/css" height="1129px" preserveAspectRatio="none" style="width:2101px;height:1129px;background:#FFFFFF;" version="1.1" viewBox="0 0 2101 1129" width="2101px" zoomAndPan="magnify"><defs/><g><!--class IReadDao--><g id="elem_IReadDao"><rect codeLine="1" fill="#F1F1F1" height="85.2422" id="IReadDao" rx="2.5" ry="2.5" style="stroke:#181818;stroke-width:0.5;" width="146" x="96.5" y="825.5"/><ellipse cx="129.05" cy="841.5" fill="#B4A7E5" rx="11" ry="11" style="stroke:#181818;stroke-width:1.0;"/><path d="M130.0031,838.1406 L130.0031,844.7969 L131.7219,844.7969 Q132.3313,844.7969 132.5969,845.0313 Q132.8625,845.2656 132.8625,845.6563 Q132.8625,846.0313 132.5969,846.2656 Q132.3313,846.5 131.7219,846.5 L126.5813,846.5 Q125.9719,846.5 125.7063,846.2656 Q125.4406,846.0313 125.4406,845.6406 Q125.4406,845.2656 125.7063,845.0313 Q125.9719,844.7969 126.5813,844.7969 L128.3,844.7969 L128.3,838.1406 L126.5813,838.1406 Q125.9719,838.1406 125.7063,837.9063 Q125.4406,837.6719 125.4406,837.2813 Q125.4406,836.9063 125.7063,836.6719 Q125.9719,836.4375 126.5813,836.4375 L131.7219,836.4375 Q132.3313,836.4375 132.5969,836.6719 Q132.8625,836.9063 132.8625,837.2813 Q132.8625,837.6719 132.5969,837.9063 Q132.3313,838.1406 131.7219,838.1406 L130.0031,838.1406 Z " fill="#000000"/><text fill="#000000" font-family="sans-serif" font-size="14" font-style="italic" lengthAdjust="spacing" textLength="64" x="146.95" y="847.2969">IReadDao</text><rect fill="#FFFFFF" height="17.9609" style="stroke:#181818;stroke-width:1.0;stroke-dasharray:2.0,2.0;" width="9" x="236.5" y="822.5"/><text fill="#000000" font-family="sans-serif" font-size="12" font-style="italic" lengthAdjust="spacing" textLength="7" x="237.5" y="836.4492">T</text><line style="stroke:#181818;stroke-width:0.5;" x1="97.5" x2="241.5" y1="857.5" y2="857.5"/><line style="stroke:#181818;stroke-width:0.5;" x1="97.5" x2="241.5" y1="865.5" y2="865.5"/><ellipse cx="107.5" cy="880.3105" fill="#84BE84" rx="3" ry="3" style="stroke:#038048;stroke-width:1.0;"/><text fill="#000000" font-family="sans-serif" font-size="14" lengthAdjust="spacing" textLength="120" x="116.5" y="884.6074">getById(id: long): T</text><ellipse cx="107.5" cy="898.9316" fill="#84BE84" rx="3" ry="3" style="stroke:#038048;stroke-width:1.0;"/><text fill="#000000" font-family="sans-serif" font-size="14" lengthAdjust="spacing" textLength="100" x="116.5" y="903.2285">getAll(): List&lt;T&gt;</text></g><!--class IWriteDao--><g id="elem_IWriteDao"><rect codeLine="5" fill="#F1F1F1" height="103.8633" id="IWriteDao" rx="2.5" ry="2.5" style="stroke:#181818;stroke-width:0.5;" width="202" x="1409.5" y="816"/><ellipse cx="1468.75" cy="832" fill="#B4A7E5" rx="11" ry="11" style="stroke:#181818;stroke-width:1.0;"/><path d="M1469.7031,828.6406 L1469.7031,835.2969 L1471.4219,835.2969 Q1472.0313,835.2969 1472.2969,835.5313 Q1472.5625,835.7656 1472.5625,836.1563 Q1472.5625,836.5313 1472.2969,836.7656 Q1472.0313,837 1471.4219,837 L1466.2813,837 Q1465.6719,837 1465.4063,836.7656 Q1465.1406,836.5313 1465.1406,836.1406 Q1465.1406,835.7656 1465.4063,835.5313 Q1465.6719,835.2969 1466.2813,835.2969 L1468,835.2969 L1468,828.6406 L1466.2813,828.6406 Q1465.6719,828.6406 1465.4063,828.4063 Q1465.1406,828.1719 1465.1406,827.7813 Q1465.1406,827.4063 1465.4063,827.1719 Q1465.6719,826.9375 1466.2813,826.9375 L1471.4219,826.9375 Q1472.0313,826.9375 1472.2969,827.1719 Q1472.5625,827.4063 1472.5625,827.7813 Q1472.5625,828.1719 1472.2969,828.4063 Q1472.0313,828.6406 1471.4219,828.6406 L1469.7031,828.6406 Z " fill="#000000"/><text fill="#000000" font-family="sans-serif" font-size="14" font-style="italic" lengthAdjust="spacing" textLength="64" x="1489.25" y="837.7969">IWriteDao</text><rect fill="#FFFFFF" height="17.9609" style="stroke:#181818;stroke-width:1.0;stroke-dasharray:2.0,2.0;" width="9" x="1605.5" y="813"/><text fill="#000000" font-family="sans-serif" font-size="12" font-style="italic" lengthAdjust="spacing" textLength="7" x="1606.5" y="826.9492">T</text><line style="stroke:#181818;stroke-width:0.5;" x1="1410.5" x2="1610.5" y1="848" y2="848"/><line style="stroke:#181818;stroke-width:0.5;" x1="1410.5" x2="1610.5" y1="856" y2="856"/><ellipse cx="1420.5" cy="870.8105" fill="#84BE84" rx="3" ry="3" style="stroke:#038048;stroke-width:1.0;"/><text fill="#000000" font-family="sans-serif" font-size="14" lengthAdjust="spacing" textLength="123" x="1429.5" y="875.1074">add(entity : T): void</text><ellipse cx="1420.5" cy="889.4316" fill="#84BE84" rx="3" ry="3" style="stroke:#038048;stroke-width:1.0;"/><text fill="#000000" font-family="sans-serif" font-size="14" lengthAdjust="spacing" textLength="142" x="1429.5" y="893.7285">remove(entity: T): void</text><ellipse cx="1420.5" cy="908.0527" fill="#84BE84" rx="3" ry="3" style="stroke:#038048;stroke-width:1.0;"/><text fill="#000000" font-family="sans-serif" font-size="14" lengthAdjust="spacing" textLength="176" x="1429.5" y="912.3496">update(id: long, entity: T): T</text></g><!--class ICustomDao--><g id="elem_ICustomDao"><rect codeLine="10" fill="#F1F1F1" height="66.6211" id="ICustomDao" rx="2.5" ry="2.5" style="stroke:#181818;stroke-width:0.5;" width="381" x="1707" y="834.5"/><ellipse cx="1848.75" cy="850.5" fill="#B4A7E5" rx="11" ry="11" style="stroke:#181818;stroke-width:1.0;"/><path d="M1849.7031,847.1406 L1849.7031,853.7969 L1851.4219,853.7969 Q1852.0313,853.7969 1852.2969,854.0313 Q1852.5625,854.2656 1852.5625,854.6563 Q1852.5625,855.0313 1852.2969,855.2656 Q1852.0313,855.5 1851.4219,855.5 L1846.2813,855.5 Q1845.6719,855.5 1845.4063,855.2656 Q1845.1406,855.0313 1845.1406,854.6406 Q1845.1406,854.2656 1845.4063,854.0313 Q1845.6719,853.7969 1846.2813,853.7969 L1848,853.7969 L1848,847.1406 L1846.2813,847.1406 Q1845.6719,847.1406 1845.4063,846.9063 Q1845.1406,846.6719 1845.1406,846.2813 Q1845.1406,845.9063 1845.4063,845.6719 Q1845.6719,845.4375 1846.2813,845.4375 L1851.4219,845.4375 Q1852.0313,845.4375 1852.2969,845.6719 Q1852.5625,845.9063 1852.5625,846.2813 Q1852.5625,846.6719 1852.2969,846.9063 Q1852.0313,847.1406 1851.4219,847.1406 L1849.7031,847.1406 Z " fill="#000000"/><text fill="#000000" font-family="sans-serif" font-size="14" font-style="italic" lengthAdjust="spacing" textLength="78" x="1869.25" y="856.2969">ICustomDao</text><rect fill="#FFFFFF" height="17.9609" style="stroke:#181818;stroke-width:1.0;stroke-dasharray:2.0,2.0;" width="9" x="2082" y="831.5"/><text fill="#000000" font-family="sans-serif" font-size="12" font-style="italic" lengthAdjust="spacing" textLength="7" x="2083" y="845.4492">T</text><line style="stroke:#181818;stroke-width:0.5;" x1="1708" x2="2087" y1="866.5" y2="866.5"/><line style="stroke:#181818;stroke-width:0.5;" x1="1708" x2="2087" y1="874.5" y2="874.5"/><ellipse cx="1718" cy="889.3105" fill="#84BE84" rx="3" ry="3" style="stroke:#038048;stroke-width:1.0;"/><text fill="#000000" font-family="sans-serif" font-size="14" lengthAdjust="spacing" textLength="355" x="1727" y="893.6074">search(filterStrategy:FilterStrategyProvider&lt;T&gt;): List&lt;T&gt;</text></g><!--class IBaseReadRepository--><g id="elem_IBaseReadRepository"><rect codeLine="13" fill="#F1F1F1" height="85.2422" id="IBaseReadRepository" rx="2.5" ry="2.5" style="stroke:#181818;stroke-width:0.5;" width="170" x="354.5" y="283"/><ellipse cx="369.5" cy="299" fill="#B4A7E5" rx="11" ry="11" style="stroke:#181818;stroke-width:1.0;"/><path d="M370.4531,295.6406 L370.4531,302.2969 L372.1719,302.2969 Q372.7813,302.2969 373.0469,302.5313 Q373.3125,302.7656 373.3125,303.1563 Q373.3125,303.5313 373.0469,303.7656 Q372.7813,304 372.1719,304 L367.0313,304 Q366.4219,304 366.1563,303.7656 Q365.8906,303.5313 365.8906,303.1406 Q365.8906,302.7656 366.1563,302.5313 Q366.4219,302.2969 367.0313,302.2969 L368.75,302.2969 L368.75,295.6406 L367.0313,295.6406 Q366.4219,295.6406 366.1563,295.4063 Q365.8906,295.1719 365.8906,294.7813 Q365.8906,294.4063 366.1563,294.1719 Q366.4219,293.9375 367.0313,293.9375 L372.1719,293.9375 Q372.7813,293.9375 373.0469,294.1719 Q373.3125,294.4063 373.3125,294.7813 Q373.3125,295.1719 373.0469,295.4063 Q372.7813,295.6406 372.1719,295.6406 L370.4531,295.6406 Z " fill="#000000"/><text fill="#000000" font-family="sans-serif" font-size="14" font-style="italic" lengthAdjust="spacing" textLength="138" x="383.5" y="304.7969">IBaseReadRepository</text><line style="stroke:#181818;stroke-width:0.5;" x1="355.5" x2="523.5" y1="315" y2="315"/><line style="stroke:#181818;stroke-width:0.5;" x1="355.5" x2="523.5" y1="323" y2="323"/><ellipse cx="365.5" cy="337.8105" fill="#84BE84" rx="3" ry="3" style="stroke:#038048;stroke-width:1.0;"/><text fill="#000000" font-family="sans-serif" font-size="14" lengthAdjust="spacing" textLength="120" x="374.5" y="342.1074">getById(id: long): T</text><ellipse cx="365.5" cy="356.4316" fill="#84BE84" rx="3" ry="3" style="stroke:#038048;stroke-width:1.0;"/><text fill="#000000" font-family="sans-serif" font-size="14" lengthAdjust="spacing" textLength="100" x="374.5" y="360.7285">getAll(): List&lt;T&gt;</text></g><!--class IBaseWriteRepository--><g id="elem_IBaseWriteRepository"><rect codeLine="17" fill="#F1F1F1" height="103.8633" id="IBaseWriteRepository" rx="2.5" ry="2.5" style="stroke:#181818;stroke-width:0.5;" width="202" x="1120.5" y="273.5"/><ellipse cx="1149.9" cy="289.5" fill="#B4A7E5" rx="11" ry="11" style="stroke:#181818;stroke-width:1.0;"/><path d="M1150.8531,286.1406 L1150.8531,292.7969 L1152.5719,292.7969 Q1153.1813,292.7969 1153.4469,293.0313 Q1153.7125,293.2656 1153.7125,293.6563 Q1153.7125,294.0313 1153.4469,294.2656 Q1153.1813,294.5 1152.5719,294.5 L1147.4313,294.5 Q1146.8219,294.5 1146.5563,294.2656 Q1146.2906,294.0313 1146.2906,293.6406 Q1146.2906,293.2656 1146.5563,293.0313 Q1146.8219,292.7969 1147.4313,292.7969 L1149.15,292.7969 L1149.15,286.1406 L1147.4313,286.1406 Q1146.8219,286.1406 1146.5563,285.9063 Q1146.2906,285.6719 1146.2906,285.2813 Q1146.2906,284.9063 1146.5563,284.6719 Q1146.8219,284.4375 1147.4313,284.4375 L1152.5719,284.4375 Q1153.1813,284.4375 1153.4469,284.6719 Q1153.7125,284.9063 1153.7125,285.2813 Q1153.7125,285.6719 1153.4469,285.9063 Q1153.1813,286.1406 1152.5719,286.1406 L1150.8531,286.1406 Z " fill="#000000"/><text fill="#000000" font-family="sans-serif" font-size="14" font-style="italic" lengthAdjust="spacing" textLength="138" x="1167.1" y="295.2969">IBaseWriteRepository</text><line style="stroke:#181818;stroke-width:0.5;" x1="1121.5" x2="1321.5" y1="305.5" y2="305.5"/><line style="stroke:#181818;stroke-width:0.5;" x1="1121.5" x2="1321.5" y1="313.5" y2="313.5"/><ellipse cx="1131.5" cy="328.3105" fill="#84BE84" rx="3" ry="3" style="stroke:#038048;stroke-width:1.0;"/><text fill="#000000" font-family="sans-serif" font-size="14" lengthAdjust="spacing" textLength="123" x="1140.5" y="332.6074">add(entity : T): void</text><ellipse cx="1131.5" cy="346.9316" fill="#84BE84" rx="3" ry="3" style="stroke:#038048;stroke-width:1.0;"/><text fill="#000000" font-family="sans-serif" font-size="14" lengthAdjust="spacing" textLength="142" x="1140.5" y="351.2285">remove(entity: T): void</text><ellipse cx="1131.5" cy="365.5527" fill="#84BE84" rx="3" ry="3" style="stroke:#038048;stroke-width:1.0;"/><text fill="#000000" font-family="sans-serif" font-size="14" lengthAdjust="spacing" textLength="176" x="1140.5" y="369.8496">update(id: long, entity: T): T</text></g><!--class ICustomRepository--><g id="elem_ICustomRepository"><rect codeLine="22" fill="#F1F1F1" height="66.6211" id="ICustomRepository" rx="2.5" ry="2.5" style="stroke:#181818;stroke-width:0.5;" width="381" x="1385" y="292"/><ellipse cx="1505.75" cy="308" fill="#B4A7E5" rx="11" ry="11" style="stroke:#181818;stroke-width:1.0;"/><path d="M1506.7031,304.6406 L1506.7031,311.2969 L1508.4219,311.2969 Q1509.0313,311.2969 1509.2969,311.5313 Q1509.5625,311.7656 1509.5625,312.1563 Q1509.5625,312.5313 1509.2969,312.7656 Q1509.0313,313 1508.4219,313 L1503.2813,313 Q1502.6719,313 1502.4063,312.7656 Q1502.1406,312.5313 1502.1406,312.1406 Q1502.1406,311.7656 1502.4063,311.5313 Q1502.6719,311.2969 1503.2813,311.2969 L1505,311.2969 L1505,304.6406 L1503.2813,304.6406 Q1502.6719,304.6406 1502.4063,304.4063 Q1502.1406,304.1719 1502.1406,303.7813 Q1502.1406,303.4063 1502.4063,303.1719 Q1502.6719,302.9375 1503.2813,302.9375 L1508.4219,302.9375 Q1509.0313,302.9375 1509.2969,303.1719 Q1509.5625,303.4063 1509.5625,303.7813 Q1509.5625,304.1719 1509.2969,304.4063 Q1509.0313,304.6406 1508.4219,304.6406 L1506.7031,304.6406 Z " fill="#000000"/><text fill="#000000" font-family="sans-serif" font-size="14" font-style="italic" lengthAdjust="spacing" textLength="120" x="1526.25" y="313.7969">ICustomRepository</text><rect fill="#FFFFFF" height="17.9609" style="stroke:#181818;stroke-width:1.0;stroke-dasharray:2.0,2.0;" width="9" x="1760" y="289"/><text fill="#000000" font-family="sans-serif" font-size="12" font-style="italic" lengthAdjust="spacing" textLength="7" x="1761" y="302.9492">T</text><line style="stroke:#181818;stroke-width:0.5;" x1="1386" x2="1765" y1="324" y2="324"/><line style="stroke:#181818;stroke-width:0.5;" x1="1386" x2="1765" y1="332" y2="332"/><ellipse cx="1396" cy="346.8105" fill="#84BE84" rx="3" ry="3" style="stroke:#038048;stroke-width:1.0;"/><text fill="#000000" font-family="sans-serif" font-size="14" lengthAdjust="spacing" textLength="355" x="1405" y="351.1074">search(filterStrategy:FilterStrategyProvider&lt;T&gt;): List&lt;T&gt;</text></g><!--class DBReadDao--><g id="elem_DBReadDao"><rect codeLine="25" fill="#F1F1F1" height="122.4844" id="DBReadDao" rx="2.5" ry="2.5" style="stroke:#181818;stroke-width:0.5;" width="175" x="82" y="990.5"/><ellipse cx="120.85" cy="1006.5" fill="#ADD1B2" rx="11" ry="11" style="stroke:#181818;stroke-width:1.0;"/><path d="M123.6156,1002.375 Q123.7719,1002.1563 123.9594,1002.0469 Q124.1469,1001.9375 124.3656,1001.9375 Q124.7406,1001.9375 124.975,1002.2031 Q125.2094,1002.4531 125.2094,1003.0625 L125.2094,1004.5156 Q125.2094,1005.125 124.975,1005.3906 Q124.7406,1005.6563 124.3656,1005.6563 Q124.0219,1005.6563 123.8188,1005.4531 Q123.6156,1005.2656 123.5063,1004.75 Q123.4594,1004.3906 123.2719,1004.2031 Q122.9438,1003.8281 122.3344,1003.6094 Q121.725,1003.3906 121.1,1003.3906 Q120.3344,1003.3906 119.6938,1003.7188 Q119.0688,1004.0469 118.5688,1004.7969 Q118.0844,1005.5469 118.0844,1006.5781 L118.0844,1007.6719 Q118.0844,1008.9063 118.975,1009.7344 Q119.8656,1010.5469 121.4594,1010.5469 Q122.3969,1010.5469 123.0531,1010.2969 Q123.4438,1010.1406 123.8656,1009.7031 Q124.1313,1009.4375 124.2719,1009.3594 Q124.4281,1009.2813 124.6313,1009.2813 Q124.9594,1009.2813 125.2094,1009.5469 Q125.475,1009.7969 125.475,1010.1406 Q125.475,1010.4844 125.1313,1010.8906 Q124.6313,1011.4688 123.8344,1011.7969 Q122.7563,1012.25 121.4594,1012.25 Q119.9438,1012.25 118.7406,1011.625 Q117.7563,1011.125 117.0688,1010.0625 Q116.3813,1008.9844 116.3813,1007.7031 L116.3813,1006.5469 Q116.3813,1005.2188 116.9906,1004.0781 Q117.6156,1002.9219 118.7094,1002.3125 Q119.8031,1001.6875 121.0375,1001.6875 Q121.7719,1001.6875 122.4125,1001.8594 Q123.0688,1002.0156 123.6156,1002.375 Z " fill="#000000"/><text fill="#000000" font-family="sans-serif" font-size="14" lengthAdjust="spacing" textLength="79" x="140.15" y="1012.2969">DBReadDao</text><rect fill="#FFFFFF" height="17.9609" style="stroke:#181818;stroke-width:1.0;stroke-dasharray:2.0,2.0;" width="9" x="251" y="987.5"/><text fill="#000000" font-family="sans-serif" font-size="12" font-style="italic" lengthAdjust="spacing" textLength="7" x="252" y="1001.4492">T</text><line style="stroke:#181818;stroke-width:0.5;" x1="83" x2="256" y1="1022.5" y2="1022.5"/><rect fill="none" height="6" style="stroke:#C82930;stroke-width:1.0;" width="6" x="90" y="1034.3105"/><text fill="#000000" font-family="sans-serif" font-size="14" lengthAdjust="spacing" textLength="149" x="102" y="1041.6074">connection: Connection</text><line style="stroke:#181818;stroke-width:0.5;" x1="83" x2="256" y1="1049.1211" y2="1049.1211"/><ellipse cx="93" cy="1063.9316" fill="#84BE84" rx="3" ry="3" style="stroke:#038048;stroke-width:1.0;"/><text fill="#000000" font-family="sans-serif" font-size="14" lengthAdjust="spacing" textLength="89" x="102" y="1068.2285">DBReadDao()</text><ellipse cx="93" cy="1082.5527" fill="#84BE84" rx="3" ry="3" style="stroke:#038048;stroke-width:1.0;"/><text fill="#000000" font-family="sans-serif" font-size="14" lengthAdjust="spacing" textLength="120" x="102" y="1086.8496">getById(id: long): T</text><ellipse cx="93" cy="1101.1738" fill="#84BE84" rx="3" ry="3" style="stroke:#038048;stroke-width:1.0;"/><text fill="#000000" font-family="sans-serif" font-size="14" lengthAdjust="spacing" textLength="100" x="102" y="1105.4707">getAll(): List&lt;T&gt;</text></g><!--class DBWriteDao--><g id="elem_DBWriteDao"><rect codeLine="31" fill="#F1F1F1" height="141.1055" id="DBWriteDao" rx="2.5" ry="2.5" style="stroke:#181818;stroke-width:0.5;" width="202" x="1409.5" y="981"/><ellipse cx="1461.75" cy="997" fill="#ADD1B2" rx="11" ry="11" style="stroke:#181818;stroke-width:1.0;"/><path d="M1464.5156,992.875 Q1464.6719,992.6563 1464.8594,992.5469 Q1465.0469,992.4375 1465.2656,992.4375 Q1465.6406,992.4375 1465.875,992.7031 Q1466.1094,992.9531 1466.1094,993.5625 L1466.1094,995.0156 Q1466.1094,995.625 1465.875,995.8906 Q1465.6406,996.1563 1465.2656,996.1563 Q1464.9219,996.1563 1464.7188,995.9531 Q1464.5156,995.7656 1464.4063,995.25 Q1464.3594,994.8906 1464.1719,994.7031 Q1463.8438,994.3281 1463.2344,994.1094 Q1462.625,993.8906 1462,993.8906 Q1461.2344,993.8906 1460.5938,994.2188 Q1459.9688,994.5469 1459.4688,995.2969 Q1458.9844,996.0469 1458.9844,997.0781 L1458.9844,998.1719 Q1458.9844,999.4063 1459.875,1000.2344 Q1460.7656,1001.0469 1462.3594,1001.0469 Q1463.2969,1001.0469 1463.9531,1000.7969 Q1464.3438,1000.6406 1464.7656,1000.2031 Q1465.0313,999.9375 1465.1719,999.8594 Q1465.3281,999.7813 1465.5313,999.7813 Q1465.8594,999.7813 1466.1094,1000.0469 Q1466.375,1000.2969 1466.375,1000.6406 Q1466.375,1000.9844 1466.0313,1001.3906 Q1465.5313,1001.9688 1464.7344,1002.2969 Q1463.6563,1002.75 1462.3594,1002.75 Q1460.8438,1002.75 1459.6406,1002.125 Q1458.6563,1001.625 1457.9688,1000.5625 Q1457.2813,999.4844 1457.2813,998.2031 L1457.2813,997.0469 Q1457.2813,995.7188 1457.8906,994.5781 Q1458.5156,993.4219 1459.6094,992.8125 Q1460.7031,992.1875 1461.9375,992.1875 Q1462.6719,992.1875 1463.3125,992.3594 Q1463.9688,992.5156 1464.5156,992.875 Z " fill="#000000"/><text fill="#000000" font-family="sans-serif" font-size="14" lengthAdjust="spacing" textLength="78" x="1482.25" y="1002.7969">DBWriteDao</text><rect fill="#FFFFFF" height="17.9609" style="stroke:#181818;stroke-width:1.0;stroke-dasharray:2.0,2.0;" width="9" x="1605.5" y="978"/><text fill="#000000" font-family="sans-serif" font-size="12" font-style="italic" lengthAdjust="spacing" textLength="7" x="1606.5" y="991.9492">T</text><line style="stroke:#181818;stroke-width:0.5;" x1="1410.5" x2="1610.5" y1="1013" y2="1013"/><rect fill="none" height="6" style="stroke:#C82930;stroke-width:1.0;" width="6" x="1417.5" y="1024.8105"/><text fill="#000000" font-family="sans-serif" font-size="14" lengthAdjust="spacing" textLength="149" x="1429.5" y="1032.1074">connection: Connection</text><line style="stroke:#181818;stroke-width:0.5;" x1="1410.5" x2="1610.5" y1="1039.6211" y2="1039.6211"/><ellipse cx="1420.5" cy="1054.4316" fill="#84BE84" rx="3" ry="3" style="stroke:#038048;stroke-width:1.0;"/><text fill="#000000" font-family="sans-serif" font-size="14" lengthAdjust="spacing" textLength="88" x="1429.5" y="1058.7285">DBWriteDao()</text><ellipse cx="1420.5" cy="1073.0527" fill="#84BE84" rx="3" ry="3" style="stroke:#038048;stroke-width:1.0;"/><text fill="#000000" font-family="sans-serif" font-size="14" lengthAdjust="spacing" textLength="123" x="1429.5" y="1077.3496">add(entity : T): void</text><ellipse cx="1420.5" cy="1091.6738" fill="#84BE84" rx="3" ry="3" style="stroke:#038048;stroke-width:1.0;"/><text fill="#000000" font-family="sans-serif" font-size="14" lengthAdjust="spacing" textLength="142" x="1429.5" y="1095.9707">remove(entity: T): void</text><ellipse cx="1420.5" cy="1110.2949" fill="#84BE84" rx="3" ry="3" style="stroke:#038048;stroke-width:1.0;"/><text fill="#000000" font-family="sans-serif" font-size="14" lengthAdjust="spacing" textLength="176" x="1429.5" y="1114.5918">update(id: long, entity: T): T</text></g><!--class DBCustomDao--><g id="elem_DBCustomDao"><rect codeLine="38" fill="#F1F1F1" height="85.2422" id="DBCustomDao" rx="2.5" ry="2.5" style="stroke:#181818;stroke-width:0.5;" width="381" x="1707" y="1009"/><ellipse cx="1841.25" cy="1025" fill="#ADD1B2" rx="11" ry="11" style="stroke:#181818;stroke-width:1.0;"/><path d="M1844.0156,1020.875 Q1844.1719,1020.6563 1844.3594,1020.5469 Q1844.5469,1020.4375 1844.7656,1020.4375 Q1845.1406,1020.4375 1845.375,1020.7031 Q1845.6094,1020.9531 1845.6094,1021.5625 L1845.6094,1023.0156 Q1845.6094,1023.625 1845.375,1023.8906 Q1845.1406,1024.1563 1844.7656,1024.1563 Q1844.4219,1024.1563 1844.2188,1023.9531 Q1844.0156,1023.7656 1843.9063,1023.25 Q1843.8594,1022.8906 1843.6719,1022.7031 Q1843.3438,1022.3281 1842.7344,1022.1094 Q1842.125,1021.8906 1841.5,1021.8906 Q1840.7344,1021.8906 1840.0938,1022.2188 Q1839.4688,1022.5469 1838.9688,1023.2969 Q1838.4844,1024.0469 1838.4844,1025.0781 L1838.4844,1026.1719 Q1838.4844,1027.4063 1839.375,1028.2344 Q1840.2656,1029.0469 1841.8594,1029.0469 Q1842.7969,1029.0469 1843.4531,1028.7969 Q1843.8438,1028.6406 1844.2656,1028.2031 Q1844.5313,1027.9375 1844.6719,1027.8594 Q1844.8281,1027.7813 1845.0313,1027.7813 Q1845.3594,1027.7813 1845.6094,1028.0469 Q1845.875,1028.2969 1845.875,1028.6406 Q1845.875,1028.9844 1845.5313,1029.3906 Q1845.0313,1029.9688 1844.2344,1030.2969 Q1843.1563,1030.75 1841.8594,1030.75 Q1840.3438,1030.75 1839.1406,1030.125 Q1838.1563,1029.625 1837.4688,1028.5625 Q1836.7813,1027.4844 1836.7813,1026.2031 L1836.7813,1025.0469 Q1836.7813,1023.7188 1837.3906,1022.5781 Q1838.0156,1021.4219 1839.1094,1020.8125 Q1840.2031,1020.1875 1841.4375,1020.1875 Q1842.1719,1020.1875 1842.8125,1020.3594 Q1843.4688,1020.5156 1844.0156,1020.875 Z " fill="#000000"/><text fill="#000000" font-family="sans-serif" font-size="14" lengthAdjust="spacing" textLength="93" x="1861.75" y="1030.7969">DBCustomDao</text><rect fill="#FFFFFF" height="17.9609" style="stroke:#181818;stroke-width:1.0;stroke-dasharray:2.0,2.0;" width="9" x="2082" y="1006"/><text fill="#000000" font-family="sans-serif" font-size="12" font-style="italic" lengthAdjust="spacing" textLength="7" x="2083" y="1019.9492">T</text><line style="stroke:#181818;stroke-width:0.5;" x1="1708" x2="2087" y1="1041" y2="1041"/><rect fill="none" height="6" style="stroke:#C82930;stroke-width:1.0;" width="6" x="1715" y="1052.8105"/><text fill="#000000" font-family="sans-serif" font-size="14" lengthAdjust="spacing" textLength="149" x="1727" y="1060.1074">connection: Connection</text><line style="stroke:#181818;stroke-width:0.5;" x1="1708" x2="2087" y1="1067.6211" y2="1067.6211"/><ellipse cx="1718" cy="1082.4316" fill="#84BE84" rx="3" ry="3" style="stroke:#038048;stroke-width:1.0;"/><text fill="#000000" font-family="sans-serif" font-size="14" lengthAdjust="spacing" textLength="355" x="1727" y="1086.7285">search(filterStrategy:FilterStrategyProvider&lt;T&gt;): List&lt;T&gt;</text></g><!--class BaseReadRepository--><g id="elem_BaseReadRepository"><rect codeLine="42" fill="#F1F1F1" height="122.4844" id="BaseReadRepository" rx="2.5" ry="2.5" style="stroke:#181818;stroke-width:0.5;" width="321" x="9" y="559"/><ellipse cx="92.75" cy="575" fill="#ADD1B2" rx="11" ry="11" style="stroke:#181818;stroke-width:1.0;"/><path d="M95.5156,570.875 Q95.6719,570.6563 95.8594,570.5469 Q96.0469,570.4375 96.2656,570.4375 Q96.6406,570.4375 96.875,570.7031 Q97.1094,570.9531 97.1094,571.5625 L97.1094,573.0156 Q97.1094,573.625 96.875,573.8906 Q96.6406,574.1563 96.2656,574.1563 Q95.9219,574.1563 95.7188,573.9531 Q95.5156,573.7656 95.4063,573.25 Q95.3594,572.8906 95.1719,572.7031 Q94.8438,572.3281 94.2344,572.1094 Q93.625,571.8906 93,571.8906 Q92.2344,571.8906 91.5938,572.2188 Q90.9688,572.5469 90.4688,573.2969 Q89.9844,574.0469 89.9844,575.0781 L89.9844,576.1719 Q89.9844,577.4063 90.875,578.2344 Q91.7656,579.0469 93.3594,579.0469 Q94.2969,579.0469 94.9531,578.7969 Q95.3438,578.6406 95.7656,578.2031 Q96.0313,577.9375 96.1719,577.8594 Q96.3281,577.7813 96.5313,577.7813 Q96.8594,577.7813 97.1094,578.0469 Q97.375,578.2969 97.375,578.6406 Q97.375,578.9844 97.0313,579.3906 Q96.5313,579.9688 95.7344,580.2969 Q94.6563,580.75 93.3594,580.75 Q91.8438,580.75 90.6406,580.125 Q89.6563,579.625 88.9688,578.5625 Q88.2813,577.4844 88.2813,576.2031 L88.2813,575.0469 Q88.2813,573.7188 88.8906,572.5781 Q89.5156,571.4219 90.6094,570.8125 Q91.7031,570.1875 92.9375,570.1875 Q93.6719,570.1875 94.3125,570.3594 Q94.9688,570.5156 95.5156,570.875 Z " fill="#000000"/><text fill="#000000" font-family="sans-serif" font-size="14" lengthAdjust="spacing" textLength="134" x="113.25" y="580.7969">BaseReadRepository</text><rect fill="#FFFFFF" height="17.9609" style="stroke:#181818;stroke-width:1.0;stroke-dasharray:2.0,2.0;" width="9" x="324" y="556"/><text fill="#000000" font-family="sans-serif" font-size="12" font-style="italic" lengthAdjust="spacing" textLength="7" x="325" y="569.9492">T</text><line style="stroke:#181818;stroke-width:0.5;" x1="10" x2="329" y1="591" y2="591"/><polygon fill="none" points="20,600.8105,24,604.8105,20,608.8105,16,604.8105" style="stroke:#B38D22;stroke-width:1.0;"/><text fill="#000000" font-family="sans-serif" font-size="14" lengthAdjust="spacing" textLength="151" x="29" y="610.1074">readDao: IReadDao&lt;T&gt;</text><line style="stroke:#181818;stroke-width:0.5;" x1="10" x2="329" y1="617.6211" y2="617.6211"/><ellipse cx="20" cy="632.4316" fill="#84BE84" rx="3" ry="3" style="stroke:#038048;stroke-width:1.0;"/><text fill="#000000" font-family="sans-serif" font-size="14" lengthAdjust="spacing" textLength="295" x="29" y="636.7285">BaseReadRepository(readDao: IReadDao&lt;T&gt;)</text><ellipse cx="20" cy="651.0527" fill="#84BE84" rx="3" ry="3" style="stroke:#038048;stroke-width:1.0;"/><text fill="#000000" font-family="sans-serif" font-size="14" lengthAdjust="spacing" textLength="120" x="29" y="655.3496">getById(id: long): T</text><ellipse cx="20" cy="669.6738" fill="#84BE84" rx="3" ry="3" style="stroke:#038048;stroke-width:1.0;"/><text fill="#000000" font-family="sans-serif" font-size="14" lengthAdjust="spacing" textLength="100" x="29" y="673.9707">getAll(): List&lt;T&gt;</text></g><!--class BaseWriteRepository--><g id="elem_BaseWriteRepository"><rect codeLine="48" fill="#F1F1F1" height="141.1055" id="BaseWriteRepository" rx="2.5" ry="2.5" style="stroke:#181818;stroke-width:0.5;" width="319" x="1351" y="549.5"/><ellipse cx="1434.25" cy="565.5" fill="#ADD1B2" rx="11" ry="11" style="stroke:#181818;stroke-width:1.0;"/><path d="M1437.0156,561.375 Q1437.1719,561.1563 1437.3594,561.0469 Q1437.5469,560.9375 1437.7656,560.9375 Q1438.1406,560.9375 1438.375,561.2031 Q1438.6094,561.4531 1438.6094,562.0625 L1438.6094,563.5156 Q1438.6094,564.125 1438.375,564.3906 Q1438.1406,564.6563 1437.7656,564.6563 Q1437.4219,564.6563 1437.2188,564.4531 Q1437.0156,564.2656 1436.9063,563.75 Q1436.8594,563.3906 1436.6719,563.2031 Q1436.3438,562.8281 1435.7344,562.6094 Q1435.125,562.3906 1434.5,562.3906 Q1433.7344,562.3906 1433.0938,562.7188 Q1432.4688,563.0469 1431.9688,563.7969 Q1431.4844,564.5469 1431.4844,565.5781 L1431.4844,566.6719 Q1431.4844,567.9063 1432.375,568.7344 Q1433.2656,569.5469 1434.8594,569.5469 Q1435.7969,569.5469 1436.4531,569.2969 Q1436.8438,569.1406 1437.2656,568.7031 Q1437.5313,568.4375 1437.6719,568.3594 Q1437.8281,568.2813 1438.0313,568.2813 Q1438.3594,568.2813 1438.6094,568.5469 Q1438.875,568.7969 1438.875,569.1406 Q1438.875,569.4844 1438.5313,569.8906 Q1438.0313,570.4688 1437.2344,570.7969 Q1436.1563,571.25 1434.8594,571.25 Q1433.3438,571.25 1432.1406,570.625 Q1431.1563,570.125 1430.4688,569.0625 Q1429.7813,567.9844 1429.7813,566.7031 L1429.7813,565.5469 Q1429.7813,564.2188 1430.3906,563.0781 Q1431.0156,561.9219 1432.1094,561.3125 Q1433.2031,560.6875 1434.4375,560.6875 Q1435.1719,560.6875 1435.8125,560.8594 Q1436.4688,561.0156 1437.0156,561.375 Z " fill="#000000"/><text fill="#000000" font-family="sans-serif" font-size="14" lengthAdjust="spacing" textLength="133" x="1454.75" y="571.2969">BaseWriteRepository</text><rect fill="#FFFFFF" height="17.9609" style="stroke:#181818;stroke-width:1.0;stroke-dasharray:2.0,2.0;" width="9" x="1664" y="546.5"/><text fill="#000000" font-family="sans-serif" font-size="12" font-style="italic" lengthAdjust="spacing" textLength="7" x="1665" y="560.4492">T</text><line style="stroke:#181818;stroke-width:0.5;" x1="1352" x2="1669" y1="581.5" y2="581.5"/><polygon fill="none" points="1362,591.3105,1366,595.3105,1362,599.3105,1358,595.3105" style="stroke:#B38D22;stroke-width:1.0;"/><text fill="#000000" font-family="sans-serif" font-size="14" lengthAdjust="spacing" textLength="150" x="1371" y="600.6074">writeDao: IWriteDao&lt;T&gt;</text><line style="stroke:#181818;stroke-width:0.5;" x1="1352" x2="1669" y1="608.1211" y2="608.1211"/><ellipse cx="1362" cy="622.9316" fill="#84BE84" rx="3" ry="3" style="stroke:#038048;stroke-width:1.0;"/><text fill="#000000" font-family="sans-serif" font-size="14" lengthAdjust="spacing" textLength="293" x="1371" y="627.2285">BaseWriteRepository(writeDao: IWriteDao&lt;T&gt;)</text><ellipse cx="1362" cy="641.5527" fill="#84BE84" rx="3" ry="3" style="stroke:#038048;stroke-width:1.0;"/><text fill="#000000" font-family="sans-serif" font-size="14" lengthAdjust="spacing" textLength="123" x="1371" y="645.8496">add(entity : T): void</text><ellipse cx="1362" cy="660.1738" fill="#84BE84" rx="3" ry="3" style="stroke:#038048;stroke-width:1.0;"/><text fill="#000000" font-family="sans-serif" font-size="14" lengthAdjust="spacing" textLength="142" x="1371" y="664.4707">remove(entity: T): void</text><ellipse cx="1362" cy="678.7949" fill="#84BE84" rx="3" ry="3" style="stroke:#038048;stroke-width:1.0;"/><text fill="#000000" font-family="sans-serif" font-size="14" lengthAdjust="spacing" textLength="176" x="1371" y="683.0918">update(id: long, entity: T): T</text></g><!--class BaseCustomRepository--><g id="elem_BaseCustomRepository"><rect codeLine="55" fill="#F1F1F1" height="85.2422" id="BaseCustomRepository" rx="2.5" ry="2.5" style="stroke:#181818;stroke-width:0.5;" width="385" x="1705" y="577.5"/><ellipse cx="1813.75" cy="593.5" fill="#ADD1B2" rx="11" ry="11" style="stroke:#181818;stroke-width:1.0;"/><path d="M1816.5156,589.375 Q1816.6719,589.1563 1816.8594,589.0469 Q1817.0469,588.9375 1817.2656,588.9375 Q1817.6406,588.9375 1817.875,589.2031 Q1818.1094,589.4531 1818.1094,590.0625 L1818.1094,591.5156 Q1818.1094,592.125 1817.875,592.3906 Q1817.6406,592.6563 1817.2656,592.6563 Q1816.9219,592.6563 1816.7188,592.4531 Q1816.5156,592.2656 1816.4063,591.75 Q1816.3594,591.3906 1816.1719,591.2031 Q1815.8438,590.8281 1815.2344,590.6094 Q1814.625,590.3906 1814,590.3906 Q1813.2344,590.3906 1812.5938,590.7188 Q1811.9688,591.0469 1811.4688,591.7969 Q1810.9844,592.5469 1810.9844,593.5781 L1810.9844,594.6719 Q1810.9844,595.9063 1811.875,596.7344 Q1812.7656,597.5469 1814.3594,597.5469 Q1815.2969,597.5469 1815.9531,597.2969 Q1816.3438,597.1406 1816.7656,596.7031 Q1817.0313,596.4375 1817.1719,596.3594 Q1817.3281,596.2813 1817.5313,596.2813 Q1817.8594,596.2813 1818.1094,596.5469 Q1818.375,596.7969 1818.375,597.1406 Q1818.375,597.4844 1818.0313,597.8906 Q1817.5313,598.4688 1816.7344,598.7969 Q1815.6563,599.25 1814.3594,599.25 Q1812.8438,599.25 1811.6406,598.625 Q1810.6563,598.125 1809.9688,597.0625 Q1809.2813,595.9844 1809.2813,594.7031 L1809.2813,593.5469 Q1809.2813,592.2188 1809.8906,591.0781 Q1810.5156,589.9219 1811.6094,589.3125 Q1812.7031,588.6875 1813.9375,588.6875 Q1814.6719,588.6875 1815.3125,588.8594 Q1815.9688,589.0156 1816.5156,589.375 Z " fill="#000000"/><text fill="#000000" font-family="sans-serif" font-size="14" lengthAdjust="spacing" textLength="148" x="1834.25" y="599.2969">BaseCustomRepository</text><rect fill="#FFFFFF" height="17.9609" style="stroke:#181818;stroke-width:1.0;stroke-dasharray:2.0,2.0;" width="9" x="2084" y="574.5"/><text fill="#000000" font-family="sans-serif" font-size="12" font-style="italic" lengthAdjust="spacing" textLength="7" x="2085" y="588.4492">T</text><line style="stroke:#181818;stroke-width:0.5;" x1="1706" x2="2089" y1="609.5" y2="609.5"/><polygon fill="none" points="1716,619.3105,1720,623.3105,1716,627.3105,1712,623.3105" style="stroke:#B38D22;stroke-width:1.0;"/><text fill="#000000" font-family="sans-serif" font-size="14" lengthAdjust="spacing" textLength="156" x="1725" y="628.6074">customDao: ICustomDao</text><line style="stroke:#181818;stroke-width:0.5;" x1="1706" x2="2089" y1="636.1211" y2="636.1211"/><ellipse cx="1716" cy="650.9316" fill="#84BE84" rx="3" ry="3" style="stroke:#038048;stroke-width:1.0;"/><text fill="#000000" font-family="sans-serif" font-size="14" lengthAdjust="spacing" textLength="359" x="1725" y="655.2285">search(filterStrategy: FilterStrategyProvider&lt;T&gt;): List&lt;T&gt;</text></g><!--class MasterRepository--><g id="elem_MasterRepository"><rect codeLine="62" fill="#F1F1F1" height="234.2109" id="MasterRepository" rx="2.5" ry="2.5" style="stroke:#181818;stroke-width:0.5;" width="950" x="365.5" y="503"/><ellipse cx="775.25" cy="519" fill="#ADD1B2" rx="11" ry="11" style="stroke:#181818;stroke-width:1.0;"/><path d="M778.0156,514.875 Q778.1719,514.6563 778.3594,514.5469 Q778.5469,514.4375 778.7656,514.4375 Q779.1406,514.4375 779.375,514.7031 Q779.6094,514.9531 779.6094,515.5625 L779.6094,517.0156 Q779.6094,517.625 779.375,517.8906 Q779.1406,518.1563 778.7656,518.1563 Q778.4219,518.1563 778.2188,517.9531 Q778.0156,517.7656 777.9063,517.25 Q777.8594,516.8906 777.6719,516.7031 Q777.3438,516.3281 776.7344,516.1094 Q776.125,515.8906 775.5,515.8906 Q774.7344,515.8906 774.0938,516.2188 Q773.4688,516.5469 772.9688,517.2969 Q772.4844,518.0469 772.4844,519.0781 L772.4844,520.1719 Q772.4844,521.4063 773.375,522.2344 Q774.2656,523.0469 775.8594,523.0469 Q776.7969,523.0469 777.4531,522.7969 Q777.8438,522.6406 778.2656,522.2031 Q778.5313,521.9375 778.6719,521.8594 Q778.8281,521.7813 779.0313,521.7813 Q779.3594,521.7813 779.6094,522.0469 Q779.875,522.2969 779.875,522.6406 Q779.875,522.9844 779.5313,523.3906 Q779.0313,523.9688 778.2344,524.2969 Q777.1563,524.75 775.8594,524.75 Q774.3438,524.75 773.1406,524.125 Q772.1563,523.625 771.4688,522.5625 Q770.7813,521.4844 770.7813,520.2031 L770.7813,519.0469 Q770.7813,517.7188 771.3906,516.5781 Q772.0156,515.4219 773.1094,514.8125 Q774.2031,514.1875 775.4375,514.1875 Q776.1719,514.1875 776.8125,514.3594 Q777.4688,514.5156 778.0156,514.875 Z " fill="#000000"/><text fill="#000000" font-family="sans-serif" font-size="14" lengthAdjust="spacing" textLength="111" x="795.75" y="524.7969">MasterRepository</text><rect fill="#FFFFFF" height="17.9609" style="stroke:#181818;stroke-width:1.0;stroke-dasharray:2.0,2.0;" width="9" x="1309.5" y="500"/><text fill="#000000" font-family="sans-serif" font-size="12" font-style="italic" lengthAdjust="spacing" textLength="7" x="1310.5" y="513.9492">T</text><line style="stroke:#181818;stroke-width:0.5;" x1="366.5" x2="1314.5" y1="535" y2="535"/><polygon fill="none" points="376.5,544.8105,380.5,548.8105,376.5,552.8105,372.5,548.8105" style="stroke:#B38D22;stroke-width:1.0;"/><text fill="#000000" font-family="sans-serif" font-size="14" lengthAdjust="spacing" textLength="267" x="385.5" y="554.1074">readRepository: IBaseReadRepository&lt;T&gt;</text><polygon fill="none" points="376.5,563.4316,380.5,567.4316,376.5,571.4316,372.5,567.4316" style="stroke:#B38D22;stroke-width:1.0;"/><text fill="#000000" font-family="sans-serif" font-size="14" lengthAdjust="spacing" textLength="266" x="385.5" y="572.7285">writeRepository: IBaseWriteRepository&lt;T&gt;</text><polygon fill="none" points="376.5,582.0527,380.5,586.0527,376.5,590.0527,372.5,586.0527" style="stroke:#B38D22;stroke-width:1.0;"/><text fill="#000000" font-family="sans-serif" font-size="14" lengthAdjust="spacing" textLength="265" x="385.5" y="591.3496">customRepository: ICustomRepository&lt;T&gt;</text><line style="stroke:#181818;stroke-width:0.5;" x1="366.5" x2="1314.5" y1="598.8633" y2="598.8633"/><ellipse cx="376.5" cy="613.6738" fill="#84BE84" rx="3" ry="3" style="stroke:#038048;stroke-width:1.0;"/><text fill="#000000" font-family="sans-serif" font-size="14" lengthAdjust="spacing" textLength="924" x="385.5" y="617.9707">BaseRepository(readRepository: IBaseReadRepository&lt;T&gt;, writeRepository: IBaseWriteRepository&lt;T&gt;, customRepository: ICustomRepository&lt;T&gt;)</text><ellipse cx="376.5" cy="632.2949" fill="#84BE84" rx="3" ry="3" style="stroke:#038048;stroke-width:1.0;"/><text fill="#000000" font-family="sans-serif" font-size="14" lengthAdjust="spacing" textLength="119" x="385.5" y="636.5918">add(entity: T): void</text><ellipse cx="376.5" cy="650.916" fill="#84BE84" rx="3" ry="3" style="stroke:#038048;stroke-width:1.0;"/><text fill="#000000" font-family="sans-serif" font-size="14" lengthAdjust="spacing" textLength="147" x="385.5" y="655.2129">remove((entity: T): void</text><ellipse cx="376.5" cy="669.5371" fill="#84BE84" rx="3" ry="3" style="stroke:#038048;stroke-width:1.0;"/><text fill="#000000" font-family="sans-serif" font-size="14" lengthAdjust="spacing" textLength="176" x="385.5" y="673.834">update(id: long, entity: T): T</text><ellipse cx="376.5" cy="688.1582" fill="#84BE84" rx="3" ry="3" style="stroke:#038048;stroke-width:1.0;"/><text fill="#000000" font-family="sans-serif" font-size="14" lengthAdjust="spacing" textLength="120" x="385.5" y="692.4551">getById(id: long): T</text><ellipse cx="376.5" cy="706.7793" fill="#84BE84" rx="3" ry="3" style="stroke:#038048;stroke-width:1.0;"/><text fill="#000000" font-family="sans-serif" font-size="14" lengthAdjust="spacing" textLength="100" x="385.5" y="711.0762">getAll(): List&lt;T&gt;</text><ellipse cx="376.5" cy="725.4004" fill="#84BE84" rx="3" ry="3" style="stroke:#038048;stroke-width:1.0;"/><text fill="#000000" font-family="sans-serif" font-size="14" lengthAdjust="spacing" textLength="359" x="385.5" y="729.6973">search(filterStrategy: FilterStrategyProvider&lt;T&gt;): List&lt;T&gt;</text></g><!--class InMemoryMasterRepository--><g id="elem_InMemoryMasterRepository"><rect codeLine="74" fill="#F1F1F1" height="85.2422" id="InMemoryMasterRepository" rx="2.5" ry="2.5" style="stroke:#181818;stroke-width:0.5;" width="1022" x="329.5" y="825.5"/><ellipse cx="744.75" cy="841.5" fill="#ADD1B2" rx="11" ry="11" style="stroke:#181818;stroke-width:1.0;"/><path d="M747.5156,837.375 Q747.6719,837.1563 747.8594,837.0469 Q748.0469,836.9375 748.2656,836.9375 Q748.6406,836.9375 748.875,837.2031 Q749.1094,837.4531 749.1094,838.0625 L749.1094,839.5156 Q749.1094,840.125 748.875,840.3906 Q748.6406,840.6563 748.2656,840.6563 Q747.9219,840.6563 747.7188,840.4531 Q747.5156,840.2656 747.4063,839.75 Q747.3594,839.3906 747.1719,839.2031 Q746.8438,838.8281 746.2344,838.6094 Q745.625,838.3906 745,838.3906 Q744.2344,838.3906 743.5938,838.7188 Q742.9688,839.0469 742.4688,839.7969 Q741.9844,840.5469 741.9844,841.5781 L741.9844,842.6719 Q741.9844,843.9063 742.875,844.7344 Q743.7656,845.5469 745.3594,845.5469 Q746.2969,845.5469 746.9531,845.2969 Q747.3438,845.1406 747.7656,844.7031 Q748.0313,844.4375 748.1719,844.3594 Q748.3281,844.2813 748.5313,844.2813 Q748.8594,844.2813 749.1094,844.5469 Q749.375,844.7969 749.375,845.1406 Q749.375,845.4844 749.0313,845.8906 Q748.5313,846.4688 747.7344,846.7969 Q746.6563,847.25 745.3594,847.25 Q743.8438,847.25 742.6406,846.625 Q741.6563,846.125 740.9688,845.0625 Q740.2813,843.9844 740.2813,842.7031 L740.2813,841.5469 Q740.2813,840.2188 740.8906,839.0781 Q741.5156,837.9219 742.6094,837.3125 Q743.7031,836.6875 744.9375,836.6875 Q745.6719,836.6875 746.3125,836.8594 Q746.9688,837.0156 747.5156,837.375 Z " fill="#000000"/><text fill="#000000" font-family="sans-serif" font-size="14" lengthAdjust="spacing" textLength="172" x="765.25" y="847.2969">InMemoryMasterRepository</text><rect fill="#FFFFFF" height="17.9609" style="stroke:#181818;stroke-width:1.0;stroke-dasharray:2.0,2.0;" width="9" x="1345.5" y="822.5"/><text fill="#000000" font-family="sans-serif" font-size="12" font-style="italic" lengthAdjust="spacing" textLength="7" x="1346.5" y="836.4492">T</text><line style="stroke:#181818;stroke-width:0.5;" x1="330.5" x2="1350.5" y1="857.5" y2="857.5"/><polygon fill="none" points="340.5,867.3105,344.5,871.3105,340.5,875.3105,336.5,871.3105" style="stroke:#B38D22;stroke-width:1.0;"/><text fill="#000000" font-family="sans-serif" font-size="14" lengthAdjust="spacing" textLength="72" x="349.5" y="876.6074">list: List&lt;T&gt;</text><line style="stroke:#181818;stroke-width:0.5;" x1="330.5" x2="1350.5" y1="884.1211" y2="884.1211"/><ellipse cx="340.5" cy="898.9316" fill="#84BE84" rx="3" ry="3" style="stroke:#038048;stroke-width:1.0;"/><text fill="#000000" font-family="sans-serif" font-size="14" lengthAdjust="spacing" textLength="996" x="349.5" y="903.2285">InMemoryMasterRepository(readRepository: IBaseReadRepository&lt;T&gt;, writeRepository: IBaseWriteRepository&lt;T&gt;, customRepository: ICustomRepository&lt;T&gt;)</text></g><!--class MasterService--><g id="elem_MasterService"><rect codeLine="78" fill="#F1F1F1" height="196.9688" id="MasterService" rx="2.5" ry="2.5" style="stroke:#181818;stroke-width:0.5;" width="381" x="650" y="227"/><ellipse cx="785.75" cy="243" fill="#ADD1B2" rx="11" ry="11" style="stroke:#181818;stroke-width:1.0;"/><path d="M788.5156,238.875 Q788.6719,238.6563 788.8594,238.5469 Q789.0469,238.4375 789.2656,238.4375 Q789.6406,238.4375 789.875,238.7031 Q790.1094,238.9531 790.1094,239.5625 L790.1094,241.0156 Q790.1094,241.625 789.875,241.8906 Q789.6406,242.1563 789.2656,242.1563 Q788.9219,242.1563 788.7188,241.9531 Q788.5156,241.7656 788.4063,241.25 Q788.3594,240.8906 788.1719,240.7031 Q787.8438,240.3281 787.2344,240.1094 Q786.625,239.8906 786,239.8906 Q785.2344,239.8906 784.5938,240.2188 Q783.9688,240.5469 783.4688,241.2969 Q782.9844,242.0469 782.9844,243.0781 L782.9844,244.1719 Q782.9844,245.4063 783.875,246.2344 Q784.7656,247.0469 786.3594,247.0469 Q787.2969,247.0469 787.9531,246.7969 Q788.3438,246.6406 788.7656,246.2031 Q789.0313,245.9375 789.1719,245.8594 Q789.3281,245.7813 789.5313,245.7813 Q789.8594,245.7813 790.1094,246.0469 Q790.375,246.2969 790.375,246.6406 Q790.375,246.9844 790.0313,247.3906 Q789.5313,247.9688 788.7344,248.2969 Q787.6563,248.75 786.3594,248.75 Q784.8438,248.75 783.6406,248.125 Q782.6563,247.625 781.9688,246.5625 Q781.2813,245.4844 781.2813,244.2031 L781.2813,243.0469 Q781.2813,241.7188 781.8906,240.5781 Q782.5156,239.4219 783.6094,238.8125 Q784.7031,238.1875 785.9375,238.1875 Q786.6719,238.1875 787.3125,238.3594 Q787.9688,238.5156 788.5156,238.875 Z " fill="#000000"/><text fill="#000000" font-family="sans-serif" font-size="14" lengthAdjust="spacing" textLength="90" x="806.25" y="248.7969">MasterService</text><rect fill="#FFFFFF" height="17.9609" style="stroke:#181818;stroke-width:1.0;stroke-dasharray:2.0,2.0;" width="9" x="1025" y="224"/><text fill="#000000" font-family="sans-serif" font-size="12" font-style="italic" lengthAdjust="spacing" textLength="7" x="1026" y="237.9492">T</text><line style="stroke:#181818;stroke-width:0.5;" x1="651" x2="1030" y1="259" y2="259"/><polygon fill="none" points="661,268.8105,665,272.8105,661,276.8105,657,272.8105" style="stroke:#B38D22;stroke-width:1.0;"/><text fill="#000000" font-family="sans-serif" font-size="14" lengthAdjust="spacing" textLength="255" x="670" y="278.1074">masterRepository: MasterRepository&lt;T&gt;</text><line style="stroke:#181818;stroke-width:0.5;" x1="651" x2="1030" y1="285.6211" y2="285.6211"/><ellipse cx="661" cy="300.4316" fill="#84BE84" rx="3" ry="3" style="stroke:#038048;stroke-width:1.0;"/><text fill="#000000" font-family="sans-serif" font-size="14" lengthAdjust="spacing" textLength="355" x="670" y="304.7285">MasterService(masterRepository: MasterRepository&lt;T&gt;)</text><ellipse cx="661" cy="319.0527" fill="#84BE84" rx="3" ry="3" style="stroke:#038048;stroke-width:1.0;"/><text fill="#000000" font-family="sans-serif" font-size="14" lengthAdjust="spacing" textLength="119" x="670" y="323.3496">add(entity: T): void</text><ellipse cx="661" cy="337.6738" fill="#84BE84" rx="3" ry="3" style="stroke:#038048;stroke-width:1.0;"/><text fill="#000000" font-family="sans-serif" font-size="14" lengthAdjust="spacing" textLength="142" x="670" y="341.9707">remove(entity: T): void</text><ellipse cx="661" cy="356.2949" fill="#84BE84" rx="3" ry="3" style="stroke:#038048;stroke-width:1.0;"/><text fill="#000000" font-family="sans-serif" font-size="14" lengthAdjust="spacing" textLength="176" x="670" y="360.5918">update(id: long, entity: T): T</text><ellipse cx="661" cy="374.916" fill="#84BE84" rx="3" ry="3" style="stroke:#038048;stroke-width:1.0;"/><text fill="#000000" font-family="sans-serif" font-size="14" lengthAdjust="spacing" textLength="120" x="670" y="379.2129">getById(id: long): T</text><ellipse cx="661" cy="393.5371" fill="#84BE84" rx="3" ry="3" style="stroke:#038048;stroke-width:1.0;"/><text fill="#000000" font-family="sans-serif" font-size="14" lengthAdjust="spacing" textLength="100" x="670" y="397.834">getAll(): List&lt;T&gt;</text><ellipse cx="661" cy="412.1582" fill="#84BE84" rx="3" ry="3" style="stroke:#038048;stroke-width:1.0;"/><text fill="#000000" font-family="sans-serif" font-size="14" lengthAdjust="spacing" textLength="355" x="670" y="416.4551">search(filterStrategy:FilterStrategyProvider&lt;T&gt;): List&lt;T&gt;</text></g><!--class RestController--><g id="elem_RestController"><rect codeLine="89" fill="#F1F1F1" height="85.2422" id="RestController" rx="2.5" ry="2.5" style="stroke:#181818;stroke-width:0.5;" width="288" x="696.5" y="35"/><ellipse cx="790.75" cy="51" fill="#ADD1B2" rx="11" ry="11" style="stroke:#181818;stroke-width:1.0;"/><path d="M793.5156,46.875 Q793.6719,46.6563 793.8594,46.5469 Q794.0469,46.4375 794.2656,46.4375 Q794.6406,46.4375 794.875,46.7031 Q795.1094,46.9531 795.1094,47.5625 L795.1094,49.0156 Q795.1094,49.625 794.875,49.8906 Q794.6406,50.1563 794.2656,50.1563 Q793.9219,50.1563 793.7188,49.9531 Q793.5156,49.7656 793.4063,49.25 Q793.3594,48.8906 793.1719,48.7031 Q792.8438,48.3281 792.2344,48.1094 Q791.625,47.8906 791,47.8906 Q790.2344,47.8906 789.5938,48.2188 Q788.9688,48.5469 788.4688,49.2969 Q787.9844,50.0469 787.9844,51.0781 L787.9844,52.1719 Q787.9844,53.4063 788.875,54.2344 Q789.7656,55.0469 791.3594,55.0469 Q792.2969,55.0469 792.9531,54.7969 Q793.3438,54.6406 793.7656,54.2031 Q794.0313,53.9375 794.1719,53.8594 Q794.3281,53.7813 794.5313,53.7813 Q794.8594,53.7813 795.1094,54.0469 Q795.375,54.2969 795.375,54.6406 Q795.375,54.9844 795.0313,55.3906 Q794.5313,55.9688 793.7344,56.2969 Q792.6563,56.75 791.3594,56.75 Q789.8438,56.75 788.6406,56.125 Q787.6563,55.625 786.9688,54.5625 Q786.2813,53.4844 786.2813,52.2031 L786.2813,51.0469 Q786.2813,49.7188 786.8906,48.5781 Q787.5156,47.4219 788.6094,46.8125 Q789.7031,46.1875 790.9375,46.1875 Q791.6719,46.1875 792.3125,46.3594 Q792.9688,46.5156 793.5156,46.875 Z " fill="#000000"/><text fill="#000000" font-family="sans-serif" font-size="14" lengthAdjust="spacing" textLength="91" x="811.25" y="56.7969">RestController</text><line style="stroke:#181818;stroke-width:0.5;" x1="697.5" x2="983.5" y1="67" y2="67"/><polygon fill="none" points="707.5,76.8105,711.5,80.8105,707.5,84.8105,703.5,80.8105" style="stroke:#B38D22;stroke-width:1.0;"/><text fill="#000000" font-family="sans-serif" font-size="14" lengthAdjust="spacing" textLength="262" x="716.5" y="86.1074">masterUserService: MasterService&lt;User&gt;</text><line style="stroke:#181818;stroke-width:0.5;" x1="697.5" x2="983.5" y1="93.6211" y2="93.6211"/><ellipse cx="707.5" cy="108.4316" fill="#84BE84" rx="3" ry="3" style="stroke:#038048;stroke-width:1.0;"/><text fill="#000000" font-family="sans-serif" font-size="14" lengthAdjust="spacing" textLength="59" x="716.5" y="112.7285">UserApi()</text></g><!--class User--><g id="elem_User"><rect codeLine="93" fill="#F1F1F1" height="141.1055" id="User" rx="2.5" ry="2.5" style="stroke:#181818;stroke-width:0.5;" width="199" x="1020" y="7"/><ellipse cx="1100.75" cy="23" fill="#ADD1B2" rx="11" ry="11" style="stroke:#181818;stroke-width:1.0;"/><path d="M1103.5156,18.875 Q1103.6719,18.6563 1103.8594,18.5469 Q1104.0469,18.4375 1104.2656,18.4375 Q1104.6406,18.4375 1104.875,18.7031 Q1105.1094,18.9531 1105.1094,19.5625 L1105.1094,21.0156 Q1105.1094,21.625 1104.875,21.8906 Q1104.6406,22.1563 1104.2656,22.1563 Q1103.9219,22.1563 1103.7188,21.9531 Q1103.5156,21.7656 1103.4063,21.25 Q1103.3594,20.8906 1103.1719,20.7031 Q1102.8438,20.3281 1102.2344,20.1094 Q1101.625,19.8906 1101,19.8906 Q1100.2344,19.8906 1099.5938,20.2188 Q1098.9688,20.5469 1098.4688,21.2969 Q1097.9844,22.0469 1097.9844,23.0781 L1097.9844,24.1719 Q1097.9844,25.4063 1098.875,26.2344 Q1099.7656,27.0469 1101.3594,27.0469 Q1102.2969,27.0469 1102.9531,26.7969 Q1103.3438,26.6406 1103.7656,26.2031 Q1104.0313,25.9375 1104.1719,25.8594 Q1104.3281,25.7813 1104.5313,25.7813 Q1104.8594,25.7813 1105.1094,26.0469 Q1105.375,26.2969 1105.375,26.6406 Q1105.375,26.9844 1105.0313,27.3906 Q1104.5313,27.9688 1103.7344,28.2969 Q1102.6563,28.75 1101.3594,28.75 Q1099.8438,28.75 1098.6406,28.125 Q1097.6563,27.625 1096.9688,26.5625 Q1096.2813,25.4844 1096.2813,24.2031 L1096.2813,23.0469 Q1096.2813,21.7188 1096.8906,20.5781 Q1097.5156,19.4219 1098.6094,18.8125 Q1099.7031,18.1875 1100.9375,18.1875 Q1101.6719,18.1875 1102.3125,18.3594 Q1102.9688,18.5156 1103.5156,18.875 Z " fill="#000000"/><text fill="#000000" font-family="sans-serif" font-size="14" lengthAdjust="spacing" textLength="29" x="1121.25" y="28.7969">User</text><line style="stroke:#181818;stroke-width:0.5;" x1="1021" x2="1218" y1="39" y2="39"/><rect fill="none" height="6" style="stroke:#C82930;stroke-width:1.0;" width="6" x="1028" y="50.8105"/><text fill="#000000" font-family="sans-serif" font-size="14" lengthAdjust="spacing" textLength="46" x="1040" y="58.1074">id: long</text><rect fill="none" height="6" style="stroke:#C82930;stroke-width:1.0;" width="6" x="1028" y="69.4316"/><text fill="#000000" font-family="sans-serif" font-size="14" lengthAdjust="spacing" textLength="80" x="1040" y="76.7285">name: String</text><line style="stroke:#181818;stroke-width:0.5;" x1="1021" x2="1218" y1="84.2422" y2="84.2422"/><ellipse cx="1031" cy="99.0527" fill="#84BE84" rx="3" ry="3" style="stroke:#038048;stroke-width:1.0;"/><text fill="#000000" font-family="sans-serif" font-size="14" lengthAdjust="spacing" textLength="173" x="1040" y="103.3496">User(id: long, name: String)</text><ellipse cx="1031" cy="117.6738" fill="#84BE84" rx="3" ry="3" style="stroke:#038048;stroke-width:1.0;"/><text fill="#000000" font-family="sans-serif" font-size="14" lengthAdjust="spacing" textLength="76" x="1040" y="121.9707">getId(): long</text><ellipse cx="1031" cy="136.2949" fill="#84BE84" rx="3" ry="3" style="stroke:#038048;stroke-width:1.0;"/><text fill="#000000" font-family="sans-serif" font-size="14" lengthAdjust="spacing" textLength="111" x="1040" y="140.5918">getName(): String</text></g><!--reverse link IReadDao to DBReadDao--><g id="link_IReadDao_DBReadDao"><path d="M169.5,930.64 C169.5,949.97 169.5,971.26 169.5,990.47 " fill="none" id="IReadDao-backto-DBReadDao" style="stroke:#181818;stroke-width:1.0;stroke-dasharray:7.0,7.0;"/><polygon fill="none" points="162.5,930.64,169.5,910.64,176.5,930.64,162.5,930.64" style="stroke:#181818;stroke-width:1.0;"/></g><!--reverse link IWriteDao to DBWriteDao--><g id="link_IWriteDao_DBWriteDao"><path d="M1510.5,940.34 C1510.5,953.68 1510.5,967.6 1510.5,980.88 " fill="none" id="IWriteDao-backto-DBWriteDao" style="stroke:#181818;stroke-width:1.0;stroke-dasharray:7.0,7.0;"/><polygon fill="none" points="1503.5,940.04,1510.5,920.04,1517.5,940.04,1503.5,940.04" style="stroke:#181818;stroke-width:1.0;"/></g><!--reverse link ICustomDao to DBCustomDao--><g id="link_ICustomDao_DBCustomDao"><path d="M1897.5,922.15 C1897.5,949.83 1897.5,983.18 1897.5,1008.94 " fill="none" id="ICustomDao-backto-DBCustomDao" style="stroke:#181818;stroke-width:1.0;stroke-dasharray:7.0,7.0;"/><polygon fill="none" points="1890.5,921.87,1897.5,901.87,1904.5,921.87,1890.5,921.87" style="stroke:#181818;stroke-width:1.0;"/></g><!--reverse link IBaseReadRepository to BaseReadRepository--><g id="link_IBaseReadRepository_BaseReadRepository"><path d="M387.38,382.96 C340.79,433.43 272.73,507.17 225.11,558.76 " fill="none" id="IBaseReadRepository-backto-BaseReadRepository" style="stroke:#181818;stroke-width:1.0;stroke-dasharray:7.0,7.0;"/><polygon fill="none" points="382.39,378.05,401.1,368.1,392.68,387.54,382.39,378.05" style="stroke:#181818;stroke-width:1.0;"/></g><!--reverse link IBaseWriteRepository to BaseWriteRepository--><g id="link_IBaseWriteRepository_BaseWriteRepository"><path d="M1286.28,392.06 C1332.5,438.85 1394.57,501.67 1441.68,549.35 " fill="none" id="IBaseWriteRepository-backto-BaseWriteRepository" style="stroke:#181818;stroke-width:1.0;stroke-dasharray:7.0,7.0;"/><polygon fill="none" points="1281.25,396.93,1272.17,377.78,1291.21,387.09,1281.25,396.93" style="stroke:#181818;stroke-width:1.0;"/></g><!--reverse link ICustomRepository to BaseCustomRepository--><g id="link_ICustomRepository_BaseCustomRepository"><path d="M1626.69,373 C1688.68,429.32 1792.17,523.32 1851.66,577.36 " fill="none" id="ICustomRepository-backto-BaseCustomRepository" style="stroke:#181818;stroke-width:1.0;stroke-dasharray:7.0,7.0;"/><polygon fill="none" points="1621.6,377.83,1611.5,359.2,1631.01,367.47,1621.6,377.83" style="stroke:#181818;stroke-width:1.0;"/></g><!--reverse link IBaseReadRepository to MasterRepository--><g id="link_IBaseReadRepository_MasterRepository"><path d="M512.8,379.96 C559.88,414.31 622.9,460.28 681.09,502.72 " fill="none" id="IBaseReadRepository-backto-MasterRepository" style="stroke:#181818;stroke-width:1.0;stroke-dasharray:7.0,7.0;"/><polygon fill="none" points="508.56,385.54,496.53,368.1,516.81,374.23,508.56,385.54" style="stroke:#181818;stroke-width:1.0;"/></g><!--reverse link IBaseWriteRepository to MasterRepository--><g id="link_IBaseWriteRepository_MasterRepository"><path d="M1138.8,389.99 C1095.85,422.97 1041.99,464.31 991.91,502.76 " fill="none" id="IBaseWriteRepository-backto-MasterRepository" style="stroke:#181818;stroke-width:1.0;stroke-dasharray:7.0,7.0;"/><polygon fill="none" points="1134.57,384.41,1154.7,377.78,1143.1,395.52,1134.57,384.41" style="stroke:#181818;stroke-width:1.0;"/></g><!--reverse link ICustomRepository to MasterRepository--><g id="link_ICustomRepository_MasterRepository"><path d="M1479.54,366.86 C1437.02,384.6 1386.35,405.55 1340.5,424 C1276.21,449.87 1207.08,477.17 1141.33,502.88 " fill="none" id="ICustomRepository-backto-MasterRepository" style="stroke:#181818;stroke-width:1.0;stroke-dasharray:7.0,7.0;"/><polygon fill="none" points="1476.99,360.34,1498.14,359.09,1482.39,373.26,1476.99,360.34" style="stroke:#181818;stroke-width:1.0;"/></g><!--reverse link MasterRepository to InMemoryMasterRepository--><g id="link_MasterRepository_InMemoryMasterRepository"><path d="M840.5,757.52 C840.5,782.23 840.5,806.21 840.5,825.39 " fill="none" id="MasterRepository-backto-InMemoryMasterRepository" style="stroke:#181818;stroke-width:1.0;"/><polygon fill="none" points="833.5,757.16,840.5,737.16,847.5,757.16,833.5,757.16" style="stroke:#181818;stroke-width:1.0;"/></g><!--reverse link RestController to MasterService--><g id="link_RestController_MasterService"><path codeLine="101" d="M840.5,133.54 C840.5,161 840.5,195.04 840.5,226.75 " fill="none" id="RestController-backto-MasterService" style="stroke:#181818;stroke-width:1.0;"/><polygon fill="#181818" points="840.5,120.23,836.5,126.23,840.5,132.23,844.5,126.23,840.5,120.23" style="stroke:#181818;stroke-width:1.0;"/><text fill="#000000" font-family="sans-serif" font-size="13" lengthAdjust="spacing" textLength="70" x="841.5" y="193.0283">composition</text><text fill="#000000" font-family="sans-serif" font-size="13" lengthAdjust="spacing" textLength="22" x="817.6578" y="215.5793">1..1</text></g><!--reverse link MasterService to MasterRepository--><g id="link_MasterService_MasterRepository"><path codeLine="102" d="M840.5,437.45 C840.5,458.82 840.5,481.25 840.5,502.78 " fill="none" id="MasterService-backto-MasterRepository" style="stroke:#181818;stroke-width:1.0;"/><polygon fill="none" points="840.5,424.3,836.5,430.3,840.5,436.3,844.5,430.3,840.5,424.3" style="stroke:#181818;stroke-width:1.0;"/><text fill="#000000" font-family="sans-serif" font-size="13" lengthAdjust="spacing" textLength="67" x="841.5" y="469.0283">aggregation</text><text fill="#000000" font-family="sans-serif" font-size="13" lengthAdjust="spacing" textLength="22" x="817.7953" y="491.7569">1..1</text></g><!--reverse link BaseReadRepository to IReadDao--><g id="link_BaseReadRepository_IReadDao"><path codeLine="103" d="M169.5,694.39 C169.5,737.1 169.5,789.4 169.5,825.16 " fill="none" id="BaseReadRepository-backto-IReadDao" style="stroke:#181818;stroke-width:1.0;"/><polygon fill="none" points="169.5,681.18,165.5,687.18,169.5,693.18,173.5,687.18,169.5,681.18" style="stroke:#181818;stroke-width:1.0;"/><text fill="#000000" font-family="sans-serif" font-size="13" lengthAdjust="spacing" textLength="67" x="170.5" y="782.0283">aggregation</text><text fill="#000000" font-family="sans-serif" font-size="13" lengthAdjust="spacing" textLength="22" x="145.8156" y="814.3306">1..1</text></g><!--reverse link BaseWriteRepository to IWriteDao--><g id="link_BaseWriteRepository_IWriteDao"><path codeLine="104" d="M1510.5,703.86 C1510.5,740.87 1510.5,783.31 1510.5,815.63 " fill="none" id="BaseWriteRepository-backto-IWriteDao" style="stroke:#181818;stroke-width:1.0;"/><polygon fill="none" points="1510.5,690.51,1506.5,696.51,1510.5,702.51,1514.5,696.51,1510.5,690.51" style="stroke:#181818;stroke-width:1.0;"/><text fill="#000000" font-family="sans-serif" font-size="13" lengthAdjust="spacing" textLength="22" x="1487.0906" y="804.8868">1..1</text></g><!--reverse link BaseCustomRepository to ICustomDao--><g id="link_BaseCustomRepository_ICustomDao"><path codeLine="105" d="M1897.5,675.84 C1897.5,724.4 1897.5,793.69 1897.5,834.14 " fill="none" id="BaseCustomRepository-backto-ICustomDao" style="stroke:#181818;stroke-width:1.0;"/><polygon fill="none" points="1897.5,662.73,1893.5,668.73,1897.5,674.73,1901.5,668.73,1897.5,662.73" style="stroke:#181818;stroke-width:1.0;"/><text fill="#000000" font-family="sans-serif" font-size="13" lengthAdjust="spacing" textLength="22" x="1873.4031" y="823.1573">1..1</text></g><!--SRC=[pLTDRzim3BtxLn3j8KxdTEZL60eqAOOLM8UX7zXPjPL4Wonvaf8i6FhVH_bRjh8QRRSkoC6HoCSdyf5Mc31KBKb2uUg6alIIo0ztvxy2mCyxM54ptr-b8KjZu5AifZ7SjLiNd8UuyfbfWpx1Oy1Qh6-A6Ug2aJGDgJ3Cx05Xq74hMLhjAPh9BQss1xkRF2M6DYmYwDhTkO4N6sravaRMbAXa7IuPHxDRen1ijOy_EZ-_AhbbALNeTkXCSwAfpT4DpQLcHgezl3nH5hH8Lelw5WbhexzItX9Ej8RBUIigO5dEQOPKTAErCj8C4Ya4JGoJ8eP5yrpHQ432wVFINNFfYD8XKw-FP5ERDtJ-Og5gwbrPEzoRZL7aNrxHOHFq6GqjIch7c8kYZ75tr5J4XawXp_f50l2qce-xjnkFOLTLFNQ6MuT-po_qE_mppLXAdjxsY6TurgGMLTmHs1yb1ECqDBcbQijmxEmOvxPKU5QTMubkAPXzJk51RaHAqqeGDR5WSaqqudT6xvfe80XYPH8LkOvAshZI637nlTG_u7T51LKiAUCifGAT44w3oIU2mRNCCFY6SMGDEJ4OJ01HbWqCOXjfGyiT8aZ4aakGkOr2k3_uRiquXGIf5hrO5gYF-dGVHLw1HeVhg1pts8TPQxWI-C1ws32EHXnxZzoSzdPQ-sbUqMXAqKWsm-Oxr7lFRBvdJATNwAfIJrVY6hchlKzNzAUX8XrghXOAHwm-fKDuRrYzHwTrgbdIN5YE8UjHZNrDLXtFmGX7UOwNpt-Xdf4Z-OPg0oHdoFt7nZwlYKWvLU_n9c6KvFXOZYuSajNqPa8R8l0XJ6HM90Z7sXHdjpGQm-MGutIcLR4i_gA5ScjrhviQnBsosgtwWFRv8cTXAm6xKbzvwanLFmN940pFpQgbqh-Jzgv5vqg1IPzsa8grBsXgLokuno3edUTaDeEZizFJioENFxxMEya9t3tPT-gyN68WgvMYg_9TuVdJqN6khqOUfrwVELxrVIJmNH8So_RjFrdOl5_0R7PUx9uSGR4ojx4Vajy0]--></g></svg>