<?xml version="1.0" encoding="us-ascii" standalone="no"?><svg xmlns="http://www.w3.org/2000/svg" xmlns:xlink="http://www.w3.org/1999/xlink" contentStyleType="text/css" height="890px" preserveAspectRatio="none" style="width:2653px;height:890px;background:#FFFFFF;" version="1.1" viewBox="0 0 2653 890" width="2653px" zoomAndPan="magnify"><defs/><g><!--class IReadDao--><g id="elem_IReadDao"><rect codeLine="1" fill="#F1F1F1" height="85.2422" id="IReadDao" rx="2.5" ry="2.5" style="stroke:#181818;stroke-width:0.5;" width="146" x="7" y="35"/><ellipse cx="39.55" cy="51" fill="#B4A7E5" rx="11" ry="11" style="stroke:#181818;stroke-width:1.0;"/><path d="M40.5031,47.6406 L40.5031,54.2969 L42.2219,54.2969 Q42.8313,54.2969 43.0969,54.5313 Q43.3625,54.7656 43.3625,55.1563 Q43.3625,55.5313 43.0969,55.7656 Q42.8313,56 42.2219,56 L37.0813,56 Q36.4719,56 36.2063,55.7656 Q35.9406,55.5313 35.9406,55.1406 Q35.9406,54.7656 36.2063,54.5313 Q36.4719,54.2969 37.0813,54.2969 L38.8,54.2969 L38.8,47.6406 L37.0813,47.6406 Q36.4719,47.6406 36.2063,47.4063 Q35.9406,47.1719 35.9406,46.7813 Q35.9406,46.4063 36.2063,46.1719 Q36.4719,45.9375 37.0813,45.9375 L42.2219,45.9375 Q42.8313,45.9375 43.0969,46.1719 Q43.3625,46.4063 43.3625,46.7813 Q43.3625,47.1719 43.0969,47.4063 Q42.8313,47.6406 42.2219,47.6406 L40.5031,47.6406 Z " fill="#000000"/><text fill="#000000" font-family="sans-serif" font-size="14" font-style="italic" lengthAdjust="spacing" textLength="64" x="57.45" y="56.7969">IReadDao</text><rect fill="#FFFFFF" height="17.9609" style="stroke:#181818;stroke-width:1.0;stroke-dasharray:2.0,2.0;" width="9" x="147" y="32"/><text fill="#000000" font-family="sans-serif" font-size="12" font-style="italic" lengthAdjust="spacing" textLength="7" x="148" y="45.9492">T</text><line style="stroke:#181818;stroke-width:0.5;" x1="8" x2="152" y1="67" y2="67"/><line style="stroke:#181818;stroke-width:0.5;" x1="8" x2="152" y1="75" y2="75"/><ellipse cx="18" cy="89.8105" fill="#84BE84" rx="3" ry="3" style="stroke:#038048;stroke-width:1.0;"/><text fill="#000000" font-family="sans-serif" font-size="14" lengthAdjust="spacing" textLength="120" x="27" y="94.1074">getById(id: long): T</text><ellipse cx="18" cy="108.4316" fill="#84BE84" rx="3" ry="3" style="stroke:#038048;stroke-width:1.0;"/><text fill="#000000" font-family="sans-serif" font-size="14" lengthAdjust="spacing" textLength="100" x="27" y="112.7285">getAll(): List&lt;T&gt;</text></g><!--class IWriteDao--><g id="elem_IWriteDao"><rect codeLine="5" fill="#F1F1F1" height="103.8633" id="IWriteDao" rx="2.5" ry="2.5" style="stroke:#181818;stroke-width:0.5;" width="202" x="188" y="25.5"/><ellipse cx="247.25" cy="41.5" fill="#B4A7E5" rx="11" ry="11" style="stroke:#181818;stroke-width:1.0;"/><path d="M248.2031,38.1406 L248.2031,44.7969 L249.9219,44.7969 Q250.5313,44.7969 250.7969,45.0313 Q251.0625,45.2656 251.0625,45.6563 Q251.0625,46.0313 250.7969,46.2656 Q250.5313,46.5 249.9219,46.5 L244.7813,46.5 Q244.1719,46.5 243.9063,46.2656 Q243.6406,46.0313 243.6406,45.6406 Q243.6406,45.2656 243.9063,45.0313 Q244.1719,44.7969 244.7813,44.7969 L246.5,44.7969 L246.5,38.1406 L244.7813,38.1406 Q244.1719,38.1406 243.9063,37.9063 Q243.6406,37.6719 243.6406,37.2813 Q243.6406,36.9063 243.9063,36.6719 Q244.1719,36.4375 244.7813,36.4375 L249.9219,36.4375 Q250.5313,36.4375 250.7969,36.6719 Q251.0625,36.9063 251.0625,37.2813 Q251.0625,37.6719 250.7969,37.9063 Q250.5313,38.1406 249.9219,38.1406 L248.2031,38.1406 Z " fill="#000000"/><text fill="#000000" font-family="sans-serif" font-size="14" font-style="italic" lengthAdjust="spacing" textLength="64" x="267.75" y="47.2969">IWriteDao</text><rect fill="#FFFFFF" height="17.9609" style="stroke:#181818;stroke-width:1.0;stroke-dasharray:2.0,2.0;" width="9" x="384" y="22.5"/><text fill="#000000" font-family="sans-serif" font-size="12" font-style="italic" lengthAdjust="spacing" textLength="7" x="385" y="36.4492">T</text><line style="stroke:#181818;stroke-width:0.5;" x1="189" x2="389" y1="57.5" y2="57.5"/><line style="stroke:#181818;stroke-width:0.5;" x1="189" x2="389" y1="65.5" y2="65.5"/><ellipse cx="199" cy="80.3105" fill="#84BE84" rx="3" ry="3" style="stroke:#038048;stroke-width:1.0;"/><text fill="#000000" font-family="sans-serif" font-size="14" lengthAdjust="spacing" textLength="123" x="208" y="84.6074">add(entity : T): void</text><ellipse cx="199" cy="98.9316" fill="#84BE84" rx="3" ry="3" style="stroke:#038048;stroke-width:1.0;"/><text fill="#000000" font-family="sans-serif" font-size="14" lengthAdjust="spacing" textLength="142" x="208" y="103.2285">remove(entity: T): void</text><ellipse cx="199" cy="117.5527" fill="#84BE84" rx="3" ry="3" style="stroke:#038048;stroke-width:1.0;"/><text fill="#000000" font-family="sans-serif" font-size="14" lengthAdjust="spacing" textLength="176" x="208" y="121.8496">update(id: long, entity: T): T</text></g><!--class ICustomDao--><g id="elem_ICustomDao"><rect codeLine="10" fill="#F1F1F1" height="66.6211" id="ICustomDao" rx="2.5" ry="2.5" style="stroke:#181818;stroke-width:0.5;" width="381" x="425.5" y="44"/><ellipse cx="567.25" cy="60" fill="#B4A7E5" rx="11" ry="11" style="stroke:#181818;stroke-width:1.0;"/><path d="M568.2031,56.6406 L568.2031,63.2969 L569.9219,63.2969 Q570.5313,63.2969 570.7969,63.5313 Q571.0625,63.7656 571.0625,64.1563 Q571.0625,64.5313 570.7969,64.7656 Q570.5313,65 569.9219,65 L564.7813,65 Q564.1719,65 563.9063,64.7656 Q563.6406,64.5313 563.6406,64.1406 Q563.6406,63.7656 563.9063,63.5313 Q564.1719,63.2969 564.7813,63.2969 L566.5,63.2969 L566.5,56.6406 L564.7813,56.6406 Q564.1719,56.6406 563.9063,56.4063 Q563.6406,56.1719 563.6406,55.7813 Q563.6406,55.4063 563.9063,55.1719 Q564.1719,54.9375 564.7813,54.9375 L569.9219,54.9375 Q570.5313,54.9375 570.7969,55.1719 Q571.0625,55.4063 571.0625,55.7813 Q571.0625,56.1719 570.7969,56.4063 Q570.5313,56.6406 569.9219,56.6406 L568.2031,56.6406 Z " fill="#000000"/><text fill="#000000" font-family="sans-serif" font-size="14" font-style="italic" lengthAdjust="spacing" textLength="78" x="587.75" y="65.7969">ICustomDao</text><rect fill="#FFFFFF" height="17.9609" style="stroke:#181818;stroke-width:1.0;stroke-dasharray:2.0,2.0;" width="9" x="800.5" y="41"/><text fill="#000000" font-family="sans-serif" font-size="12" font-style="italic" lengthAdjust="spacing" textLength="7" x="801.5" y="54.9492">T</text><line style="stroke:#181818;stroke-width:0.5;" x1="426.5" x2="805.5" y1="76" y2="76"/><line style="stroke:#181818;stroke-width:0.5;" x1="426.5" x2="805.5" y1="84" y2="84"/><ellipse cx="436.5" cy="98.8105" fill="#84BE84" rx="3" ry="3" style="stroke:#038048;stroke-width:1.0;"/><text fill="#000000" font-family="sans-serif" font-size="14" lengthAdjust="spacing" textLength="355" x="445.5" y="103.1074">search(filterStrategy:FilterStrategyProvider&lt;T&gt;): List&lt;T&gt;</text></g><!--class IBaseReadRepository--><g id="elem_IBaseReadRepository"><rect codeLine="13" fill="#F1F1F1" height="85.2422" id="IBaseReadRepository" rx="2.5" ry="2.5" style="stroke:#181818;stroke-width:0.5;" width="170" x="842" y="283"/><ellipse cx="857" cy="299" fill="#B4A7E5" rx="11" ry="11" style="stroke:#181818;stroke-width:1.0;"/><path d="M857.9531,295.6406 L857.9531,302.2969 L859.6719,302.2969 Q860.2813,302.2969 860.5469,302.5313 Q860.8125,302.7656 860.8125,303.1563 Q860.8125,303.5313 860.5469,303.7656 Q860.2813,304 859.6719,304 L854.5313,304 Q853.9219,304 853.6563,303.7656 Q853.3906,303.5313 853.3906,303.1406 Q853.3906,302.7656 853.6563,302.5313 Q853.9219,302.2969 854.5313,302.2969 L856.25,302.2969 L856.25,295.6406 L854.5313,295.6406 Q853.9219,295.6406 853.6563,295.4063 Q853.3906,295.1719 853.3906,294.7813 Q853.3906,294.4063 853.6563,294.1719 Q853.9219,293.9375 854.5313,293.9375 L859.6719,293.9375 Q860.2813,293.9375 860.5469,294.1719 Q860.8125,294.4063 860.8125,294.7813 Q860.8125,295.1719 860.5469,295.4063 Q860.2813,295.6406 859.6719,295.6406 L857.9531,295.6406 Z " fill="#000000"/><text fill="#000000" font-family="sans-serif" font-size="14" font-style="italic" lengthAdjust="spacing" textLength="138" x="871" y="304.7969">IBaseReadRepository</text><line style="stroke:#181818;stroke-width:0.5;" x1="843" x2="1011" y1="315" y2="315"/><line style="stroke:#181818;stroke-width:0.5;" x1="843" x2="1011" y1="323" y2="323"/><ellipse cx="853" cy="337.8105" fill="#84BE84" rx="3" ry="3" style="stroke:#038048;stroke-width:1.0;"/><text fill="#000000" font-family="sans-serif" font-size="14" lengthAdjust="spacing" textLength="120" x="862" y="342.1074">getById(id: long): T</text><ellipse cx="853" cy="356.4316" fill="#84BE84" rx="3" ry="3" style="stroke:#038048;stroke-width:1.0;"/><text fill="#000000" font-family="sans-serif" font-size="14" lengthAdjust="spacing" textLength="100" x="862" y="360.7285">getAll(): List&lt;T&gt;</text></g><!--class IBaseWriteRepository--><g id="elem_IBaseWriteRepository"><rect codeLine="17" fill="#F1F1F1" height="103.8633" id="IBaseWriteRepository" rx="2.5" ry="2.5" style="stroke:#181818;stroke-width:0.5;" width="202" x="1805" y="273.5"/><ellipse cx="1834.4" cy="289.5" fill="#B4A7E5" rx="11" ry="11" style="stroke:#181818;stroke-width:1.0;"/><path d="M1835.3531,286.1406 L1835.3531,292.7969 L1837.0719,292.7969 Q1837.6813,292.7969 1837.9469,293.0313 Q1838.2125,293.2656 1838.2125,293.6563 Q1838.2125,294.0313 1837.9469,294.2656 Q1837.6813,294.5 1837.0719,294.5 L1831.9313,294.5 Q1831.3219,294.5 1831.0563,294.2656 Q1830.7906,294.0313 1830.7906,293.6406 Q1830.7906,293.2656 1831.0563,293.0313 Q1831.3219,292.7969 1831.9313,292.7969 L1833.65,292.7969 L1833.65,286.1406 L1831.9313,286.1406 Q1831.3219,286.1406 1831.0563,285.9063 Q1830.7906,285.6719 1830.7906,285.2813 Q1830.7906,284.9063 1831.0563,284.6719 Q1831.3219,284.4375 1831.9313,284.4375 L1837.0719,284.4375 Q1837.6813,284.4375 1837.9469,284.6719 Q1838.2125,284.9063 1838.2125,285.2813 Q1838.2125,285.6719 1837.9469,285.9063 Q1837.6813,286.1406 1837.0719,286.1406 L1835.3531,286.1406 Z " fill="#000000"/><text fill="#000000" font-family="sans-serif" font-size="14" font-style="italic" lengthAdjust="spacing" textLength="138" x="1851.6" y="295.2969">IBaseWriteRepository</text><line style="stroke:#181818;stroke-width:0.5;" x1="1806" x2="2006" y1="305.5" y2="305.5"/><line style="stroke:#181818;stroke-width:0.5;" x1="1806" x2="2006" y1="313.5" y2="313.5"/><ellipse cx="1816" cy="328.3105" fill="#84BE84" rx="3" ry="3" style="stroke:#038048;stroke-width:1.0;"/><text fill="#000000" font-family="sans-serif" font-size="14" lengthAdjust="spacing" textLength="123" x="1825" y="332.6074">add(entity : T): void</text><ellipse cx="1816" cy="346.9316" fill="#84BE84" rx="3" ry="3" style="stroke:#038048;stroke-width:1.0;"/><text fill="#000000" font-family="sans-serif" font-size="14" lengthAdjust="spacing" textLength="142" x="1825" y="351.2285">remove(entity: T): void</text><ellipse cx="1816" cy="365.5527" fill="#84BE84" rx="3" ry="3" style="stroke:#038048;stroke-width:1.0;"/><text fill="#000000" font-family="sans-serif" font-size="14" lengthAdjust="spacing" textLength="176" x="1825" y="369.8496">update(id: long, entity: T): T</text></g><!--class ICustomRepository--><g id="elem_ICustomRepository"><rect codeLine="22" fill="#F1F1F1" height="66.6211" id="ICustomRepository" rx="2.5" ry="2.5" style="stroke:#181818;stroke-width:0.5;" width="381" x="2151.5" y="292"/><ellipse cx="2272.25" cy="308" fill="#B4A7E5" rx="11" ry="11" style="stroke:#181818;stroke-width:1.0;"/><path d="M2273.2031,304.6406 L2273.2031,311.2969 L2274.9219,311.2969 Q2275.5313,311.2969 2275.7969,311.5313 Q2276.0625,311.7656 2276.0625,312.1563 Q2276.0625,312.5313 2275.7969,312.7656 Q2275.5313,313 2274.9219,313 L2269.7813,313 Q2269.1719,313 2268.9063,312.7656 Q2268.6406,312.5313 2268.6406,312.1406 Q2268.6406,311.7656 2268.9063,311.5313 Q2269.1719,311.2969 2269.7813,311.2969 L2271.5,311.2969 L2271.5,304.6406 L2269.7813,304.6406 Q2269.1719,304.6406 2268.9063,304.4063 Q2268.6406,304.1719 2268.6406,303.7813 Q2268.6406,303.4063 2268.9063,303.1719 Q2269.1719,302.9375 2269.7813,302.9375 L2274.9219,302.9375 Q2275.5313,302.9375 2275.7969,303.1719 Q2276.0625,303.4063 2276.0625,303.7813 Q2276.0625,304.1719 2275.7969,304.4063 Q2275.5313,304.6406 2274.9219,304.6406 L2273.2031,304.6406 Z " fill="#000000"/><text fill="#000000" font-family="sans-serif" font-size="14" font-style="italic" lengthAdjust="spacing" textLength="120" x="2292.75" y="313.7969">ICustomRepository</text><rect fill="#FFFFFF" height="17.9609" style="stroke:#181818;stroke-width:1.0;stroke-dasharray:2.0,2.0;" width="9" x="2526.5" y="289"/><text fill="#000000" font-family="sans-serif" font-size="12" font-style="italic" lengthAdjust="spacing" textLength="7" x="2527.5" y="302.9492">T</text><line style="stroke:#181818;stroke-width:0.5;" x1="2152.5" x2="2531.5" y1="324" y2="324"/><line style="stroke:#181818;stroke-width:0.5;" x1="2152.5" x2="2531.5" y1="332" y2="332"/><ellipse cx="2162.5" cy="346.8105" fill="#84BE84" rx="3" ry="3" style="stroke:#038048;stroke-width:1.0;"/><text fill="#000000" font-family="sans-serif" font-size="14" lengthAdjust="spacing" textLength="355" x="2171.5" y="351.1074">search(filterStrategy:FilterStrategyProvider&lt;T&gt;): List&lt;T&gt;</text></g><!--class ReadDao--><g id="elem_ReadDao"><rect codeLine="25" fill="#F1F1F1" height="85.2422" id="ReadDao" rx="2.5" ry="2.5" style="stroke:#181818;stroke-width:0.5;" width="146" x="7" y="283"/><ellipse cx="41.35" cy="299" fill="#ADD1B2" rx="11" ry="11" style="stroke:#181818;stroke-width:1.0;"/><path d="M44.1156,294.875 Q44.2719,294.6563 44.4594,294.5469 Q44.6469,294.4375 44.8656,294.4375 Q45.2406,294.4375 45.475,294.7031 Q45.7094,294.9531 45.7094,295.5625 L45.7094,297.0156 Q45.7094,297.625 45.475,297.8906 Q45.2406,298.1563 44.8656,298.1563 Q44.5219,298.1563 44.3188,297.9531 Q44.1156,297.7656 44.0063,297.25 Q43.9594,296.8906 43.7719,296.7031 Q43.4438,296.3281 42.8344,296.1094 Q42.225,295.8906 41.6,295.8906 Q40.8344,295.8906 40.1938,296.2188 Q39.5688,296.5469 39.0688,297.2969 Q38.5844,298.0469 38.5844,299.0781 L38.5844,300.1719 Q38.5844,301.4063 39.475,302.2344 Q40.3656,303.0469 41.9594,303.0469 Q42.8969,303.0469 43.5531,302.7969 Q43.9438,302.6406 44.3656,302.2031 Q44.6313,301.9375 44.7719,301.8594 Q44.9281,301.7813 45.1313,301.7813 Q45.4594,301.7813 45.7094,302.0469 Q45.975,302.2969 45.975,302.6406 Q45.975,302.9844 45.6313,303.3906 Q45.1313,303.9688 44.3344,304.2969 Q43.2563,304.75 41.9594,304.75 Q40.4438,304.75 39.2406,304.125 Q38.2563,303.625 37.5688,302.5625 Q36.8813,301.4844 36.8813,300.2031 L36.8813,299.0469 Q36.8813,297.7188 37.4906,296.5781 Q38.1156,295.4219 39.2094,294.8125 Q40.3031,294.1875 41.5375,294.1875 Q42.2719,294.1875 42.9125,294.3594 Q43.5688,294.5156 44.1156,294.875 Z " fill="#000000"/><text fill="#000000" font-family="sans-serif" font-size="14" lengthAdjust="spacing" textLength="60" x="59.65" y="304.7969">ReadDao</text><rect fill="#FFFFFF" height="17.9609" style="stroke:#181818;stroke-width:1.0;stroke-dasharray:2.0,2.0;" width="9" x="147" y="280"/><text fill="#000000" font-family="sans-serif" font-size="12" font-style="italic" lengthAdjust="spacing" textLength="7" x="148" y="293.9492">T</text><line style="stroke:#181818;stroke-width:0.5;" x1="8" x2="152" y1="315" y2="315"/><line style="stroke:#181818;stroke-width:0.5;" x1="8" x2="152" y1="323" y2="323"/><ellipse cx="18" cy="337.8105" fill="#84BE84" rx="3" ry="3" style="stroke:#038048;stroke-width:1.0;"/><text fill="#000000" font-family="sans-serif" font-size="14" lengthAdjust="spacing" textLength="120" x="27" y="342.1074">getById(id: long): T</text><ellipse cx="18" cy="356.4316" fill="#84BE84" rx="3" ry="3" style="stroke:#038048;stroke-width:1.0;"/><text fill="#000000" font-family="sans-serif" font-size="14" lengthAdjust="spacing" textLength="100" x="27" y="360.7285">getAll(): List&lt;T&gt;</text></g><!--class WriteDao--><g id="elem_WriteDao"><rect codeLine="29" fill="#F1F1F1" height="103.8633" id="WriteDao" rx="2.5" ry="2.5" style="stroke:#181818;stroke-width:0.5;" width="202" x="188" y="273.5"/><ellipse cx="249.75" cy="289.5" fill="#ADD1B2" rx="11" ry="11" style="stroke:#181818;stroke-width:1.0;"/><path d="M252.5156,285.375 Q252.6719,285.1563 252.8594,285.0469 Q253.0469,284.9375 253.2656,284.9375 Q253.6406,284.9375 253.875,285.2031 Q254.1094,285.4531 254.1094,286.0625 L254.1094,287.5156 Q254.1094,288.125 253.875,288.3906 Q253.6406,288.6563 253.2656,288.6563 Q252.9219,288.6563 252.7188,288.4531 Q252.5156,288.2656 252.4063,287.75 Q252.3594,287.3906 252.1719,287.2031 Q251.8438,286.8281 251.2344,286.6094 Q250.625,286.3906 250,286.3906 Q249.2344,286.3906 248.5938,286.7188 Q247.9688,287.0469 247.4688,287.7969 Q246.9844,288.5469 246.9844,289.5781 L246.9844,290.6719 Q246.9844,291.9063 247.875,292.7344 Q248.7656,293.5469 250.3594,293.5469 Q251.2969,293.5469 251.9531,293.2969 Q252.3438,293.1406 252.7656,292.7031 Q253.0313,292.4375 253.1719,292.3594 Q253.3281,292.2813 253.5313,292.2813 Q253.8594,292.2813 254.1094,292.5469 Q254.375,292.7969 254.375,293.1406 Q254.375,293.4844 254.0313,293.8906 Q253.5313,294.4688 252.7344,294.7969 Q251.6563,295.25 250.3594,295.25 Q248.8438,295.25 247.6406,294.625 Q246.6563,294.125 245.9688,293.0625 Q245.2813,291.9844 245.2813,290.7031 L245.2813,289.5469 Q245.2813,288.2188 245.8906,287.0781 Q246.5156,285.9219 247.6094,285.3125 Q248.7031,284.6875 249.9375,284.6875 Q250.6719,284.6875 251.3125,284.8594 Q251.9688,285.0156 252.5156,285.375 Z " fill="#000000"/><text fill="#000000" font-family="sans-serif" font-size="14" lengthAdjust="spacing" textLength="59" x="270.25" y="295.2969">WriteDao</text><rect fill="#FFFFFF" height="17.9609" style="stroke:#181818;stroke-width:1.0;stroke-dasharray:2.0,2.0;" width="9" x="384" y="270.5"/><text fill="#000000" font-family="sans-serif" font-size="12" font-style="italic" lengthAdjust="spacing" textLength="7" x="385" y="284.4492">T</text><line style="stroke:#181818;stroke-width:0.5;" x1="189" x2="389" y1="305.5" y2="305.5"/><line style="stroke:#181818;stroke-width:0.5;" x1="189" x2="389" y1="313.5" y2="313.5"/><ellipse cx="199" cy="328.3105" fill="#84BE84" rx="3" ry="3" style="stroke:#038048;stroke-width:1.0;"/><text fill="#000000" font-family="sans-serif" font-size="14" lengthAdjust="spacing" textLength="123" x="208" y="332.6074">add(entity : T): void</text><ellipse cx="199" cy="346.9316" fill="#84BE84" rx="3" ry="3" style="stroke:#038048;stroke-width:1.0;"/><text fill="#000000" font-family="sans-serif" font-size="14" lengthAdjust="spacing" textLength="142" x="208" y="351.2285">remove(entity: T): void</text><ellipse cx="199" cy="365.5527" fill="#84BE84" rx="3" ry="3" style="stroke:#038048;stroke-width:1.0;"/><text fill="#000000" font-family="sans-serif" font-size="14" lengthAdjust="spacing" textLength="176" x="208" y="369.8496">update(id: long, entity: T): T</text></g><!--class CustomDao--><g id="elem_CustomDao"><rect codeLine="34" fill="#F1F1F1" height="66.6211" id="CustomDao" rx="2.5" ry="2.5" style="stroke:#181818;stroke-width:0.5;" width="381" x="425.5" y="292"/><ellipse cx="569.25" cy="308" fill="#ADD1B2" rx="11" ry="11" style="stroke:#181818;stroke-width:1.0;"/><path d="M572.0156,303.875 Q572.1719,303.6563 572.3594,303.5469 Q572.5469,303.4375 572.7656,303.4375 Q573.1406,303.4375 573.375,303.7031 Q573.6094,303.9531 573.6094,304.5625 L573.6094,306.0156 Q573.6094,306.625 573.375,306.8906 Q573.1406,307.1563 572.7656,307.1563 Q572.4219,307.1563 572.2188,306.9531 Q572.0156,306.7656 571.9063,306.25 Q571.8594,305.8906 571.6719,305.7031 Q571.3438,305.3281 570.7344,305.1094 Q570.125,304.8906 569.5,304.8906 Q568.7344,304.8906 568.0938,305.2188 Q567.4688,305.5469 566.9688,306.2969 Q566.4844,307.0469 566.4844,308.0781 L566.4844,309.1719 Q566.4844,310.4063 567.375,311.2344 Q568.2656,312.0469 569.8594,312.0469 Q570.7969,312.0469 571.4531,311.7969 Q571.8438,311.6406 572.2656,311.2031 Q572.5313,310.9375 572.6719,310.8594 Q572.8281,310.7813 573.0313,310.7813 Q573.3594,310.7813 573.6094,311.0469 Q573.875,311.2969 573.875,311.6406 Q573.875,311.9844 573.5313,312.3906 Q573.0313,312.9688 572.2344,313.2969 Q571.1563,313.75 569.8594,313.75 Q568.3438,313.75 567.1406,313.125 Q566.1563,312.625 565.4688,311.5625 Q564.7813,310.4844 564.7813,309.2031 L564.7813,308.0469 Q564.7813,306.7188 565.3906,305.5781 Q566.0156,304.4219 567.1094,303.8125 Q568.2031,303.1875 569.4375,303.1875 Q570.1719,303.1875 570.8125,303.3594 Q571.4688,303.5156 572.0156,303.875 Z " fill="#000000"/><text fill="#000000" font-family="sans-serif" font-size="14" lengthAdjust="spacing" textLength="74" x="589.75" y="313.7969">CustomDao</text><rect fill="#FFFFFF" height="17.9609" style="stroke:#181818;stroke-width:1.0;stroke-dasharray:2.0,2.0;" width="9" x="800.5" y="289"/><text fill="#000000" font-family="sans-serif" font-size="12" font-style="italic" lengthAdjust="spacing" textLength="7" x="801.5" y="302.9492">T</text><line style="stroke:#181818;stroke-width:0.5;" x1="426.5" x2="805.5" y1="324" y2="324"/><line style="stroke:#181818;stroke-width:0.5;" x1="426.5" x2="805.5" y1="332" y2="332"/><ellipse cx="436.5" cy="346.8105" fill="#84BE84" rx="3" ry="3" style="stroke:#038048;stroke-width:1.0;"/><text fill="#000000" font-family="sans-serif" font-size="14" lengthAdjust="spacing" textLength="355" x="445.5" y="351.1074">search(filterStrategy:FilterStrategyProvider&lt;T&gt;): List&lt;T&gt;</text></g><!--class BaseReadRepository--><g id="elem_BaseReadRepository"><rect codeLine="37" fill="#F1F1F1" height="122.4844" id="BaseReadRepository" rx="2.5" ry="2.5" style="stroke:#181818;stroke-width:0.5;" width="318" x="568" y="559"/><ellipse cx="650.25" cy="575" fill="#ADD1B2" rx="11" ry="11" style="stroke:#181818;stroke-width:1.0;"/><path d="M653.0156,570.875 Q653.1719,570.6563 653.3594,570.5469 Q653.5469,570.4375 653.7656,570.4375 Q654.1406,570.4375 654.375,570.7031 Q654.6094,570.9531 654.6094,571.5625 L654.6094,573.0156 Q654.6094,573.625 654.375,573.8906 Q654.1406,574.1563 653.7656,574.1563 Q653.4219,574.1563 653.2188,573.9531 Q653.0156,573.7656 652.9063,573.25 Q652.8594,572.8906 652.6719,572.7031 Q652.3438,572.3281 651.7344,572.1094 Q651.125,571.8906 650.5,571.8906 Q649.7344,571.8906 649.0938,572.2188 Q648.4688,572.5469 647.9688,573.2969 Q647.4844,574.0469 647.4844,575.0781 L647.4844,576.1719 Q647.4844,577.4063 648.375,578.2344 Q649.2656,579.0469 650.8594,579.0469 Q651.7969,579.0469 652.4531,578.7969 Q652.8438,578.6406 653.2656,578.2031 Q653.5313,577.9375 653.6719,577.8594 Q653.8281,577.7813 654.0313,577.7813 Q654.3594,577.7813 654.6094,578.0469 Q654.875,578.2969 654.875,578.6406 Q654.875,578.9844 654.5313,579.3906 Q654.0313,579.9688 653.2344,580.2969 Q652.1563,580.75 650.8594,580.75 Q649.3438,580.75 648.1406,580.125 Q647.1563,579.625 646.4688,578.5625 Q645.7813,577.4844 645.7813,576.2031 L645.7813,575.0469 Q645.7813,573.7188 646.3906,572.5781 Q647.0156,571.4219 648.1094,570.8125 Q649.2031,570.1875 650.4375,570.1875 Q651.1719,570.1875 651.8125,570.3594 Q652.4688,570.5156 653.0156,570.875 Z " fill="#000000"/><text fill="#000000" font-family="sans-serif" font-size="14" lengthAdjust="spacing" textLength="134" x="670.75" y="580.7969">BaseReadRepository</text><rect fill="#FFFFFF" height="17.9609" style="stroke:#181818;stroke-width:1.0;stroke-dasharray:2.0,2.0;" width="9" x="880" y="556"/><text fill="#000000" font-family="sans-serif" font-size="12" font-style="italic" lengthAdjust="spacing" textLength="7" x="881" y="569.9492">T</text><line style="stroke:#181818;stroke-width:0.5;" x1="569" x2="885" y1="591" y2="591"/><polygon fill="none" points="579,600.8105,583,604.8105,579,608.8105,575,604.8105" style="stroke:#B38D22;stroke-width:1.0;"/><text fill="#000000" font-family="sans-serif" font-size="14" lengthAdjust="spacing" textLength="148" x="588" y="610.1074">readDao: ReadDao&lt;T&gt;</text><line style="stroke:#181818;stroke-width:0.5;" x1="569" x2="885" y1="617.6211" y2="617.6211"/><ellipse cx="579" cy="632.4316" fill="#84BE84" rx="3" ry="3" style="stroke:#038048;stroke-width:1.0;"/><text fill="#000000" font-family="sans-serif" font-size="14" lengthAdjust="spacing" textLength="292" x="588" y="636.7285">BaseReadRepository(readDao: ReadDao&lt;T&gt;)</text><ellipse cx="579" cy="651.0527" fill="#84BE84" rx="3" ry="3" style="stroke:#038048;stroke-width:1.0;"/><text fill="#000000" font-family="sans-serif" font-size="14" lengthAdjust="spacing" textLength="120" x="588" y="655.3496">getById(id: long): T</text><ellipse cx="579" cy="669.6738" fill="#84BE84" rx="3" ry="3" style="stroke:#038048;stroke-width:1.0;"/><text fill="#000000" font-family="sans-serif" font-size="14" lengthAdjust="spacing" textLength="100" x="588" y="673.9707">getAll(): List&lt;T&gt;</text></g><!--class BaseWriteRepository--><g id="elem_BaseWriteRepository"><rect codeLine="43" fill="#F1F1F1" height="141.1055" id="BaseWriteRepository" rx="2.5" ry="2.5" style="stroke:#181818;stroke-width:0.5;" width="316" x="1906" y="549.5"/><ellipse cx="1987.75" cy="565.5" fill="#ADD1B2" rx="11" ry="11" style="stroke:#181818;stroke-width:1.0;"/><path d="M1990.5156,561.375 Q1990.6719,561.1563 1990.8594,561.0469 Q1991.0469,560.9375 1991.2656,560.9375 Q1991.6406,560.9375 1991.875,561.2031 Q1992.1094,561.4531 1992.1094,562.0625 L1992.1094,563.5156 Q1992.1094,564.125 1991.875,564.3906 Q1991.6406,564.6563 1991.2656,564.6563 Q1990.9219,564.6563 1990.7188,564.4531 Q1990.5156,564.2656 1990.4063,563.75 Q1990.3594,563.3906 1990.1719,563.2031 Q1989.8438,562.8281 1989.2344,562.6094 Q1988.625,562.3906 1988,562.3906 Q1987.2344,562.3906 1986.5938,562.7188 Q1985.9688,563.0469 1985.4688,563.7969 Q1984.9844,564.5469 1984.9844,565.5781 L1984.9844,566.6719 Q1984.9844,567.9063 1985.875,568.7344 Q1986.7656,569.5469 1988.3594,569.5469 Q1989.2969,569.5469 1989.9531,569.2969 Q1990.3438,569.1406 1990.7656,568.7031 Q1991.0313,568.4375 1991.1719,568.3594 Q1991.3281,568.2813 1991.5313,568.2813 Q1991.8594,568.2813 1992.1094,568.5469 Q1992.375,568.7969 1992.375,569.1406 Q1992.375,569.4844 1992.0313,569.8906 Q1991.5313,570.4688 1990.7344,570.7969 Q1989.6563,571.25 1988.3594,571.25 Q1986.8438,571.25 1985.6406,570.625 Q1984.6563,570.125 1983.9688,569.0625 Q1983.2813,567.9844 1983.2813,566.7031 L1983.2813,565.5469 Q1983.2813,564.2188 1983.8906,563.0781 Q1984.5156,561.9219 1985.6094,561.3125 Q1986.7031,560.6875 1987.9375,560.6875 Q1988.6719,560.6875 1989.3125,560.8594 Q1989.9688,561.0156 1990.5156,561.375 Z " fill="#000000"/><text fill="#000000" font-family="sans-serif" font-size="14" lengthAdjust="spacing" textLength="133" x="2008.25" y="571.2969">BaseWriteRepository</text><rect fill="#FFFFFF" height="17.9609" style="stroke:#181818;stroke-width:1.0;stroke-dasharray:2.0,2.0;" width="9" x="2216" y="546.5"/><text fill="#000000" font-family="sans-serif" font-size="12" font-style="italic" lengthAdjust="spacing" textLength="7" x="2217" y="560.4492">T</text><line style="stroke:#181818;stroke-width:0.5;" x1="1907" x2="2221" y1="581.5" y2="581.5"/><polygon fill="none" points="1917,591.3105,1921,595.3105,1917,599.3105,1913,595.3105" style="stroke:#B38D22;stroke-width:1.0;"/><text fill="#000000" font-family="sans-serif" font-size="14" lengthAdjust="spacing" textLength="143" x="1926" y="600.6074">writeDao: writeDao&lt;T&gt;</text><line style="stroke:#181818;stroke-width:0.5;" x1="1907" x2="2221" y1="608.1211" y2="608.1211"/><ellipse cx="1917" cy="622.9316" fill="#84BE84" rx="3" ry="3" style="stroke:#038048;stroke-width:1.0;"/><text fill="#000000" font-family="sans-serif" font-size="14" lengthAdjust="spacing" textLength="290" x="1926" y="627.2285">BaseWriteRepository(writeDao: WriteDao&lt;T&gt;)</text><ellipse cx="1917" cy="641.5527" fill="#84BE84" rx="3" ry="3" style="stroke:#038048;stroke-width:1.0;"/><text fill="#000000" font-family="sans-serif" font-size="14" lengthAdjust="spacing" textLength="123" x="1926" y="645.8496">add(entity : T): void</text><ellipse cx="1917" cy="660.1738" fill="#84BE84" rx="3" ry="3" style="stroke:#038048;stroke-width:1.0;"/><text fill="#000000" font-family="sans-serif" font-size="14" lengthAdjust="spacing" textLength="142" x="1926" y="664.4707">remove(entity: T): void</text><ellipse cx="1917" cy="678.7949" fill="#84BE84" rx="3" ry="3" style="stroke:#038048;stroke-width:1.0;"/><text fill="#000000" font-family="sans-serif" font-size="14" lengthAdjust="spacing" textLength="176" x="1926" y="683.0918">update(id: long, entity: T): T</text></g><!--class BaseCustomRepository--><g id="elem_BaseCustomRepository"><rect codeLine="50" fill="#F1F1F1" height="85.2422" id="BaseCustomRepository" rx="2.5" ry="2.5" style="stroke:#181818;stroke-width:0.5;" width="385" x="2257.5" y="577.5"/><ellipse cx="2366.25" cy="593.5" fill="#ADD1B2" rx="11" ry="11" style="stroke:#181818;stroke-width:1.0;"/><path d="M2369.0156,589.375 Q2369.1719,589.1563 2369.3594,589.0469 Q2369.5469,588.9375 2369.7656,588.9375 Q2370.1406,588.9375 2370.375,589.2031 Q2370.6094,589.4531 2370.6094,590.0625 L2370.6094,591.5156 Q2370.6094,592.125 2370.375,592.3906 Q2370.1406,592.6563 2369.7656,592.6563 Q2369.4219,592.6563 2369.2188,592.4531 Q2369.0156,592.2656 2368.9063,591.75 Q2368.8594,591.3906 2368.6719,591.2031 Q2368.3438,590.8281 2367.7344,590.6094 Q2367.125,590.3906 2366.5,590.3906 Q2365.7344,590.3906 2365.0938,590.7188 Q2364.4688,591.0469 2363.9688,591.7969 Q2363.4844,592.5469 2363.4844,593.5781 L2363.4844,594.6719 Q2363.4844,595.9063 2364.375,596.7344 Q2365.2656,597.5469 2366.8594,597.5469 Q2367.7969,597.5469 2368.4531,597.2969 Q2368.8438,597.1406 2369.2656,596.7031 Q2369.5313,596.4375 2369.6719,596.3594 Q2369.8281,596.2813 2370.0313,596.2813 Q2370.3594,596.2813 2370.6094,596.5469 Q2370.875,596.7969 2370.875,597.1406 Q2370.875,597.4844 2370.5313,597.8906 Q2370.0313,598.4688 2369.2344,598.7969 Q2368.1563,599.25 2366.8594,599.25 Q2365.3438,599.25 2364.1406,598.625 Q2363.1563,598.125 2362.4688,597.0625 Q2361.7813,595.9844 2361.7813,594.7031 L2361.7813,593.5469 Q2361.7813,592.2188 2362.3906,591.0781 Q2363.0156,589.9219 2364.1094,589.3125 Q2365.2031,588.6875 2366.4375,588.6875 Q2367.1719,588.6875 2367.8125,588.8594 Q2368.4688,589.0156 2369.0156,589.375 Z " fill="#000000"/><text fill="#000000" font-family="sans-serif" font-size="14" lengthAdjust="spacing" textLength="148" x="2386.75" y="599.2969">BaseCustomRepository</text><rect fill="#FFFFFF" height="17.9609" style="stroke:#181818;stroke-width:1.0;stroke-dasharray:2.0,2.0;" width="9" x="2636.5" y="574.5"/><text fill="#000000" font-family="sans-serif" font-size="12" font-style="italic" lengthAdjust="spacing" textLength="7" x="2637.5" y="588.4492">T</text><line style="stroke:#181818;stroke-width:0.5;" x1="2258.5" x2="2641.5" y1="609.5" y2="609.5"/><polygon fill="none" points="2268.5,619.3105,2272.5,623.3105,2268.5,627.3105,2264.5,623.3105" style="stroke:#B38D22;stroke-width:1.0;"/><text fill="#000000" font-family="sans-serif" font-size="14" lengthAdjust="spacing" textLength="153" x="2277.5" y="628.6074">customDao: CustomDao</text><line style="stroke:#181818;stroke-width:0.5;" x1="2258.5" x2="2641.5" y1="636.1211" y2="636.1211"/><ellipse cx="2268.5" cy="650.9316" fill="#84BE84" rx="3" ry="3" style="stroke:#038048;stroke-width:1.0;"/><text fill="#000000" font-family="sans-serif" font-size="14" lengthAdjust="spacing" textLength="359" x="2277.5" y="655.2285">search(filterStrategy: FilterStrategyProvider&lt;T&gt;): List&lt;T&gt;</text></g><!--class MasterRepository--><g id="elem_MasterRepository"><rect codeLine="58" fill="#F1F1F1" height="234.2109" id="MasterRepository" rx="2.5" ry="2.5" style="stroke:#181818;stroke-width:0.5;" width="950" x="921" y="503"/><ellipse cx="1330.75" cy="519" fill="#ADD1B2" rx="11" ry="11" style="stroke:#181818;stroke-width:1.0;"/><path d="M1333.5156,514.875 Q1333.6719,514.6563 1333.8594,514.5469 Q1334.0469,514.4375 1334.2656,514.4375 Q1334.6406,514.4375 1334.875,514.7031 Q1335.1094,514.9531 1335.1094,515.5625 L1335.1094,517.0156 Q1335.1094,517.625 1334.875,517.8906 Q1334.6406,518.1563 1334.2656,518.1563 Q1333.9219,518.1563 1333.7188,517.9531 Q1333.5156,517.7656 1333.4063,517.25 Q1333.3594,516.8906 1333.1719,516.7031 Q1332.8438,516.3281 1332.2344,516.1094 Q1331.625,515.8906 1331,515.8906 Q1330.2344,515.8906 1329.5938,516.2188 Q1328.9688,516.5469 1328.4688,517.2969 Q1327.9844,518.0469 1327.9844,519.0781 L1327.9844,520.1719 Q1327.9844,521.4063 1328.875,522.2344 Q1329.7656,523.0469 1331.3594,523.0469 Q1332.2969,523.0469 1332.9531,522.7969 Q1333.3438,522.6406 1333.7656,522.2031 Q1334.0313,521.9375 1334.1719,521.8594 Q1334.3281,521.7813 1334.5313,521.7813 Q1334.8594,521.7813 1335.1094,522.0469 Q1335.375,522.2969 1335.375,522.6406 Q1335.375,522.9844 1335.0313,523.3906 Q1334.5313,523.9688 1333.7344,524.2969 Q1332.6563,524.75 1331.3594,524.75 Q1329.8438,524.75 1328.6406,524.125 Q1327.6563,523.625 1326.9688,522.5625 Q1326.2813,521.4844 1326.2813,520.2031 L1326.2813,519.0469 Q1326.2813,517.7188 1326.8906,516.5781 Q1327.5156,515.4219 1328.6094,514.8125 Q1329.7031,514.1875 1330.9375,514.1875 Q1331.6719,514.1875 1332.3125,514.3594 Q1332.9688,514.5156 1333.5156,514.875 Z " fill="#000000"/><text fill="#000000" font-family="sans-serif" font-size="14" lengthAdjust="spacing" textLength="111" x="1351.25" y="524.7969">MasterRepository</text><rect fill="#FFFFFF" height="17.9609" style="stroke:#181818;stroke-width:1.0;stroke-dasharray:2.0,2.0;" width="9" x="1865" y="500"/><text fill="#000000" font-family="sans-serif" font-size="12" font-style="italic" lengthAdjust="spacing" textLength="7" x="1866" y="513.9492">T</text><line style="stroke:#181818;stroke-width:0.5;" x1="922" x2="1870" y1="535" y2="535"/><polygon fill="none" points="932,544.8105,936,548.8105,932,552.8105,928,548.8105" style="stroke:#B38D22;stroke-width:1.0;"/><text fill="#000000" font-family="sans-serif" font-size="14" lengthAdjust="spacing" textLength="267" x="941" y="554.1074">readRepository: IBaseReadRepository&lt;T&gt;</text><polygon fill="none" points="932,563.4316,936,567.4316,932,571.4316,928,567.4316" style="stroke:#B38D22;stroke-width:1.0;"/><text fill="#000000" font-family="sans-serif" font-size="14" lengthAdjust="spacing" textLength="266" x="941" y="572.7285">writeRepository: IBaseWriteRepository&lt;T&gt;</text><polygon fill="none" points="932,582.0527,936,586.0527,932,590.0527,928,586.0527" style="stroke:#B38D22;stroke-width:1.0;"/><text fill="#000000" font-family="sans-serif" font-size="14" lengthAdjust="spacing" textLength="265" x="941" y="591.3496">customRepository: ICustomRepository&lt;T&gt;</text><line style="stroke:#181818;stroke-width:0.5;" x1="922" x2="1870" y1="598.8633" y2="598.8633"/><ellipse cx="932" cy="613.6738" fill="#84BE84" rx="3" ry="3" style="stroke:#038048;stroke-width:1.0;"/><text fill="#000000" font-family="sans-serif" font-size="14" lengthAdjust="spacing" textLength="924" x="941" y="617.9707">BaseRepository(readRepository: IBaseReadRepository&lt;T&gt;, writeRepository: IBaseWriteRepository&lt;T&gt;, customRepository: ICustomRepository&lt;T&gt;)</text><ellipse cx="932" cy="632.2949" fill="#84BE84" rx="3" ry="3" style="stroke:#038048;stroke-width:1.0;"/><text fill="#000000" font-family="sans-serif" font-size="14" lengthAdjust="spacing" textLength="119" x="941" y="636.5918">add(entity: T): void</text><ellipse cx="932" cy="650.916" fill="#84BE84" rx="3" ry="3" style="stroke:#038048;stroke-width:1.0;"/><text fill="#000000" font-family="sans-serif" font-size="14" lengthAdjust="spacing" textLength="147" x="941" y="655.2129">remove((entity: T): void</text><ellipse cx="932" cy="669.5371" fill="#84BE84" rx="3" ry="3" style="stroke:#038048;stroke-width:1.0;"/><text fill="#000000" font-family="sans-serif" font-size="14" lengthAdjust="spacing" textLength="176" x="941" y="673.834">update(id: long, entity: T): T</text><ellipse cx="932" cy="688.1582" fill="#84BE84" rx="3" ry="3" style="stroke:#038048;stroke-width:1.0;"/><text fill="#000000" font-family="sans-serif" font-size="14" lengthAdjust="spacing" textLength="120" x="941" y="692.4551">getById(id: long): T</text><ellipse cx="932" cy="706.7793" fill="#84BE84" rx="3" ry="3" style="stroke:#038048;stroke-width:1.0;"/><text fill="#000000" font-family="sans-serif" font-size="14" lengthAdjust="spacing" textLength="100" x="941" y="711.0762">getAll(): List&lt;T&gt;</text><ellipse cx="932" cy="725.4004" fill="#84BE84" rx="3" ry="3" style="stroke:#038048;stroke-width:1.0;"/><text fill="#000000" font-family="sans-serif" font-size="14" lengthAdjust="spacing" textLength="359" x="941" y="729.6973">search(filterStrategy: FilterStrategyProvider&lt;T&gt;): List&lt;T&gt;</text></g><!--class InMemoryMasterRepository--><g id="elem_InMemoryMasterRepository"><rect codeLine="70" fill="#F1F1F1" height="85.2422" id="InMemoryMasterRepository" rx="2.5" ry="2.5" style="stroke:#181818;stroke-width:0.5;" width="1022" x="885" y="798"/><ellipse cx="1300.25" cy="814" fill="#ADD1B2" rx="11" ry="11" style="stroke:#181818;stroke-width:1.0;"/><path d="M1303.0156,809.875 Q1303.1719,809.6563 1303.3594,809.5469 Q1303.5469,809.4375 1303.7656,809.4375 Q1304.1406,809.4375 1304.375,809.7031 Q1304.6094,809.9531 1304.6094,810.5625 L1304.6094,812.0156 Q1304.6094,812.625 1304.375,812.8906 Q1304.1406,813.1563 1303.7656,813.1563 Q1303.4219,813.1563 1303.2188,812.9531 Q1303.0156,812.7656 1302.9063,812.25 Q1302.8594,811.8906 1302.6719,811.7031 Q1302.3438,811.3281 1301.7344,811.1094 Q1301.125,810.8906 1300.5,810.8906 Q1299.7344,810.8906 1299.0938,811.2188 Q1298.4688,811.5469 1297.9688,812.2969 Q1297.4844,813.0469 1297.4844,814.0781 L1297.4844,815.1719 Q1297.4844,816.4063 1298.375,817.2344 Q1299.2656,818.0469 1300.8594,818.0469 Q1301.7969,818.0469 1302.4531,817.7969 Q1302.8438,817.6406 1303.2656,817.2031 Q1303.5313,816.9375 1303.6719,816.8594 Q1303.8281,816.7813 1304.0313,816.7813 Q1304.3594,816.7813 1304.6094,817.0469 Q1304.875,817.2969 1304.875,817.6406 Q1304.875,817.9844 1304.5313,818.3906 Q1304.0313,818.9688 1303.2344,819.2969 Q1302.1563,819.75 1300.8594,819.75 Q1299.3438,819.75 1298.1406,819.125 Q1297.1563,818.625 1296.4688,817.5625 Q1295.7813,816.4844 1295.7813,815.2031 L1295.7813,814.0469 Q1295.7813,812.7188 1296.3906,811.5781 Q1297.0156,810.4219 1298.1094,809.8125 Q1299.2031,809.1875 1300.4375,809.1875 Q1301.1719,809.1875 1301.8125,809.3594 Q1302.4688,809.5156 1303.0156,809.875 Z " fill="#000000"/><text fill="#000000" font-family="sans-serif" font-size="14" lengthAdjust="spacing" textLength="172" x="1320.75" y="819.7969">InMemoryMasterRepository</text><rect fill="#FFFFFF" height="17.9609" style="stroke:#181818;stroke-width:1.0;stroke-dasharray:2.0,2.0;" width="9" x="1901" y="795"/><text fill="#000000" font-family="sans-serif" font-size="12" font-style="italic" lengthAdjust="spacing" textLength="7" x="1902" y="808.9492">T</text><line style="stroke:#181818;stroke-width:0.5;" x1="886" x2="1906" y1="830" y2="830"/><polygon fill="none" points="896,839.8105,900,843.8105,896,847.8105,892,843.8105" style="stroke:#B38D22;stroke-width:1.0;"/><text fill="#000000" font-family="sans-serif" font-size="14" lengthAdjust="spacing" textLength="72" x="905" y="849.1074">list: List&lt;T&gt;</text><line style="stroke:#181818;stroke-width:0.5;" x1="886" x2="1906" y1="856.6211" y2="856.6211"/><ellipse cx="896" cy="871.4316" fill="#84BE84" rx="3" ry="3" style="stroke:#038048;stroke-width:1.0;"/><text fill="#000000" font-family="sans-serif" font-size="14" lengthAdjust="spacing" textLength="996" x="905" y="875.7285">InMemoryMasterRepository(readRepository: IBaseReadRepository&lt;T&gt;, writeRepository: IBaseWriteRepository&lt;T&gt;, customRepository: ICustomRepository&lt;T&gt;)</text></g><!--class MasterService--><g id="elem_MasterService"><rect codeLine="74" fill="#F1F1F1" height="196.9688" id="MasterService" rx="2.5" ry="2.5" style="stroke:#181818;stroke-width:0.5;" width="381" x="1205.5" y="227"/><ellipse cx="1341.25" cy="243" fill="#ADD1B2" rx="11" ry="11" style="stroke:#181818;stroke-width:1.0;"/><path d="M1344.0156,238.875 Q1344.1719,238.6563 1344.3594,238.5469 Q1344.5469,238.4375 1344.7656,238.4375 Q1345.1406,238.4375 1345.375,238.7031 Q1345.6094,238.9531 1345.6094,239.5625 L1345.6094,241.0156 Q1345.6094,241.625 1345.375,241.8906 Q1345.1406,242.1563 1344.7656,242.1563 Q1344.4219,242.1563 1344.2188,241.9531 Q1344.0156,241.7656 1343.9063,241.25 Q1343.8594,240.8906 1343.6719,240.7031 Q1343.3438,240.3281 1342.7344,240.1094 Q1342.125,239.8906 1341.5,239.8906 Q1340.7344,239.8906 1340.0938,240.2188 Q1339.4688,240.5469 1338.9688,241.2969 Q1338.4844,242.0469 1338.4844,243.0781 L1338.4844,244.1719 Q1338.4844,245.4063 1339.375,246.2344 Q1340.2656,247.0469 1341.8594,247.0469 Q1342.7969,247.0469 1343.4531,246.7969 Q1343.8438,246.6406 1344.2656,246.2031 Q1344.5313,245.9375 1344.6719,245.8594 Q1344.8281,245.7813 1345.0313,245.7813 Q1345.3594,245.7813 1345.6094,246.0469 Q1345.875,246.2969 1345.875,246.6406 Q1345.875,246.9844 1345.5313,247.3906 Q1345.0313,247.9688 1344.2344,248.2969 Q1343.1563,248.75 1341.8594,248.75 Q1340.3438,248.75 1339.1406,248.125 Q1338.1563,247.625 1337.4688,246.5625 Q1336.7813,245.4844 1336.7813,244.2031 L1336.7813,243.0469 Q1336.7813,241.7188 1337.3906,240.5781 Q1338.0156,239.4219 1339.1094,238.8125 Q1340.2031,238.1875 1341.4375,238.1875 Q1342.1719,238.1875 1342.8125,238.3594 Q1343.4688,238.5156 1344.0156,238.875 Z " fill="#000000"/><text fill="#000000" font-family="sans-serif" font-size="14" lengthAdjust="spacing" textLength="90" x="1361.75" y="248.7969">MasterService</text><rect fill="#FFFFFF" height="17.9609" style="stroke:#181818;stroke-width:1.0;stroke-dasharray:2.0,2.0;" width="9" x="1580.5" y="224"/><text fill="#000000" font-family="sans-serif" font-size="12" font-style="italic" lengthAdjust="spacing" textLength="7" x="1581.5" y="237.9492">T</text><line style="stroke:#181818;stroke-width:0.5;" x1="1206.5" x2="1585.5" y1="259" y2="259"/><polygon fill="none" points="1216.5,268.8105,1220.5,272.8105,1216.5,276.8105,1212.5,272.8105" style="stroke:#B38D22;stroke-width:1.0;"/><text fill="#000000" font-family="sans-serif" font-size="14" lengthAdjust="spacing" textLength="255" x="1225.5" y="278.1074">masterRepository: MasterRepository&lt;T&gt;</text><line style="stroke:#181818;stroke-width:0.5;" x1="1206.5" x2="1585.5" y1="285.6211" y2="285.6211"/><ellipse cx="1216.5" cy="300.4316" fill="#84BE84" rx="3" ry="3" style="stroke:#038048;stroke-width:1.0;"/><text fill="#000000" font-family="sans-serif" font-size="14" lengthAdjust="spacing" textLength="330" x="1225.5" y="304.7285">MasterService(masterRepository: MasterRepository)</text><ellipse cx="1216.5" cy="319.0527" fill="#84BE84" rx="3" ry="3" style="stroke:#038048;stroke-width:1.0;"/><text fill="#000000" font-family="sans-serif" font-size="14" lengthAdjust="spacing" textLength="119" x="1225.5" y="323.3496">add(entity: T): void</text><ellipse cx="1216.5" cy="337.6738" fill="#84BE84" rx="3" ry="3" style="stroke:#038048;stroke-width:1.0;"/><text fill="#000000" font-family="sans-serif" font-size="14" lengthAdjust="spacing" textLength="142" x="1225.5" y="341.9707">remove(entity: T): void</text><ellipse cx="1216.5" cy="356.2949" fill="#84BE84" rx="3" ry="3" style="stroke:#038048;stroke-width:1.0;"/><text fill="#000000" font-family="sans-serif" font-size="14" lengthAdjust="spacing" textLength="176" x="1225.5" y="360.5918">update(id: long, entity: T): T</text><ellipse cx="1216.5" cy="374.916" fill="#84BE84" rx="3" ry="3" style="stroke:#038048;stroke-width:1.0;"/><text fill="#000000" font-family="sans-serif" font-size="14" lengthAdjust="spacing" textLength="120" x="1225.5" y="379.2129">getById(id: long): T</text><ellipse cx="1216.5" cy="393.5371" fill="#84BE84" rx="3" ry="3" style="stroke:#038048;stroke-width:1.0;"/><text fill="#000000" font-family="sans-serif" font-size="14" lengthAdjust="spacing" textLength="100" x="1225.5" y="397.834">getAll(): List&lt;T&gt;</text><ellipse cx="1216.5" cy="412.1582" fill="#84BE84" rx="3" ry="3" style="stroke:#038048;stroke-width:1.0;"/><text fill="#000000" font-family="sans-serif" font-size="14" lengthAdjust="spacing" textLength="355" x="1225.5" y="416.4551">search(filterStrategy:FilterStrategyProvider&lt;T&gt;): List&lt;T&gt;</text></g><!--class UserApi--><g id="elem_UserApi"><rect codeLine="85" fill="#F1F1F1" height="85.2422" id="UserApi" rx="2.5" ry="2.5" style="stroke:#181818;stroke-width:0.5;" width="288" x="1252" y="35"/><ellipse cx="1367.25" cy="51" fill="#ADD1B2" rx="11" ry="11" style="stroke:#181818;stroke-width:1.0;"/><path d="M1370.0156,46.875 Q1370.1719,46.6563 1370.3594,46.5469 Q1370.5469,46.4375 1370.7656,46.4375 Q1371.1406,46.4375 1371.375,46.7031 Q1371.6094,46.9531 1371.6094,47.5625 L1371.6094,49.0156 Q1371.6094,49.625 1371.375,49.8906 Q1371.1406,50.1563 1370.7656,50.1563 Q1370.4219,50.1563 1370.2188,49.9531 Q1370.0156,49.7656 1369.9063,49.25 Q1369.8594,48.8906 1369.6719,48.7031 Q1369.3438,48.3281 1368.7344,48.1094 Q1368.125,47.8906 1367.5,47.8906 Q1366.7344,47.8906 1366.0938,48.2188 Q1365.4688,48.5469 1364.9688,49.2969 Q1364.4844,50.0469 1364.4844,51.0781 L1364.4844,52.1719 Q1364.4844,53.4063 1365.375,54.2344 Q1366.2656,55.0469 1367.8594,55.0469 Q1368.7969,55.0469 1369.4531,54.7969 Q1369.8438,54.6406 1370.2656,54.2031 Q1370.5313,53.9375 1370.6719,53.8594 Q1370.8281,53.7813 1371.0313,53.7813 Q1371.3594,53.7813 1371.6094,54.0469 Q1371.875,54.2969 1371.875,54.6406 Q1371.875,54.9844 1371.5313,55.3906 Q1371.0313,55.9688 1370.2344,56.2969 Q1369.1563,56.75 1367.8594,56.75 Q1366.3438,56.75 1365.1406,56.125 Q1364.1563,55.625 1363.4688,54.5625 Q1362.7813,53.4844 1362.7813,52.2031 L1362.7813,51.0469 Q1362.7813,49.7188 1363.3906,48.5781 Q1364.0156,47.4219 1365.1094,46.8125 Q1366.2031,46.1875 1367.4375,46.1875 Q1368.1719,46.1875 1368.8125,46.3594 Q1369.4688,46.5156 1370.0156,46.875 Z " fill="#000000"/><text fill="#000000" font-family="sans-serif" font-size="14" lengthAdjust="spacing" textLength="49" x="1387.75" y="56.7969">UserApi</text><line style="stroke:#181818;stroke-width:0.5;" x1="1253" x2="1539" y1="67" y2="67"/><polygon fill="none" points="1263,76.8105,1267,80.8105,1263,84.8105,1259,80.8105" style="stroke:#B38D22;stroke-width:1.0;"/><text fill="#000000" font-family="sans-serif" font-size="14" lengthAdjust="spacing" textLength="262" x="1272" y="86.1074">masterUserService: MasterService&lt;User&gt;</text><line style="stroke:#181818;stroke-width:0.5;" x1="1253" x2="1539" y1="93.6211" y2="93.6211"/><ellipse cx="1263" cy="108.4316" fill="#84BE84" rx="3" ry="3" style="stroke:#038048;stroke-width:1.0;"/><text fill="#000000" font-family="sans-serif" font-size="14" lengthAdjust="spacing" textLength="59" x="1272" y="112.7285">UserApi()</text></g><!--class User--><g id="elem_User"><rect codeLine="89" fill="#F1F1F1" height="141.1055" id="User" rx="2.5" ry="2.5" style="stroke:#181818;stroke-width:0.5;" width="199" x="1575.5" y="7"/><ellipse cx="1656.25" cy="23" fill="#ADD1B2" rx="11" ry="11" style="stroke:#181818;stroke-width:1.0;"/><path d="M1659.0156,18.875 Q1659.1719,18.6563 1659.3594,18.5469 Q1659.5469,18.4375 1659.7656,18.4375 Q1660.1406,18.4375 1660.375,18.7031 Q1660.6094,18.9531 1660.6094,19.5625 L1660.6094,21.0156 Q1660.6094,21.625 1660.375,21.8906 Q1660.1406,22.1563 1659.7656,22.1563 Q1659.4219,22.1563 1659.2188,21.9531 Q1659.0156,21.7656 1658.9063,21.25 Q1658.8594,20.8906 1658.6719,20.7031 Q1658.3438,20.3281 1657.7344,20.1094 Q1657.125,19.8906 1656.5,19.8906 Q1655.7344,19.8906 1655.0938,20.2188 Q1654.4688,20.5469 1653.9688,21.2969 Q1653.4844,22.0469 1653.4844,23.0781 L1653.4844,24.1719 Q1653.4844,25.4063 1654.375,26.2344 Q1655.2656,27.0469 1656.8594,27.0469 Q1657.7969,27.0469 1658.4531,26.7969 Q1658.8438,26.6406 1659.2656,26.2031 Q1659.5313,25.9375 1659.6719,25.8594 Q1659.8281,25.7813 1660.0313,25.7813 Q1660.3594,25.7813 1660.6094,26.0469 Q1660.875,26.2969 1660.875,26.6406 Q1660.875,26.9844 1660.5313,27.3906 Q1660.0313,27.9688 1659.2344,28.2969 Q1658.1563,28.75 1656.8594,28.75 Q1655.3438,28.75 1654.1406,28.125 Q1653.1563,27.625 1652.4688,26.5625 Q1651.7813,25.4844 1651.7813,24.2031 L1651.7813,23.0469 Q1651.7813,21.7188 1652.3906,20.5781 Q1653.0156,19.4219 1654.1094,18.8125 Q1655.2031,18.1875 1656.4375,18.1875 Q1657.1719,18.1875 1657.8125,18.3594 Q1658.4688,18.5156 1659.0156,18.875 Z " fill="#000000"/><text fill="#000000" font-family="sans-serif" font-size="14" lengthAdjust="spacing" textLength="29" x="1676.75" y="28.7969">User</text><line style="stroke:#181818;stroke-width:0.5;" x1="1576.5" x2="1773.5" y1="39" y2="39"/><rect fill="none" height="6" style="stroke:#C82930;stroke-width:1.0;" width="6" x="1583.5" y="50.8105"/><text fill="#000000" font-family="sans-serif" font-size="14" lengthAdjust="spacing" textLength="46" x="1595.5" y="58.1074">id: long</text><rect fill="none" height="6" style="stroke:#C82930;stroke-width:1.0;" width="6" x="1583.5" y="69.4316"/><text fill="#000000" font-family="sans-serif" font-size="14" lengthAdjust="spacing" textLength="80" x="1595.5" y="76.7285">name: String</text><line style="stroke:#181818;stroke-width:0.5;" x1="1576.5" x2="1773.5" y1="84.2422" y2="84.2422"/><ellipse cx="1586.5" cy="99.0527" fill="#84BE84" rx="3" ry="3" style="stroke:#038048;stroke-width:1.0;"/><text fill="#000000" font-family="sans-serif" font-size="14" lengthAdjust="spacing" textLength="173" x="1595.5" y="103.3496">User(id: long, name: String)</text><ellipse cx="1586.5" cy="117.6738" fill="#84BE84" rx="3" ry="3" style="stroke:#038048;stroke-width:1.0;"/><text fill="#000000" font-family="sans-serif" font-size="14" lengthAdjust="spacing" textLength="76" x="1595.5" y="121.9707">getId(): long</text><ellipse cx="1586.5" cy="136.2949" fill="#84BE84" rx="3" ry="3" style="stroke:#038048;stroke-width:1.0;"/><text fill="#000000" font-family="sans-serif" font-size="14" lengthAdjust="spacing" textLength="111" x="1595.5" y="140.5918">getName(): String</text></g><!--reverse link IReadDao to ReadDao--><g id="link_IReadDao_ReadDao"><path d="M80,140.5 C80,185.08 80,243.96 80,282.98 " fill="none" id="IReadDao-backto-ReadDao" style="stroke:#181818;stroke-width:1.0;stroke-dasharray:7.0,7.0;"/><polygon fill="none" points="73,140.23,80,120.23,87,140.23,73,140.23" style="stroke:#181818;stroke-width:1.0;"/></g><!--reverse link IWriteDao to WriteDao--><g id="link_IWriteDao_WriteDao"><path d="M289,149.82 C289,189.33 289,237.54 289,273.3 " fill="none" id="IWriteDao-backto-WriteDao" style="stroke:#181818;stroke-width:1.0;stroke-dasharray:7.0,7.0;"/><polygon fill="none" points="282,149.77,289,129.77,296,149.77,282,149.77" style="stroke:#181818;stroke-width:1.0;"/></g><!--reverse link ICustomDao to CustomDao--><g id="link_ICustomDao_CustomDao"><path d="M616,131.48 C616,180.15 616,250.74 616,291.7 " fill="none" id="ICustomDao-backto-CustomDao" style="stroke:#181818;stroke-width:1.0;stroke-dasharray:7.0,7.0;"/><polygon fill="none" points="609,131.17,616,111.17,623,131.17,609,131.17" style="stroke:#181818;stroke-width:1.0;"/></g><!--reverse link IBaseReadRepository to BaseReadRepository--><g id="link_IBaseReadRepository_BaseReadRepository"><path d="M887.05,384.93 C852.58,435.33 803.01,507.83 768.19,558.76 " fill="none" id="IBaseReadRepository-backto-BaseReadRepository" style="stroke:#181818;stroke-width:1.0;stroke-dasharray:7.0,7.0;"/><polygon fill="none" points="881.49,380.66,898.56,368.1,893.05,388.56,881.49,380.66" style="stroke:#181818;stroke-width:1.0;"/></g><!--reverse link IBaseWriteRepository to BaseWriteRepository--><g id="link_IBaseWriteRepository_BaseWriteRepository"><path d="M1943.23,395.42 C1968.29,441.82 2001.23,502.8 2026.38,549.35 " fill="none" id="IBaseWriteRepository-backto-BaseWriteRepository" style="stroke:#181818;stroke-width:1.0;stroke-dasharray:7.0,7.0;"/><polygon fill="none" points="1937.05,398.71,1933.7,377.78,1949.37,392.05,1937.05,398.71" style="stroke:#181818;stroke-width:1.0;"/></g><!--reverse link ICustomRepository to BaseCustomRepository--><g id="link_ICustomRepository_BaseCustomRepository"><path d="M2361.05,378.09 C2381.97,434.75 2415.16,524.64 2434.53,577.11 " fill="none" id="ICustomRepository-backto-BaseCustomRepository" style="stroke:#181818;stroke-width:1.0;stroke-dasharray:7.0,7.0;"/><polygon fill="none" points="2354.44,380.39,2354.07,359.2,2367.57,375.54,2354.44,380.39" style="stroke:#181818;stroke-width:1.0;"/></g><!--reverse link IBaseReadRepository to MasterRepository--><g id="link_IBaseReadRepository_MasterRepository"><path d="M1010.95,378.85 C1066.26,413.35 1140.95,459.93 1209.82,502.88 " fill="none" id="IBaseReadRepository-backto-MasterRepository" style="stroke:#181818;stroke-width:1.0;stroke-dasharray:7.0,7.0;"/><polygon fill="none" points="1006.96,384.62,993.7,368.1,1014.37,372.74,1006.96,384.62" style="stroke:#181818;stroke-width:1.0;"/></g><!--reverse link IBaseWriteRepository to MasterRepository--><g id="link_IBaseWriteRepository_MasterRepository"><path d="M1799.33,387.68 C1741.11,421.07 1667.06,463.54 1598.35,502.95 " fill="none" id="IBaseWriteRepository-backto-MasterRepository" style="stroke:#181818;stroke-width:1.0;stroke-dasharray:7.0,7.0;"/><polygon fill="none" points="1796.04,381.49,1816.87,377.62,1803.01,393.64,1796.04,381.49" style="stroke:#181818;stroke-width:1.0;"/></g><!--reverse link ICustomRepository to MasterRepository--><g id="link_ICustomRepository_MasterRepository"><path d="M2217.23,365.08 C2103.57,400.22 1929.76,453.96 1771.26,502.97 " fill="none" id="ICustomRepository-backto-MasterRepository" style="stroke:#181818;stroke-width:1.0;stroke-dasharray:7.0,7.0;"/><polygon fill="none" points="2215.52,358.28,2236.69,359.06,2219.65,371.66,2215.52,358.28" style="stroke:#181818;stroke-width:1.0;"/></g><!--reverse link MasterRepository to InMemoryMasterRepository--><g id="link_MasterRepository_InMemoryMasterRepository"><path d="M1396,757.33 C1396,771.8 1396,785.59 1396,797.6 " fill="none" id="MasterRepository-backto-InMemoryMasterRepository" style="stroke:#181818;stroke-width:1.0;"/><polygon fill="none" points="1389,757.29,1396,737.29,1403,757.29,1389,757.29" style="stroke:#181818;stroke-width:1.0;"/></g><!--reverse link UserApi to MasterService--><g id="link_UserApi_MasterService"><path codeLine="97" d="M1396,133.54 C1396,161 1396,195.04 1396,226.75 " fill="none" id="UserApi-backto-MasterService" style="stroke:#181818;stroke-width:1.0;"/><polygon fill="#181818" points="1396,120.23,1392,126.23,1396,132.23,1400,126.23,1396,120.23" style="stroke:#181818;stroke-width:1.0;"/><text fill="#000000" font-family="sans-serif" font-size="13" lengthAdjust="spacing" textLength="92" x="1397" y="193.0283">has one_to_one</text><text fill="#000000" font-family="sans-serif" font-size="13" lengthAdjust="spacing" textLength="22" x="1373.1578" y="215.5793">1..1</text></g><!--reverse link MasterService to MasterRepository--><g id="link_MasterService_MasterRepository"><path codeLine="98" d="M1396,437.45 C1396,458.82 1396,481.25 1396,502.78 " fill="none" id="MasterService-backto-MasterRepository" style="stroke:#181818;stroke-width:1.0;"/><polygon fill="none" points="1396,424.3,1392,430.3,1396,436.3,1400,430.3,1396,424.3" style="stroke:#181818;stroke-width:1.0;"/><text fill="#000000" font-family="sans-serif" font-size="13" lengthAdjust="spacing" textLength="92" x="1397" y="469.0283">has one_to_one</text><text fill="#000000" font-family="sans-serif" font-size="13" lengthAdjust="spacing" textLength="7" x="1388.7539" y="445.8842">1</text><text fill="#000000" font-family="sans-serif" font-size="13" lengthAdjust="spacing" textLength="7" x="1388.7758" y="491.7569">1</text></g><!--SRC=[pLRVQzim47xtNt6a3t4sjz1NCmPjnrXX7QFjw6FHx4kg8Kj6KfA5qVzz9rl-eTXPGblQXK1YwUwxx-w-ayobHJrd6SBbDRBy4rCVRZ_-YO0-xs61zdnpcSSyJq4ekPYbSDjjdGaHqyfNRYpvH8yHxx3kDBSOWh4yZr5QRZT0CEIuKZptUneBjKA_FTXTbZcpsB98e6zt6mQ-M1ghYZ2oGQQpXtZE1PdTM4rWYqtwENZyhjMAvwZ9RLTEvyoWgz4rbifmg_G6dbye1reLgqDzYu9rqL-eRfbWna0dAU15AR0W8gPLsXEhLqFt51PWD-klKCMQI5zn0PDsu-NgEPJWTj2XHHtzY9AjYfxsck9v3NtY4UFPSxer8lCnvgEJS0HhtzEq_HUIttABE_kUIcQl9GZ7Q6IgHhGnp3HhD9DsklgdUk0m-KJJ6zGhJWE_vaAuHb6kfiJCyXM2tPG8FzLIvfXxDJJ4ekaLCnIWT-WzC0ECG9n6aghKIKsRLbeZBdyvS2M1lWkKg7bMnvah3IPZ0gFf5qR1ZIee-98BeWqbinHC0jEE3GnYM-L2gpKXAC9ISr2bYyB4UF3r0nS86L5rZxv1swZxPoWPbMUokuywS4_7C1i9UtaFh8VZ4cWai1-HMp3RmLplvvKSJ2avaCrm-7RDtXE7xmbdqmkCLQsdItb5tFLcJ5VuswBCXvfhX288QvlIBhmtxDvZC3h-B6bV5OwWsAAQZWsPJo_0YFTx7gwT_q8wXobdUg6AAi7gY9p33zEMX8ulo9GqLYypojzNtXcSbHp2YlVSqgtckAs6gNUEkqQwbHhg69gK_QDa1O5H0jmlrVwz-lKjUgy5LBrP3wbQ-qQcRjN3qKtK9FBk-1WcfoSdfvEGEDtAxePH4k-jkgUVADoUa8EgV2V3-s7W6_q5]--></g></svg>