<?xml version="1.0" encoding="us-ascii" standalone="no"?><svg xmlns="http://www.w3.org/2000/svg" xmlns:xlink="http://www.w3.org/1999/xlink" contentStyleType="text/css" height="685px" preserveAspectRatio="none" style="width:534px;height:685px;background:#FFFFFF;" version="1.1" viewBox="0 0 534 685" width="534px" zoomAndPan="magnify"><defs/><g><!--class Subject--><g id="elem_Subject"><rect codeLine="1" fill="#F1F1F1" height="122.4844" id="Subject" rx="2.5" ry="2.5" style="stroke:#181818;stroke-width:0.5;" width="281" x="7" y="7"/><ellipse cx="119.75" cy="23" fill="#B4A7E5" rx="11" ry="11" style="stroke:#181818;stroke-width:1.0;"/><path d="M120.7031,19.6406 L120.7031,26.2969 L122.4219,26.2969 Q123.0313,26.2969 123.2969,26.5313 Q123.5625,26.7656 123.5625,27.1563 Q123.5625,27.5313 123.2969,27.7656 Q123.0313,28 122.4219,28 L117.2813,28 Q116.6719,28 116.4063,27.7656 Q116.1406,27.5313 116.1406,27.1406 Q116.1406,26.7656 116.4063,26.5313 Q116.6719,26.2969 117.2813,26.2969 L119,26.2969 L119,19.6406 L117.2813,19.6406 Q116.6719,19.6406 116.4063,19.4063 Q116.1406,19.1719 116.1406,18.7813 Q116.1406,18.4063 116.4063,18.1719 Q116.6719,17.9375 117.2813,17.9375 L122.4219,17.9375 Q123.0313,17.9375 123.2969,18.1719 Q123.5625,18.4063 123.5625,18.7813 Q123.5625,19.1719 123.2969,19.4063 Q123.0313,19.6406 122.4219,19.6406 L120.7031,19.6406 Z " fill="#000000"/><text fill="#000000" font-family="sans-serif" font-size="14" font-style="italic" lengthAdjust="spacing" textLength="47" x="140.25" y="28.7969">Subject</text><line style="stroke:#181818;stroke-width:0.5;" x1="8" x2="287" y1="39" y2="39"/><line style="stroke:#181818;stroke-width:0.5;" x1="8" x2="287" y1="47" y2="47"/><text fill="#000000" font-family="sans-serif" font-size="14" lengthAdjust="spacing" textLength="246" x="13" y="66.1074">addObserver(Observer observer): void</text><text fill="#000000" font-family="sans-serif" font-size="14" lengthAdjust="spacing" textLength="269" x="13" y="84.7285">removeObserver(Observer observer): void</text><text fill="#000000" font-family="sans-serif" font-size="14" lengthAdjust="spacing" textLength="137" x="13" y="103.3496">notifyObserver(): void</text><text fill="#000000" font-family="sans-serif" font-size="14" lengthAdjust="spacing" textLength="149" x="13" y="121.9707">setState(Object o): void</text></g><!--class Observer--><g id="elem_Observer"><rect codeLine="7" fill="#F1F1F1" height="66.6211" id="Observer" rx="2.5" ry="2.5" style="stroke:#181818;stroke-width:0.5;" width="153" x="80" y="447"/><ellipse cx="123.35" cy="463" fill="#B4A7E5" rx="11" ry="11" style="stroke:#181818;stroke-width:1.0;"/><path d="M124.3031,459.6406 L124.3031,466.2969 L126.0219,466.2969 Q126.6313,466.2969 126.8969,466.5313 Q127.1625,466.7656 127.1625,467.1563 Q127.1625,467.5313 126.8969,467.7656 Q126.6313,468 126.0219,468 L120.8813,468 Q120.2719,468 120.0063,467.7656 Q119.7406,467.5313 119.7406,467.1406 Q119.7406,466.7656 120.0063,466.5313 Q120.2719,466.2969 120.8813,466.2969 L122.6,466.2969 L122.6,459.6406 L120.8813,459.6406 Q120.2719,459.6406 120.0063,459.4063 Q119.7406,459.1719 119.7406,458.7813 Q119.7406,458.4063 120.0063,458.1719 Q120.2719,457.9375 120.8813,457.9375 L126.0219,457.9375 Q126.6313,457.9375 126.8969,458.1719 Q127.1625,458.4063 127.1625,458.7813 Q127.1625,459.1719 126.8969,459.4063 Q126.6313,459.6406 126.0219,459.6406 L124.3031,459.6406 Z " fill="#000000"/><text fill="#000000" font-family="sans-serif" font-size="14" font-style="italic" lengthAdjust="spacing" textLength="58" x="143.65" y="468.7969">Observer</text><line style="stroke:#181818;stroke-width:0.5;" x1="81" x2="232" y1="479" y2="479"/><line style="stroke:#181818;stroke-width:0.5;" x1="81" x2="232" y1="487" y2="487"/><text fill="#000000" font-family="sans-serif" font-size="14" lengthAdjust="spacing" textLength="141" x="86" y="506.1074">update(Object o): void</text></g><!--class SubjectImpl--><g id="elem_SubjectImpl"><rect codeLine="10" fill="#F1F1F1" height="178.3477" id="SubjectImpl" rx="2.5" ry="2.5" style="stroke:#181818;stroke-width:0.5;" width="295" x="232" y="190"/><ellipse cx="339.25" cy="206" fill="#ADD1B2" rx="11" ry="11" style="stroke:#181818;stroke-width:1.0;"/><path d="M342.0156,201.875 Q342.1719,201.6563 342.3594,201.5469 Q342.5469,201.4375 342.7656,201.4375 Q343.1406,201.4375 343.375,201.7031 Q343.6094,201.9531 343.6094,202.5625 L343.6094,204.0156 Q343.6094,204.625 343.375,204.8906 Q343.1406,205.1563 342.7656,205.1563 Q342.4219,205.1563 342.2188,204.9531 Q342.0156,204.7656 341.9063,204.25 Q341.8594,203.8906 341.6719,203.7031 Q341.3438,203.3281 340.7344,203.1094 Q340.125,202.8906 339.5,202.8906 Q338.7344,202.8906 338.0938,203.2188 Q337.4688,203.5469 336.9688,204.2969 Q336.4844,205.0469 336.4844,206.0781 L336.4844,207.1719 Q336.4844,208.4063 337.375,209.2344 Q338.2656,210.0469 339.8594,210.0469 Q340.7969,210.0469 341.4531,209.7969 Q341.8438,209.6406 342.2656,209.2031 Q342.5313,208.9375 342.6719,208.8594 Q342.8281,208.7813 343.0313,208.7813 Q343.3594,208.7813 343.6094,209.0469 Q343.875,209.2969 343.875,209.6406 Q343.875,209.9844 343.5313,210.3906 Q343.0313,210.9688 342.2344,211.2969 Q341.1563,211.75 339.8594,211.75 Q338.3438,211.75 337.1406,211.125 Q336.1563,210.625 335.4688,209.5625 Q334.7813,208.4844 334.7813,207.2031 L334.7813,206.0469 Q334.7813,204.7188 335.3906,203.5781 Q336.0156,202.4219 337.1094,201.8125 Q338.2031,201.1875 339.4375,201.1875 Q340.1719,201.1875 340.8125,201.3594 Q341.4688,201.5156 342.0156,201.875 Z " fill="#000000"/><text fill="#000000" font-family="sans-serif" font-size="14" lengthAdjust="spacing" textLength="72" x="359.75" y="211.7969">SubjectImpl</text><line style="stroke:#181818;stroke-width:0.5;" x1="233" x2="526" y1="222" y2="222"/><rect fill="none" height="6" style="stroke:#C82930;stroke-width:1.0;" width="6" x="240" y="233.8105"/><text fill="#000000" font-family="sans-serif" font-size="14" lengthAdjust="spacing" textLength="80" x="252" y="241.1074">state: Object</text><rect fill="none" height="6" style="stroke:#C82930;stroke-width:1.0;" width="6" x="240" y="252.4316"/><text fill="#000000" font-family="sans-serif" font-size="14" lengthAdjust="spacing" textLength="160" x="252" y="259.7285">observer: Set&lt;Observer&gt;</text><line style="stroke:#181818;stroke-width:0.5;" x1="233" x2="526" y1="267.2422" y2="267.2422"/><ellipse cx="243" cy="282.0527" fill="#84BE84" rx="3" ry="3" style="stroke:#038048;stroke-width:1.0;"/><text fill="#000000" font-family="sans-serif" font-size="14" lengthAdjust="spacing" textLength="82" x="252" y="286.3496">SubjectImpl()</text><ellipse cx="243" cy="300.6738" fill="#84BE84" rx="3" ry="3" style="stroke:#038048;stroke-width:1.0;"/><text fill="#000000" font-family="sans-serif" font-size="14" lengthAdjust="spacing" textLength="246" x="252" y="304.9707">addObserver(Observer observer): void</text><ellipse cx="243" cy="319.2949" fill="#84BE84" rx="3" ry="3" style="stroke:#038048;stroke-width:1.0;"/><text fill="#000000" font-family="sans-serif" font-size="14" lengthAdjust="spacing" textLength="269" x="252" y="323.5918">removeObserver(Observer observer): void</text><ellipse cx="243" cy="337.916" fill="#84BE84" rx="3" ry="3" style="stroke:#038048;stroke-width:1.0;"/><text fill="#000000" font-family="sans-serif" font-size="14" lengthAdjust="spacing" textLength="137" x="252" y="342.2129">notifyObserver(): void</text><ellipse cx="243" cy="356.5371" fill="#84BE84" rx="3" ry="3" style="stroke:#038048;stroke-width:1.0;"/><text fill="#000000" font-family="sans-serif" font-size="14" lengthAdjust="spacing" textLength="149" x="252" y="360.834">setState(Object o): void</text></g><!--class ObserverImpl--><g id="elem_ObserverImpl"><rect codeLine="19" fill="#F1F1F1" height="103.8633" id="ObserverImpl" rx="2.5" ry="2.5" style="stroke:#181818;stroke-width:0.5;" width="257" x="28" y="575"/><ellipse cx="110.25" cy="591" fill="#ADD1B2" rx="11" ry="11" style="stroke:#181818;stroke-width:1.0;"/><path d="M113.0156,586.875 Q113.1719,586.6563 113.3594,586.5469 Q113.5469,586.4375 113.7656,586.4375 Q114.1406,586.4375 114.375,586.7031 Q114.6094,586.9531 114.6094,587.5625 L114.6094,589.0156 Q114.6094,589.625 114.375,589.8906 Q114.1406,590.1563 113.7656,590.1563 Q113.4219,590.1563 113.2188,589.9531 Q113.0156,589.7656 112.9063,589.25 Q112.8594,588.8906 112.6719,588.7031 Q112.3438,588.3281 111.7344,588.1094 Q111.125,587.8906 110.5,587.8906 Q109.7344,587.8906 109.0938,588.2188 Q108.4688,588.5469 107.9688,589.2969 Q107.4844,590.0469 107.4844,591.0781 L107.4844,592.1719 Q107.4844,593.4063 108.375,594.2344 Q109.2656,595.0469 110.8594,595.0469 Q111.7969,595.0469 112.4531,594.7969 Q112.8438,594.6406 113.2656,594.2031 Q113.5313,593.9375 113.6719,593.8594 Q113.8281,593.7813 114.0313,593.7813 Q114.3594,593.7813 114.6094,594.0469 Q114.875,594.2969 114.875,594.6406 Q114.875,594.9844 114.5313,595.3906 Q114.0313,595.9688 113.2344,596.2969 Q112.1563,596.75 110.8594,596.75 Q109.3438,596.75 108.1406,596.125 Q107.1563,595.625 106.4688,594.5625 Q105.7813,593.4844 105.7813,592.2031 L105.7813,591.0469 Q105.7813,589.7188 106.3906,588.5781 Q107.0156,587.4219 108.1094,586.8125 Q109.2031,586.1875 110.4375,586.1875 Q111.1719,586.1875 111.8125,586.3594 Q112.4688,586.5156 113.0156,586.875 Z " fill="#000000"/><text fill="#000000" font-family="sans-serif" font-size="14" lengthAdjust="spacing" textLength="84" x="130.75" y="596.7969">ObserverImpl</text><line style="stroke:#181818;stroke-width:0.5;" x1="29" x2="284" y1="607" y2="607"/><rect fill="none" height="6" style="stroke:#C82930;stroke-width:1.0;" width="6" x="36" y="618.8105"/><text fill="#000000" font-family="sans-serif" font-size="14" lengthAdjust="spacing" textLength="137" x="48" y="626.1074">observerName: String</text><line style="stroke:#181818;stroke-width:0.5;" x1="29" x2="284" y1="633.6211" y2="633.6211"/><ellipse cx="39" cy="648.4316" fill="#84BE84" rx="3" ry="3" style="stroke:#038048;stroke-width:1.0;"/><text fill="#000000" font-family="sans-serif" font-size="14" lengthAdjust="spacing" textLength="231" x="48" y="652.7285">ObserverImpl(observerName: String)</text><ellipse cx="39" cy="667.0527" fill="#84BE84" rx="3" ry="3" style="stroke:#038048;stroke-width:1.0;"/><text fill="#000000" font-family="sans-serif" font-size="14" lengthAdjust="spacing" textLength="107" x="48" y="671.3496">update(Object o)</text></g><!--reverse link Subject to SubjectImpl--><g id="link_Subject_SubjectImpl"><path d="M229.2,142.6 C246.17,157.88 264.2,174.13 281.68,189.88 " fill="none" id="Subject-backto-SubjectImpl" style="stroke:#181818;stroke-width:1.0;stroke-dasharray:7.0,7.0;"/><polygon fill="none" points="224.47,147.76,214.29,129.17,233.84,137.36,224.47,147.76" style="stroke:#181818;stroke-width:1.0;"/></g><!--reverse link Observer to ObserverImpl--><g id="link_Observer_ObserverImpl"><path d="M156.5,534.59 C156.5,547.76 156.5,561.84 156.5,574.91 " fill="none" id="Observer-backto-ObserverImpl" style="stroke:#181818;stroke-width:1.0;stroke-dasharray:7.0,7.0;"/><polygon fill="none" points="149.5,534.29,156.5,514.29,163.5,534.29,149.5,534.29" style="stroke:#181818;stroke-width:1.0;"/></g><!--reverse link Subject to Observer--><g id="link_Subject_Observer"><path codeLine="25" d="M144.73,142.42 C142.99,202.98 141.72,291.12 145.5,368 C146.81,394.62 149.87,424.68 152.43,446.87 " fill="none" id="Subject-backto-Observer" style="stroke:#181818;stroke-width:1.0;"/><polygon fill="none" points="145.13,129.18,140.9472,135.054,144.7605,141.1743,148.9434,135.3003,145.13,129.18" style="stroke:#181818;stroke-width:1.0;"/><text fill="#000000" font-family="sans-serif" font-size="13" lengthAdjust="spacing" textLength="67" x="146.5" y="284.5283">aggregation</text><text fill="#000000" font-family="sans-serif" font-size="13" lengthAdjust="spacing" textLength="22" x="127.4631" y="435.6699">1..1</text></g><!--reverse link SubjectImpl to Observer--><g id="link_SubjectImpl_Observer"><path codeLine="26" d="M271.11,376.97 C242.98,402.14 214.58,427.54 193.09,446.77 " fill="none" id="SubjectImpl-backto-Observer" style="stroke:#181818;stroke-width:1.0;"/><polygon fill="none" points="281.04,368.08,273.9008,369.0961,272.093,376.0769,279.2321,375.0608,281.04,368.08" style="stroke:#181818;stroke-width:1.0;"/><text fill="#000000" font-family="sans-serif" font-size="13" lengthAdjust="spacing" textLength="67" x="242.5" y="413.0283">aggregation</text><text fill="#000000" font-family="sans-serif" font-size="13" lengthAdjust="spacing" textLength="20" x="178.1587" y="435.8121">1..*</text></g><!--SRC=[bP71ReCm38RlF8NLo-WGbNf5q-wxRD9uWW1_MIf8KE9ILTFUlIaab5PjrUKGHVPl-_SNgHXc8qfGlYksAFat8dT4LNqL5gQ7YSE3j7yiC-grh0QXGQjxFATLckNcC6ddAGlEMJ1SWvC9qY7v5yd9OQWSBUwwwdP1sGXhmpeVRTUGT1TQABQNMwPaJqCp6fluMB2UKGv-2qFVXsmoxnilVUnfMic_U2MFY2MFc8q8GjqrWqkEvuK_HUjOv6oaglsCUOlubYuWkFuDP-Bb6urWgPNzaHqLu3sWQB066tcEfDEK5klLQhsOXb56eguDwg4wclzaKB_UKny1]--></g></svg>