<?xml version="1.0" encoding="us-ascii" standalone="no"?><svg xmlns="http://www.w3.org/2000/svg" xmlns:xlink="http://www.w3.org/1999/xlink" contentStyleType="text/css" height="1587px" preserveAspectRatio="none" style="width:1441px;height:1587px;background:#FFFFFF;" version="1.1" viewBox="0 0 1441 1587" width="1441px" zoomAndPan="magnify"><defs/><g><!--class Building--><g id="elem_Building"><rect codeLine="1" fill="#F1F1F1" height="103.8633" id="Building" rx="2.5" ry="2.5" style="stroke:#181818;stroke-width:0.5;" width="175" x="1035" y="859.5"/><ellipse cx="1093.25" cy="875.5" fill="#ADD1B2" rx="11" ry="11" style="stroke:#181818;stroke-width:1.0;"/><path d="M1096.0156,871.375 Q1096.1719,871.1563 1096.3594,871.0469 Q1096.5469,870.9375 1096.7656,870.9375 Q1097.1406,870.9375 1097.375,871.2031 Q1097.6094,871.4531 1097.6094,872.0625 L1097.6094,873.5156 Q1097.6094,874.125 1097.375,874.3906 Q1097.1406,874.6563 1096.7656,874.6563 Q1096.4219,874.6563 1096.2188,874.4531 Q1096.0156,874.2656 1095.9063,873.75 Q1095.8594,873.3906 1095.6719,873.2031 Q1095.3438,872.8281 1094.7344,872.6094 Q1094.125,872.3906 1093.5,872.3906 Q1092.7344,872.3906 1092.0938,872.7188 Q1091.4688,873.0469 1090.9688,873.7969 Q1090.4844,874.5469 1090.4844,875.5781 L1090.4844,876.6719 Q1090.4844,877.9063 1091.375,878.7344 Q1092.2656,879.5469 1093.8594,879.5469 Q1094.7969,879.5469 1095.4531,879.2969 Q1095.8438,879.1406 1096.2656,878.7031 Q1096.5313,878.4375 1096.6719,878.3594 Q1096.8281,878.2813 1097.0313,878.2813 Q1097.3594,878.2813 1097.6094,878.5469 Q1097.875,878.7969 1097.875,879.1406 Q1097.875,879.4844 1097.5313,879.8906 Q1097.0313,880.4688 1096.2344,880.7969 Q1095.1563,881.25 1093.8594,881.25 Q1092.3438,881.25 1091.1406,880.625 Q1090.1563,880.125 1089.4688,879.0625 Q1088.7813,877.9844 1088.7813,876.7031 L1088.7813,875.5469 Q1088.7813,874.2188 1089.3906,873.0781 Q1090.0156,871.9219 1091.1094,871.3125 Q1092.2031,870.6875 1093.4375,870.6875 Q1094.1719,870.6875 1094.8125,870.8594 Q1095.4688,871.0156 1096.0156,871.375 Z " fill="#000000"/><text fill="#000000" font-family="sans-serif" font-size="14" lengthAdjust="spacing" textLength="50" x="1113.75" y="881.2969">Building</text><line style="stroke:#181818;stroke-width:0.5;" x1="1036" x2="1209" y1="891.5" y2="891.5"/><rect fill="none" height="6" style="stroke:#C82930;stroke-width:1.0;" width="6" x="1043" y="903.3105"/><text fill="#000000" font-family="sans-serif" font-size="14" lengthAdjust="spacing" textLength="34" x="1055" y="910.6074">id: int</text><rect fill="none" height="6" style="stroke:#C82930;stroke-width:1.0;" width="6" x="1043" y="921.9316"/><text fill="#000000" font-family="sans-serif" font-size="14" lengthAdjust="spacing" textLength="80" x="1055" y="929.2285">name: String</text><rect fill="none" height="6" style="stroke:#C82930;stroke-width:1.0;" width="6" x="1043" y="940.5527"/><text fill="#000000" font-family="sans-serif" font-size="14" lengthAdjust="spacing" textLength="149" x="1055" y="947.8496">elevator: List&lt;Elevator&gt;</text><line style="stroke:#181818;stroke-width:0.5;" x1="1036" x2="1209" y1="955.3633" y2="955.3633"/></g><!--class Elevator--><g id="elem_Elevator"><rect codeLine="6" fill="#F1F1F1" height="234.2109" id="Elevator" rx="2.5" ry="2.5" style="stroke:#181818;stroke-width:0.5;" width="407" x="640" y="1126"/><ellipse cx="813.25" cy="1142" fill="#ADD1B2" rx="11" ry="11" style="stroke:#181818;stroke-width:1.0;"/><path d="M816.0156,1137.875 Q816.1719,1137.6563 816.3594,1137.5469 Q816.5469,1137.4375 816.7656,1137.4375 Q817.1406,1137.4375 817.375,1137.7031 Q817.6094,1137.9531 817.6094,1138.5625 L817.6094,1140.0156 Q817.6094,1140.625 817.375,1140.8906 Q817.1406,1141.1563 816.7656,1141.1563 Q816.4219,1141.1563 816.2188,1140.9531 Q816.0156,1140.7656 815.9063,1140.25 Q815.8594,1139.8906 815.6719,1139.7031 Q815.3438,1139.3281 814.7344,1139.1094 Q814.125,1138.8906 813.5,1138.8906 Q812.7344,1138.8906 812.0938,1139.2188 Q811.4688,1139.5469 810.9688,1140.2969 Q810.4844,1141.0469 810.4844,1142.0781 L810.4844,1143.1719 Q810.4844,1144.4063 811.375,1145.2344 Q812.2656,1146.0469 813.8594,1146.0469 Q814.7969,1146.0469 815.4531,1145.7969 Q815.8438,1145.6406 816.2656,1145.2031 Q816.5313,1144.9375 816.6719,1144.8594 Q816.8281,1144.7813 817.0313,1144.7813 Q817.3594,1144.7813 817.6094,1145.0469 Q817.875,1145.2969 817.875,1145.6406 Q817.875,1145.9844 817.5313,1146.3906 Q817.0313,1146.9688 816.2344,1147.2969 Q815.1563,1147.75 813.8594,1147.75 Q812.3438,1147.75 811.1406,1147.125 Q810.1563,1146.625 809.4688,1145.5625 Q808.7813,1144.4844 808.7813,1143.2031 L808.7813,1142.0469 Q808.7813,1140.7188 809.3906,1139.5781 Q810.0156,1138.4219 811.1094,1137.8125 Q812.2031,1137.1875 813.4375,1137.1875 Q814.1719,1137.1875 814.8125,1137.3594 Q815.4688,1137.5156 816.0156,1137.875 Z " fill="#000000"/><text fill="#000000" font-family="sans-serif" font-size="14" lengthAdjust="spacing" textLength="52" x="833.75" y="1147.7969">Elevator</text><line style="stroke:#181818;stroke-width:0.5;" x1="641" x2="1046" y1="1158" y2="1158"/><rect fill="none" height="6" style="stroke:#C82930;stroke-width:1.0;" width="6" x="648" y="1169.8105"/><text fill="#000000" font-family="sans-serif" font-size="14" lengthAdjust="spacing" textLength="34" x="660" y="1177.1074">id: int</text><rect fill="none" height="6" style="stroke:#C82930;stroke-width:1.0;" width="6" x="648" y="1188.4316"/><text fill="#000000" font-family="sans-serif" font-size="14" lengthAdjust="spacing" textLength="80" x="660" y="1195.7285">name: String</text><rect fill="none" height="6" style="stroke:#C82930;stroke-width:1.0;" width="6" x="648" y="1207.0527"/><text fill="#000000" font-family="sans-serif" font-size="14" lengthAdjust="spacing" textLength="74" x="660" y="1214.3496">speed: float</text><rect fill="none" height="6" style="stroke:#C82930;stroke-width:1.0;" width="6" x="648" y="1225.6738"/><text fill="#000000" font-family="sans-serif" font-size="14" lengthAdjust="spacing" textLength="115" x="660" y="1232.9707">maxCapacity: float</text><rect fill="none" height="6" style="stroke:#C82930;stroke-width:1.0;" width="6" x="648" y="1244.2949"/><text fill="#000000" font-family="sans-serif" font-size="14" lengthAdjust="spacing" textLength="119" x="660" y="1251.5918">currPositionY: float</text><rect fill="none" height="6" style="stroke:#C82930;stroke-width:1.0;" width="6" x="648" y="1262.916"/><text fill="#000000" font-family="sans-serif" font-size="14" lengthAdjust="spacing" textLength="118" x="660" y="1270.2129">direction: Direction</text><rect fill="none" height="6" style="stroke:#C82930;stroke-width:1.0;" width="6" x="648" y="1281.5371"/><text fill="#000000" font-family="sans-serif" font-size="14" lengthAdjust="spacing" textLength="373" x="660" y="1288.834">elevatorInternalUserInterface: ElevatorInternalUserInterface</text><rect fill="none" height="6" style="stroke:#C82930;stroke-width:1.0;" width="6" x="648" y="1300.1582"/><text fill="#000000" font-family="sans-serif" font-size="14" lengthAdjust="spacing" textLength="381" x="660" y="1307.4551">elevatorExternalUserInterface: ElevatorExternalUserInterface</text><rect fill="none" height="6" style="stroke:#C82930;stroke-width:1.0;" width="6" x="648" y="1318.7793"/><text fill="#000000" font-family="sans-serif" font-size="14" lengthAdjust="spacing" textLength="124" x="660" y="1326.0762">state: ElevatorState</text><rect fill="none" height="6" style="stroke:#C82930;stroke-width:1.0;" width="6" x="648" y="1337.4004"/><text fill="#000000" font-family="sans-serif" font-size="14" lengthAdjust="spacing" textLength="138" x="660" y="1344.6973">status: ElevatorStatus</text><line style="stroke:#181818;stroke-width:0.5;" x1="641" x2="1046" y1="1352.2109" y2="1352.2109"/></g><!--class ElevatorStatus--><g id="elem_ElevatorStatus"><rect codeLine="18" fill="#F1F1F1" height="85.2422" id="ElevatorStatus" rx="2.5" ry="2.5" style="stroke:#181818;stroke-width:0.5;" width="124" x="1157.5" y="7"/><ellipse cx="1172.5" cy="23" fill="#EB937F" rx="11" ry="11" style="stroke:#181818;stroke-width:1.0;"/><path d="M1171.3594,23.7969 L1171.3594,26.2969 L1175.6875,26.2969 L1175.6875,25.375 Q1175.6875,24.7656 1175.9219,24.5 Q1176.1719,24.2344 1176.5469,24.2344 Q1176.9219,24.2344 1177.1563,24.5 Q1177.3906,24.7656 1177.3906,25.375 L1177.3906,28 L1169.3906,28 Q1168.7656,28 1168.5,27.7656 Q1168.25,27.5313 1168.25,27.1406 Q1168.25,26.7656 1168.5156,26.5313 Q1168.7813,26.2969 1169.3906,26.2969 L1169.6563,26.2969 L1169.6563,19.6406 L1169.3906,19.6406 Q1168.7656,19.6406 1168.5,19.4063 Q1168.25,19.1719 1168.25,18.7813 Q1168.25,18.4063 1168.5,18.1719 Q1168.7656,17.9375 1169.3906,17.9375 L1177.0156,17.9375 L1177.0156,20.5313 Q1177.0156,21.1406 1176.7813,21.4063 Q1176.5625,21.6563 1176.1719,21.6563 Q1175.7969,21.6563 1175.5625,21.4063 Q1175.3281,21.1406 1175.3281,20.5313 L1175.3281,19.6406 L1171.3594,19.6406 L1171.3594,22.0938 L1172.8438,22.0938 Q1172.8438,21.4375 1172.9688,21.25 Q1173.2344,20.8438 1173.7031,20.8438 Q1174.0781,20.8438 1174.3125,21.1094 Q1174.5469,21.3594 1174.5469,21.9688 L1174.5469,23.9375 Q1174.5469,24.4844 1174.4219,24.6719 Q1174.1563,25.0625 1173.7031,25.0625 Q1173.2344,25.0625 1172.9688,24.6563 Q1172.8438,24.4688 1172.8438,23.7969 L1171.3594,23.7969 Z " fill="#000000"/><text fill="#000000" font-family="sans-serif" font-size="14" lengthAdjust="spacing" textLength="92" x="1186.5" y="28.7969">ElevatorStatus</text><line style="stroke:#181818;stroke-width:0.5;" x1="1158.5" x2="1280.5" y1="39" y2="39"/><text fill="#000000" font-family="sans-serif" font-size="14" lengthAdjust="spacing" textLength="57" x="1163.5" y="58.1074">Available</text><text fill="#000000" font-family="sans-serif" font-size="14" lengthAdjust="spacing" textLength="78" x="1163.5" y="76.7285">NotAvailable</text><line style="stroke:#181818;stroke-width:0.5;" x1="1158.5" x2="1280.5" y1="84.2422" y2="84.2422"/></g><!--class ElevatorState--><g id="elem_ElevatorState"><rect codeLine="22" fill="#F1F1F1" height="85.2422" id="ElevatorState" rx="2.5" ry="2.5" style="stroke:#181818;stroke-width:0.5;" width="117" x="1317" y="7"/><ellipse cx="1332" cy="23" fill="#EB937F" rx="11" ry="11" style="stroke:#181818;stroke-width:1.0;"/><path d="M1330.8594,23.7969 L1330.8594,26.2969 L1335.1875,26.2969 L1335.1875,25.375 Q1335.1875,24.7656 1335.4219,24.5 Q1335.6719,24.2344 1336.0469,24.2344 Q1336.4219,24.2344 1336.6563,24.5 Q1336.8906,24.7656 1336.8906,25.375 L1336.8906,28 L1328.8906,28 Q1328.2656,28 1328,27.7656 Q1327.75,27.5313 1327.75,27.1406 Q1327.75,26.7656 1328.0156,26.5313 Q1328.2813,26.2969 1328.8906,26.2969 L1329.1563,26.2969 L1329.1563,19.6406 L1328.8906,19.6406 Q1328.2656,19.6406 1328,19.4063 Q1327.75,19.1719 1327.75,18.7813 Q1327.75,18.4063 1328,18.1719 Q1328.2656,17.9375 1328.8906,17.9375 L1336.5156,17.9375 L1336.5156,20.5313 Q1336.5156,21.1406 1336.2813,21.4063 Q1336.0625,21.6563 1335.6719,21.6563 Q1335.2969,21.6563 1335.0625,21.4063 Q1334.8281,21.1406 1334.8281,20.5313 L1334.8281,19.6406 L1330.8594,19.6406 L1330.8594,22.0938 L1332.3438,22.0938 Q1332.3438,21.4375 1332.4688,21.25 Q1332.7344,20.8438 1333.2031,20.8438 Q1333.5781,20.8438 1333.8125,21.1094 Q1334.0469,21.3594 1334.0469,21.9688 L1334.0469,23.9375 Q1334.0469,24.4844 1333.9219,24.6719 Q1333.6563,25.0625 1333.2031,25.0625 Q1332.7344,25.0625 1332.4688,24.6563 Q1332.3438,24.4688 1332.3438,23.7969 L1330.8594,23.7969 Z " fill="#000000"/><text fill="#000000" font-family="sans-serif" font-size="14" lengthAdjust="spacing" textLength="85" x="1346" y="28.7969">ElevatorState</text><line style="stroke:#181818;stroke-width:0.5;" x1="1318" x2="1433" y1="39" y2="39"/><text fill="#000000" font-family="sans-serif" font-size="14" lengthAdjust="spacing" textLength="34" x="1323" y="58.1074">Move</text><text fill="#000000" font-family="sans-serif" font-size="14" lengthAdjust="spacing" textLength="22" x="1323" y="76.7285">Idle</text><line style="stroke:#181818;stroke-width:0.5;" x1="1318" x2="1433" y1="84.2422" y2="84.2422"/></g><!--class Direction--><g id="elem_Direction"><rect codeLine="26" fill="#F1F1F1" height="103.8633" id="Direction" rx="2.5" ry="2.5" style="stroke:#181818;stroke-width:0.5;" width="88" x="1175.5" y="153"/><ellipse cx="1190.5" cy="169" fill="#ADD1B2" rx="11" ry="11" style="stroke:#181818;stroke-width:1.0;"/><path d="M1193.2656,164.875 Q1193.4219,164.6563 1193.6094,164.5469 Q1193.7969,164.4375 1194.0156,164.4375 Q1194.3906,164.4375 1194.625,164.7031 Q1194.8594,164.9531 1194.8594,165.5625 L1194.8594,167.0156 Q1194.8594,167.625 1194.625,167.8906 Q1194.3906,168.1563 1194.0156,168.1563 Q1193.6719,168.1563 1193.4688,167.9531 Q1193.2656,167.7656 1193.1563,167.25 Q1193.1094,166.8906 1192.9219,166.7031 Q1192.5938,166.3281 1191.9844,166.1094 Q1191.375,165.8906 1190.75,165.8906 Q1189.9844,165.8906 1189.3438,166.2188 Q1188.7188,166.5469 1188.2188,167.2969 Q1187.7344,168.0469 1187.7344,169.0781 L1187.7344,170.1719 Q1187.7344,171.4063 1188.625,172.2344 Q1189.5156,173.0469 1191.1094,173.0469 Q1192.0469,173.0469 1192.7031,172.7969 Q1193.0938,172.6406 1193.5156,172.2031 Q1193.7813,171.9375 1193.9219,171.8594 Q1194.0781,171.7813 1194.2813,171.7813 Q1194.6094,171.7813 1194.8594,172.0469 Q1195.125,172.2969 1195.125,172.6406 Q1195.125,172.9844 1194.7813,173.3906 Q1194.2813,173.9688 1193.4844,174.2969 Q1192.4063,174.75 1191.1094,174.75 Q1189.5938,174.75 1188.3906,174.125 Q1187.4063,173.625 1186.7188,172.5625 Q1186.0313,171.4844 1186.0313,170.2031 L1186.0313,169.0469 Q1186.0313,167.7188 1186.6406,166.5781 Q1187.2656,165.4219 1188.3594,164.8125 Q1189.4531,164.1875 1190.6875,164.1875 Q1191.4219,164.1875 1192.0625,164.3594 Q1192.7188,164.5156 1193.2656,164.875 Z " fill="#000000"/><text fill="#000000" font-family="sans-serif" font-size="14" lengthAdjust="spacing" textLength="56" x="1204.5" y="174.7969">Direction</text><line style="stroke:#181818;stroke-width:0.5;" x1="1176.5" x2="1262.5" y1="185" y2="185"/><text fill="#000000" font-family="sans-serif" font-size="14" lengthAdjust="spacing" textLength="17" x="1181.5" y="204.1074">Up</text><text fill="#000000" font-family="sans-serif" font-size="14" lengthAdjust="spacing" textLength="35" x="1181.5" y="222.7285">Down</text><text fill="#000000" font-family="sans-serif" font-size="14" lengthAdjust="spacing" textLength="29" x="1181.5" y="241.3496">Rest</text><line style="stroke:#181818;stroke-width:0.5;" x1="1176.5" x2="1262.5" y1="248.8633" y2="248.8633"/></g><!--class ElevatorInternalUserInterface--><g id="elem_ElevatorInternalUserInterface"><rect codeLine="31" fill="#F1F1F1" height="141.1055" id="ElevatorInternalUserInterface" rx="2.5" ry="2.5" style="stroke:#181818;stroke-width:0.5;" width="313" x="527" y="1439"/><ellipse cx="586.75" cy="1455" fill="#B4A7E5" rx="11" ry="11" style="stroke:#181818;stroke-width:1.0;"/><path d="M587.7031,1451.6406 L587.7031,1458.2969 L589.4219,1458.2969 Q590.0313,1458.2969 590.2969,1458.5313 Q590.5625,1458.7656 590.5625,1459.1563 Q590.5625,1459.5313 590.2969,1459.7656 Q590.0313,1460 589.4219,1460 L584.2813,1460 Q583.6719,1460 583.4063,1459.7656 Q583.1406,1459.5313 583.1406,1459.1406 Q583.1406,1458.7656 583.4063,1458.5313 Q583.6719,1458.2969 584.2813,1458.2969 L586,1458.2969 L586,1451.6406 L584.2813,1451.6406 Q583.6719,1451.6406 583.4063,1451.4063 Q583.1406,1451.1719 583.1406,1450.7813 Q583.1406,1450.4063 583.4063,1450.1719 Q583.6719,1449.9375 584.2813,1449.9375 L589.4219,1449.9375 Q590.0313,1449.9375 590.2969,1450.1719 Q590.5625,1450.4063 590.5625,1450.7813 Q590.5625,1451.1719 590.2969,1451.4063 Q590.0313,1451.6406 589.4219,1451.6406 L587.7031,1451.6406 Z " fill="#000000"/><text fill="#000000" font-family="sans-serif" font-size="14" font-style="italic" lengthAdjust="spacing" textLength="185" x="607.25" y="1460.7969">ElevatorInternalUserInterface</text><line style="stroke:#181818;stroke-width:0.5;" x1="528" x2="839" y1="1471" y2="1471"/><line style="stroke:#181818;stroke-width:0.5;" x1="528" x2="839" y1="1479" y2="1479"/><ellipse cx="538" cy="1493.8105" fill="#84BE84" rx="3" ry="3" style="stroke:#038048;stroke-width:1.0;"/><text fill="#000000" font-family="sans-serif" font-size="14" lengthAdjust="spacing" textLength="287" x="547" y="1498.1074">internalRequest(floor: int, direction: Direction)</text><ellipse cx="538" cy="1512.4316" fill="#84BE84" rx="3" ry="3" style="stroke:#038048;stroke-width:1.0;"/><text fill="#000000" font-family="sans-serif" font-size="14" lengthAdjust="spacing" textLength="42" x="547" y="1516.7285">open()</text><ellipse cx="538" cy="1531.0527" fill="#84BE84" rx="3" ry="3" style="stroke:#038048;stroke-width:1.0;"/><text fill="#000000" font-family="sans-serif" font-size="14" lengthAdjust="spacing" textLength="43" x="547" y="1535.3496">close()</text><ellipse cx="538" cy="1549.6738" fill="#84BE84" rx="3" ry="3" style="stroke:#038048;stroke-width:1.0;"/><text fill="#000000" font-family="sans-serif" font-size="14" lengthAdjust="spacing" textLength="45" x="547" y="1553.9707">alarm()</text><ellipse cx="538" cy="1568.2949" fill="#84BE84" rx="3" ry="3" style="stroke:#038048;stroke-width:1.0;"/><text fill="#000000" font-family="sans-serif" font-size="14" lengthAdjust="spacing" textLength="31" x="547" y="1572.5918">call()</text></g><!--class ElevatorExternalUserInterface--><g id="elem_ElevatorExternalUserInterface"><rect codeLine="38" fill="#F1F1F1" height="66.6211" id="ElevatorExternalUserInterface" rx="2.5" ry="2.5" style="stroke:#181818;stroke-width:0.5;" width="257" x="875" y="1476"/><ellipse cx="906.65" cy="1492" fill="#B4A7E5" rx="11" ry="11" style="stroke:#181818;stroke-width:1.0;"/><path d="M907.6031,1488.6406 L907.6031,1495.2969 L909.3219,1495.2969 Q909.9313,1495.2969 910.1969,1495.5313 Q910.4625,1495.7656 910.4625,1496.1563 Q910.4625,1496.5313 910.1969,1496.7656 Q909.9313,1497 909.3219,1497 L904.1813,1497 Q903.5719,1497 903.3063,1496.7656 Q903.0406,1496.5313 903.0406,1496.1406 Q903.0406,1495.7656 903.3063,1495.5313 Q903.5719,1495.2969 904.1813,1495.2969 L905.9,1495.2969 L905.9,1488.6406 L904.1813,1488.6406 Q903.5719,1488.6406 903.3063,1488.4063 Q903.0406,1488.1719 903.0406,1487.7813 Q903.0406,1487.4063 903.3063,1487.1719 Q903.5719,1486.9375 904.1813,1486.9375 L909.3219,1486.9375 Q909.9313,1486.9375 910.1969,1487.1719 Q910.4625,1487.4063 910.4625,1487.7813 Q910.4625,1488.1719 910.1969,1488.4063 Q909.9313,1488.6406 909.3219,1488.6406 L907.6031,1488.6406 Z " fill="#000000"/><text fill="#000000" font-family="sans-serif" font-size="14" font-style="italic" lengthAdjust="spacing" textLength="188" x="924.35" y="1497.7969">ElevatorExternalUserInterface</text><line style="stroke:#181818;stroke-width:0.5;" x1="876" x2="1131" y1="1508" y2="1508"/><line style="stroke:#181818;stroke-width:0.5;" x1="876" x2="1131" y1="1516" y2="1516"/><ellipse cx="886" cy="1530.8105" fill="#84BE84" rx="3" ry="3" style="stroke:#038048;stroke-width:1.0;"/><text fill="#000000" font-family="sans-serif" font-size="14" lengthAdjust="spacing" textLength="231" x="895" y="1535.1074">externalRequest(direction: Direction)</text></g><!--class ElevatorRequest--><g id="elem_ElevatorRequest"><rect codeLine="41" fill="#F1F1F1" height="85.2422" id="ElevatorRequest" rx="2.5" ry="2.5" style="stroke:#181818;stroke-width:0.5;" width="313" x="827" y="162.5"/><ellipse cx="927.25" cy="178.5" fill="#B4A7E5" rx="11" ry="11" style="stroke:#181818;stroke-width:1.0;"/><path d="M928.2031,175.1406 L928.2031,181.7969 L929.9219,181.7969 Q930.5313,181.7969 930.7969,182.0313 Q931.0625,182.2656 931.0625,182.6563 Q931.0625,183.0313 930.7969,183.2656 Q930.5313,183.5 929.9219,183.5 L924.7813,183.5 Q924.1719,183.5 923.9063,183.2656 Q923.6406,183.0313 923.6406,182.6406 Q923.6406,182.2656 923.9063,182.0313 Q924.1719,181.7969 924.7813,181.7969 L926.5,181.7969 L926.5,175.1406 L924.7813,175.1406 Q924.1719,175.1406 923.9063,174.9063 Q923.6406,174.6719 923.6406,174.2813 Q923.6406,173.9063 923.9063,173.6719 Q924.1719,173.4375 924.7813,173.4375 L929.9219,173.4375 Q930.5313,173.4375 930.7969,173.6719 Q931.0625,173.9063 931.0625,174.2813 Q931.0625,174.6719 930.7969,174.9063 Q930.5313,175.1406 929.9219,175.1406 L928.2031,175.1406 Z " fill="#000000"/><text fill="#000000" font-family="sans-serif" font-size="14" font-style="italic" lengthAdjust="spacing" textLength="104" x="947.75" y="184.2969">ElevatorRequest</text><line style="stroke:#181818;stroke-width:0.5;" x1="828" x2="1139" y1="194.5" y2="194.5"/><line style="stroke:#181818;stroke-width:0.5;" x1="828" x2="1139" y1="202.5" y2="202.5"/><ellipse cx="838" cy="217.3105" fill="#84BE84" rx="3" ry="3" style="stroke:#038048;stroke-width:1.0;"/><text fill="#000000" font-family="sans-serif" font-size="14" lengthAdjust="spacing" textLength="287" x="847" y="221.6074">internalRequest(floor: int, direction: Direction)</text><ellipse cx="838" cy="235.9316" fill="#84BE84" rx="3" ry="3" style="stroke:#038048;stroke-width:1.0;"/><text fill="#000000" font-family="sans-serif" font-size="14" lengthAdjust="spacing" textLength="231" x="847" y="240.2285">externalRequest(direction: Direction)</text></g><!--class ElevatorAlgorithm--><g id="elem_ElevatorAlgorithm"><rect codeLine="45" fill="#F1F1F1" height="103.8633" id="ElevatorAlgorithm" rx="2.5" ry="2.5" style="stroke:#181818;stroke-width:0.5;" width="142" x="912.5" y="593"/><ellipse cx="927.5" cy="609" fill="#B4A7E5" rx="11" ry="11" style="stroke:#181818;stroke-width:1.0;"/><path d="M928.4531,605.6406 L928.4531,612.2969 L930.1719,612.2969 Q930.7813,612.2969 931.0469,612.5313 Q931.3125,612.7656 931.3125,613.1563 Q931.3125,613.5313 931.0469,613.7656 Q930.7813,614 930.1719,614 L925.0313,614 Q924.4219,614 924.1563,613.7656 Q923.8906,613.5313 923.8906,613.1406 Q923.8906,612.7656 924.1563,612.5313 Q924.4219,612.2969 925.0313,612.2969 L926.75,612.2969 L926.75,605.6406 L925.0313,605.6406 Q924.4219,605.6406 924.1563,605.4063 Q923.8906,605.1719 923.8906,604.7813 Q923.8906,604.4063 924.1563,604.1719 Q924.4219,603.9375 925.0313,603.9375 L930.1719,603.9375 Q930.7813,603.9375 931.0469,604.1719 Q931.3125,604.4063 931.3125,604.7813 Q931.3125,605.1719 931.0469,605.4063 Q930.7813,605.6406 930.1719,605.6406 L928.4531,605.6406 Z " fill="#000000"/><text fill="#000000" font-family="sans-serif" font-size="14" font-style="italic" lengthAdjust="spacing" textLength="110" x="941.5" y="614.7969">ElevatorAlgorithm</text><line style="stroke:#181818;stroke-width:0.5;" x1="913.5" x2="1053.5" y1="625" y2="625"/><line style="stroke:#181818;stroke-width:0.5;" x1="913.5" x2="1053.5" y1="633" y2="633"/><ellipse cx="923.5" cy="647.8105" fill="#84BE84" rx="3" ry="3" style="stroke:#038048;stroke-width:1.0;"/><text fill="#000000" font-family="sans-serif" font-size="14" lengthAdjust="spacing" textLength="44" x="932.5" y="652.1074">move()</text><ellipse cx="923.5" cy="666.4316" fill="#84BE84" rx="3" ry="3" style="stroke:#038048;stroke-width:1.0;"/><text fill="#000000" font-family="sans-serif" font-size="14" lengthAdjust="spacing" textLength="49" x="932.5" y="670.7285">pause()</text><ellipse cx="923.5" cy="685.0527" fill="#84BE84" rx="3" ry="3" style="stroke:#038048;stroke-width:1.0;"/><text fill="#000000" font-family="sans-serif" font-size="14" lengthAdjust="spacing" textLength="57" x="932.5" y="689.3496">resume()</text></g><!--class ElevatorManager--><g id="elem_ElevatorManager"><rect codeLine="55" fill="#F1F1F1" height="178.3477" id="ElevatorManager" rx="2.5" ry="2.5" style="stroke:#181818;stroke-width:0.5;" width="492" x="399.5" y="336"/><ellipse cx="587.25" cy="352" fill="#ADD1B2" rx="11" ry="11" style="stroke:#181818;stroke-width:1.0;"/><path d="M590.0156,347.875 Q590.1719,347.6563 590.3594,347.5469 Q590.5469,347.4375 590.7656,347.4375 Q591.1406,347.4375 591.375,347.7031 Q591.6094,347.9531 591.6094,348.5625 L591.6094,350.0156 Q591.6094,350.625 591.375,350.8906 Q591.1406,351.1563 590.7656,351.1563 Q590.4219,351.1563 590.2188,350.9531 Q590.0156,350.7656 589.9063,350.25 Q589.8594,349.8906 589.6719,349.7031 Q589.3438,349.3281 588.7344,349.1094 Q588.125,348.8906 587.5,348.8906 Q586.7344,348.8906 586.0938,349.2188 Q585.4688,349.5469 584.9688,350.2969 Q584.4844,351.0469 584.4844,352.0781 L584.4844,353.1719 Q584.4844,354.4063 585.375,355.2344 Q586.2656,356.0469 587.8594,356.0469 Q588.7969,356.0469 589.4531,355.7969 Q589.8438,355.6406 590.2656,355.2031 Q590.5313,354.9375 590.6719,354.8594 Q590.8281,354.7813 591.0313,354.7813 Q591.3594,354.7813 591.6094,355.0469 Q591.875,355.2969 591.875,355.6406 Q591.875,355.9844 591.5313,356.3906 Q591.0313,356.9688 590.2344,357.2969 Q589.1563,357.75 587.8594,357.75 Q586.3438,357.75 585.1406,357.125 Q584.1563,356.625 583.4688,355.5625 Q582.7813,354.4844 582.7813,353.2031 L582.7813,352.0469 Q582.7813,350.7188 583.3906,349.5781 Q584.0156,348.4219 585.1094,347.8125 Q586.2031,347.1875 587.4375,347.1875 Q588.1719,347.1875 588.8125,347.3594 Q589.4688,347.5156 590.0156,347.875 Z " fill="#000000"/><text fill="#000000" font-family="sans-serif" font-size="14" lengthAdjust="spacing" textLength="108" x="607.75" y="357.7969">ElevatorManager</text><line style="stroke:#181818;stroke-width:0.5;" x1="400.5" x2="890.5" y1="368" y2="368"/><rect fill="none" height="6" style="stroke:#C82930;stroke-width:1.0;" width="6" x="407.5" y="379.8105"/><text fill="#000000" font-family="sans-serif" font-size="14" lengthAdjust="spacing" textLength="111" x="419.5" y="387.1074">elevator: Elevator</text><rect fill="none" height="6" style="stroke:#C82930;stroke-width:1.0;" width="6" x="407.5" y="398.4316"/><text fill="#000000" font-family="sans-serif" font-size="14" lengthAdjust="spacing" textLength="229" x="419.5" y="405.7285">elevatorAlgorithm: ElevatorAlgorithm</text><line style="stroke:#181818;stroke-width:0.5;" x1="400.5" x2="890.5" y1="413.2422" y2="413.2422"/><ellipse cx="410.5" cy="428.0527" fill="#84BE84" rx="3" ry="3" style="stroke:#038048;stroke-width:1.0;"/><text fill="#000000" font-family="sans-serif" font-size="14" lengthAdjust="spacing" textLength="466" x="419.5" y="432.3496">ElevatorManager(elevator: Elevator, elevatorAlgorithm: ElevatorAlgorithm)</text><ellipse cx="410.5" cy="446.6738" fill="#84BE84" rx="3" ry="3" style="stroke:#038048;stroke-width:1.0;"/><text fill="#000000" font-family="sans-serif" font-size="14" lengthAdjust="spacing" textLength="299" x="419.5" y="450.9707">internalRequest(floor: long, direction: Direction)</text><ellipse cx="410.5" cy="465.2949" fill="#84BE84" rx="3" ry="3" style="stroke:#038048;stroke-width:1.0;"/><text fill="#000000" font-family="sans-serif" font-size="14" lengthAdjust="spacing" textLength="231" x="419.5" y="469.5918">externalRequest(direction: Direction)</text><ellipse cx="410.5" cy="483.916" fill="#84BE84" rx="3" ry="3" style="stroke:#038048;stroke-width:1.0;"/><text fill="#000000" font-family="sans-serif" font-size="14" lengthAdjust="spacing" textLength="37" x="419.5" y="488.2129">stop()</text><ellipse cx="410.5" cy="502.5371" fill="#84BE84" rx="3" ry="3" style="stroke:#038048;stroke-width:1.0;"/><text fill="#000000" font-family="sans-serif" font-size="14" lengthAdjust="spacing" textLength="38" x="419.5" y="506.834">start()</text></g><!--class LookAheadScanAlgorithm--><g id="elem_LookAheadScanAlgorithm"><rect codeLine="64" fill="#F1F1F1" height="271.4531" id="LookAheadScanAlgorithm" rx="2.5" ry="2.5" style="stroke:#181818;stroke-width:0.5;" width="313" x="687" y="776"/><ellipse cx="757.75" cy="792" fill="#ADD1B2" rx="11" ry="11" style="stroke:#181818;stroke-width:1.0;"/><path d="M760.5156,787.875 Q760.6719,787.6563 760.8594,787.5469 Q761.0469,787.4375 761.2656,787.4375 Q761.6406,787.4375 761.875,787.7031 Q762.1094,787.9531 762.1094,788.5625 L762.1094,790.0156 Q762.1094,790.625 761.875,790.8906 Q761.6406,791.1563 761.2656,791.1563 Q760.9219,791.1563 760.7188,790.9531 Q760.5156,790.7656 760.4063,790.25 Q760.3594,789.8906 760.1719,789.7031 Q759.8438,789.3281 759.2344,789.1094 Q758.625,788.8906 758,788.8906 Q757.2344,788.8906 756.5938,789.2188 Q755.9688,789.5469 755.4688,790.2969 Q754.9844,791.0469 754.9844,792.0781 L754.9844,793.1719 Q754.9844,794.4063 755.875,795.2344 Q756.7656,796.0469 758.3594,796.0469 Q759.2969,796.0469 759.9531,795.7969 Q760.3438,795.6406 760.7656,795.2031 Q761.0313,794.9375 761.1719,794.8594 Q761.3281,794.7813 761.5313,794.7813 Q761.8594,794.7813 762.1094,795.0469 Q762.375,795.2969 762.375,795.6406 Q762.375,795.9844 762.0313,796.3906 Q761.5313,796.9688 760.7344,797.2969 Q759.6563,797.75 758.3594,797.75 Q756.8438,797.75 755.6406,797.125 Q754.6563,796.625 753.9688,795.5625 Q753.2813,794.4844 753.2813,793.2031 L753.2813,792.0469 Q753.2813,790.7188 753.8906,789.5781 Q754.5156,788.4219 755.6094,787.8125 Q756.7031,787.1875 757.9375,787.1875 Q758.6719,787.1875 759.3125,787.3594 Q759.9688,787.5156 760.5156,787.875 Z " fill="#000000"/><text fill="#000000" font-family="sans-serif" font-size="14" lengthAdjust="spacing" textLength="163" x="778.25" y="797.7969">LookAheadScanAlgorithm</text><line style="stroke:#181818;stroke-width:0.5;" x1="688" x2="999" y1="808" y2="808"/><rect fill="none" height="6" style="stroke:#C82930;stroke-width:1.0;" width="6" x="695" y="819.8105"/><text fill="#000000" font-family="sans-serif" font-size="14" lengthAdjust="spacing" textLength="81" x="707" y="827.1074">currFloor: int</text><rect fill="none" height="6" style="stroke:#C82930;stroke-width:1.0;" width="6" x="695" y="838.4316"/><text fill="#000000" font-family="sans-serif" font-size="14" lengthAdjust="spacing" textLength="84" x="707" y="845.7285">startFloor: int</text><rect fill="none" height="6" style="stroke:#C82930;stroke-width:1.0;" width="6" x="695" y="857.0527"/><text fill="#000000" font-family="sans-serif" font-size="14" lengthAdjust="spacing" textLength="80" x="707" y="864.3496">endFloor: int</text><rect fill="none" height="6" style="stroke:#C82930;stroke-width:1.0;" width="6" x="695" y="875.6738"/><text fill="#000000" font-family="sans-serif" font-size="14" lengthAdjust="spacing" textLength="111" x="707" y="882.9707">elevator: Elevator</text><rect fill="none" height="6" style="stroke:#C82930;stroke-width:1.0;" width="6" x="695" y="894.2949"/><text fill="#000000" font-family="sans-serif" font-size="14" lengthAdjust="spacing" textLength="159" x="707" y="901.5918">upRequest: List&lt;Integer&gt;</text><rect fill="none" height="6" style="stroke:#C82930;stroke-width:1.0;" width="6" x="695" y="912.916"/><text fill="#000000" font-family="sans-serif" font-size="14" lengthAdjust="spacing" textLength="176" x="707" y="920.2129">downRequest: List&lt;Integer&gt;</text><line style="stroke:#181818;stroke-width:0.5;" x1="688" x2="999" y1="927.7266" y2="927.7266"/><ellipse cx="698" cy="942.5371" fill="#84BE84" rx="3" ry="3" style="stroke:#038048;stroke-width:1.0;"/><text fill="#000000" font-family="sans-serif" font-size="14" lengthAdjust="spacing" textLength="287" x="707" y="946.834">internalRequest(floor: int, direction: Direction)</text><ellipse cx="698" cy="961.1582" fill="#84BE84" rx="3" ry="3" style="stroke:#038048;stroke-width:1.0;"/><text fill="#000000" font-family="sans-serif" font-size="14" lengthAdjust="spacing" textLength="231" x="707" y="965.4551">externalRequest(direction: Direction)</text><ellipse cx="698" cy="979.7793" fill="#84BE84" rx="3" ry="3" style="stroke:#038048;stroke-width:1.0;"/><text fill="#000000" font-family="sans-serif" font-size="14" lengthAdjust="spacing" textLength="44" x="707" y="984.0762">move()</text><ellipse cx="698" cy="998.4004" fill="#84BE84" rx="3" ry="3" style="stroke:#038048;stroke-width:1.0;"/><text fill="#000000" font-family="sans-serif" font-size="14" lengthAdjust="spacing" textLength="49" x="707" y="1002.6973">pause()</text><ellipse cx="698" cy="1017.0215" fill="#84BE84" rx="3" ry="3" style="stroke:#038048;stroke-width:1.0;"/><text fill="#000000" font-family="sans-serif" font-size="14" lengthAdjust="spacing" textLength="57" x="707" y="1021.3184">resume()</text><rect fill="#F24D5C" height="6" style="stroke:#C82930;stroke-width:1.0;" width="6" x="695" y="1032.6426"/><text fill="#000000" font-family="sans-serif" font-size="14" lengthAdjust="spacing" textLength="235" x="707" y="1039.9395">calcFloorFromElevatorPositionY(): int</text></g><!--class ElevatorCoordinatorAlgorithm--><g id="elem_ElevatorCoordinatorAlgorithm"><rect codeLine="78" fill="#F1F1F1" height="66.6211" id="ElevatorCoordinatorAlgorithm" rx="2.5" ry="2.5" style="stroke:#181818;stroke-width:0.5;" width="263" x="398" y="16"/><ellipse cx="433.7" cy="32" fill="#B4A7E5" rx="11" ry="11" style="stroke:#181818;stroke-width:1.0;"/><path d="M434.6531,28.6406 L434.6531,35.2969 L436.3719,35.2969 Q436.9813,35.2969 437.2469,35.5313 Q437.5125,35.7656 437.5125,36.1563 Q437.5125,36.5313 437.2469,36.7656 Q436.9813,37 436.3719,37 L431.2313,37 Q430.6219,37 430.3563,36.7656 Q430.0906,36.5313 430.0906,36.1406 Q430.0906,35.7656 430.3563,35.5313 Q430.6219,35.2969 431.2313,35.2969 L432.95,35.2969 L432.95,28.6406 L431.2313,28.6406 Q430.6219,28.6406 430.3563,28.4063 Q430.0906,28.1719 430.0906,27.7813 Q430.0906,27.4063 430.3563,27.1719 Q430.6219,26.9375 431.2313,26.9375 L436.3719,26.9375 Q436.9813,26.9375 437.2469,27.1719 Q437.5125,27.4063 437.5125,27.7813 Q437.5125,28.1719 437.2469,28.4063 Q436.9813,28.6406 436.3719,28.6406 L434.6531,28.6406 Z " fill="#000000"/><text fill="#000000" font-family="sans-serif" font-size="14" font-style="italic" lengthAdjust="spacing" textLength="185" x="452.3" y="37.7969">ElevatorCoordinatorAlgorithm</text><line style="stroke:#181818;stroke-width:0.5;" x1="399" x2="660" y1="48" y2="48"/><line style="stroke:#181818;stroke-width:0.5;" x1="399" x2="660" y1="56" y2="56"/><ellipse cx="409" cy="70.8105" fill="#84BE84" rx="3" ry="3" style="stroke:#038048;stroke-width:1.0;"/><text fill="#000000" font-family="sans-serif" font-size="14" lengthAdjust="spacing" textLength="237" x="418" y="75.1074">scheduleElevator(direction: Direction)</text></g><g id="elem_GMN17"><path d="M6,36 L6,63.291 A0,0 0 0 0 6,63.291 L363,63.291 A0,0 0 0 0 363,63.291 L363,54 L397.85,49.5 L363,46 L363,46 L353,36 L6,36 A0,0 0 0 0 6,36 " fill="#FEFFDD" style="stroke:#181818;stroke-width:0.5;"/><path d="M353,36 L353,46 L363,46 L353,36 " fill="#FEFFDD" style="stroke:#181818;stroke-width:0.5;"/><text fill="#000000" font-family="sans-serif" font-size="13" lengthAdjust="spacing" textLength="336" x="12" y="55.0283">This interface responsible for multiple elevator coordination</text></g><!--class ElevatorCoordinator--><g id="elem_ElevatorCoordinator"><rect codeLine="85" fill="#F1F1F1" height="103.8633" id="ElevatorCoordinator" rx="2.5" ry="2.5" style="stroke:#181818;stroke-width:0.5;" width="525" x="267" y="153"/><ellipse cx="461.75" cy="169" fill="#ADD1B2" rx="11" ry="11" style="stroke:#181818;stroke-width:1.0;"/><path d="M464.5156,164.875 Q464.6719,164.6563 464.8594,164.5469 Q465.0469,164.4375 465.2656,164.4375 Q465.6406,164.4375 465.875,164.7031 Q466.1094,164.9531 466.1094,165.5625 L466.1094,167.0156 Q466.1094,167.625 465.875,167.8906 Q465.6406,168.1563 465.2656,168.1563 Q464.9219,168.1563 464.7188,167.9531 Q464.5156,167.7656 464.4063,167.25 Q464.3594,166.8906 464.1719,166.7031 Q463.8438,166.3281 463.2344,166.1094 Q462.625,165.8906 462,165.8906 Q461.2344,165.8906 460.5938,166.2188 Q459.9688,166.5469 459.4688,167.2969 Q458.9844,168.0469 458.9844,169.0781 L458.9844,170.1719 Q458.9844,171.4063 459.875,172.2344 Q460.7656,173.0469 462.3594,173.0469 Q463.2969,173.0469 463.9531,172.7969 Q464.3438,172.6406 464.7656,172.2031 Q465.0313,171.9375 465.1719,171.8594 Q465.3281,171.7813 465.5313,171.7813 Q465.8594,171.7813 466.1094,172.0469 Q466.375,172.2969 466.375,172.6406 Q466.375,172.9844 466.0313,173.3906 Q465.5313,173.9688 464.7344,174.2969 Q463.6563,174.75 462.3594,174.75 Q460.8438,174.75 459.6406,174.125 Q458.6563,173.625 457.9688,172.5625 Q457.2813,171.4844 457.2813,170.2031 L457.2813,169.0469 Q457.2813,167.7188 457.8906,166.5781 Q458.5156,165.4219 459.6094,164.8125 Q460.7031,164.1875 461.9375,164.1875 Q462.6719,164.1875 463.3125,164.3594 Q463.9688,164.5156 464.5156,164.875 Z " fill="#000000"/><text fill="#000000" font-family="sans-serif" font-size="14" lengthAdjust="spacing" textLength="127" x="482.25" y="174.7969">ElevatorCoordinator</text><line style="stroke:#181818;stroke-width:0.5;" x1="268" x2="791" y1="185" y2="185"/><rect fill="none" height="6" style="stroke:#C82930;stroke-width:1.0;" width="6" x="275" y="196.8105"/><text fill="#000000" font-family="sans-serif" font-size="14" lengthAdjust="spacing" textLength="374" x="287" y="204.1074">elevatorCoordinator: Map&lt;Integer, Set&lt;ElevatorManager&gt;&gt;</text><line style="stroke:#181818;stroke-width:0.5;" x1="268" x2="791" y1="211.6211" y2="211.6211"/><ellipse cx="278" cy="226.4316" fill="#84BE84" rx="3" ry="3" style="stroke:#038048;stroke-width:1.0;"/><text fill="#000000" font-family="sans-serif" font-size="14" lengthAdjust="spacing" textLength="237" x="287" y="230.7285">scheduleElevator(direction: Direction)</text><ellipse cx="278" cy="245.0527" fill="#84BE84" rx="3" ry="3" style="stroke:#038048;stroke-width:1.0;"/><text fill="#000000" font-family="sans-serif" font-size="14" lengthAdjust="spacing" textLength="499" x="287" y="249.3496">addElevatorToGroup(elevatorGroupId: int, elevatorManager: ElevatorManager)</text></g><g id="elem_GMN22"><path d="M548,631.5 L548,658.791 A0,0 0 0 0 548,658.791 L877,658.791 A0,0 0 0 0 877,658.791 L877,649.5 L912.44,645 L877,641.5 L877,641.5 L867,631.5 L548,631.5 A0,0 0 0 0 548,631.5 " fill="#FEFFDD" style="stroke:#181818;stroke-width:0.5;"/><path d="M867,631.5 L867,641.5 L877,641.5 L867,631.5 " fill="#FEFFDD" style="stroke:#181818;stroke-width:0.5;"/><text fill="#000000" font-family="sans-serif" font-size="13" lengthAdjust="spacing" textLength="308" x="554" y="650.5283">This interface responsible for single elevator algorithm</text></g><!--reverse link ElevatorRequest to ElevatorAlgorithm--><g id="link_ElevatorRequest_ElevatorAlgorithm"><path d="M983.5,267.62 C983.5,354.69 983.5,512.11 983.5,593 " fill="none" id="ElevatorRequest-backto-ElevatorAlgorithm" style="stroke:#181818;stroke-width:1.0;"/><polygon fill="none" points="976.5,267.6,983.5,247.6,990.5,267.6,976.5,267.6" style="stroke:#181818;stroke-width:1.0;"/></g><!--reverse link ElevatorRequest to ElevatorManager--><g id="link_ElevatorRequest_ElevatorManager"><path d="M902.09,258.51 C866.09,281.72 822.77,309.66 782.06,335.92 " fill="none" id="ElevatorRequest-backto-ElevatorManager" style="stroke:#181818;stroke-width:1.0;stroke-dasharray:7.0,7.0;"/><polygon fill="none" points="898.53,252.47,919.13,247.52,906.12,264.24,898.53,252.47" style="stroke:#181818;stroke-width:1.0;"/></g><!--reverse link ElevatorAlgorithm to LookAheadScanAlgorithm--><g id="link_ElevatorAlgorithm_LookAheadScanAlgorithm"><path d="M946.86,715.22 C936.96,733.93 925.89,754.84 914.78,775.84 " fill="none" id="ElevatorAlgorithm-backto-LookAheadScanAlgorithm" style="stroke:#181818;stroke-width:1.0;stroke-dasharray:7.0,7.0;"/><polygon fill="none" points="940.8,711.71,956.34,697.31,953.17,718.26,940.8,711.71" style="stroke:#181818;stroke-width:1.0;"/></g><!--reverse link ElevatorCoordinatorAlgorithm to ElevatorCoordinator--><g id="link_ElevatorCoordinatorAlgorithm_ElevatorCoordinator"><path d="M529.5,103.29 C529.5,119.3 529.5,136.86 529.5,152.77 " fill="none" id="ElevatorCoordinatorAlgorithm-backto-ElevatorCoordinator" style="stroke:#181818;stroke-width:1.0;stroke-dasharray:7.0,7.0;"/><polygon fill="none" points="522.5,103.05,529.5,83.05,536.5,103.05,522.5,103.05" style="stroke:#181818;stroke-width:1.0;"/></g><!--reverse link Building to Elevator--><g id="link_Building_Elevator"><path codeLine="97" d="M1075.87,973.97 C1057.95,997.13 1037.09,1023.53 1017.5,1047 C995.91,1072.86 972.2,1100.12 949.43,1125.8 " fill="none" id="Building-backto-Elevator" style="stroke:#181818;stroke-width:1.0;"/><polygon fill="none" points="1083.88,963.58,1077.0485,965.8887,1076.552,973.0827,1083.3836,970.774,1083.88,963.58" style="stroke:#181818;stroke-width:1.0;"/><text fill="#000000" font-family="sans-serif" font-size="13" lengthAdjust="spacing" textLength="20" x="991.5" y="1092.0283">1..*</text></g><!--reverse link Elevator to ElevatorInternalUserInterface--><g id="link_Elevator_ElevatorInternalUserInterface"><path codeLine="98" d="M766.42,1371.42 C752.34,1394.7 738.13,1418.18 725.56,1438.98 " fill="none" id="Elevator-backto-ElevatorInternalUserInterface" style="stroke:#181818;stroke-width:1.0;"/><polygon fill="none" points="773.32,1360.01,766.7926,1363.0749,767.1112,1370.2789,773.6386,1367.2141,773.32,1360.01" style="stroke:#181818;stroke-width:1.0;"/><text fill="#000000" font-family="sans-serif" font-size="13" lengthAdjust="spacing" textLength="22" x="755.5" y="1405.0283">1..1</text></g><!--reverse link Elevator to ElevatorExternalUserInterface--><g id="link_Elevator_ElevatorExternalUserInterface"><path codeLine="99" d="M920.58,1371.43 C943.96,1410.07 967.67,1449.26 983.71,1475.79 " fill="none" id="Elevator-backto-ElevatorExternalUserInterface" style="stroke:#181818;stroke-width:1.0;"/><polygon fill="none" points="913.68,1360.01,913.3614,1367.2141,919.8888,1370.2789,920.2074,1363.0749,913.68,1360.01" style="stroke:#181818;stroke-width:1.0;"/><text fill="#000000" font-family="sans-serif" font-size="13" lengthAdjust="spacing" textLength="22" x="944.5" y="1405.0283">1..1</text></g><!--reverse link ElevatorManager to Elevator--><g id="link_ElevatorManager_Elevator"><path codeLine="100" d="M563.08,525.26 C549.67,546.44 537.8,569.53 530.5,593 C516.77,637.14 521.81,651.6 530.5,697 C561.95,861.39 581.55,904.6 669.5,1047 C686.25,1074.12 706.91,1101.04 728.07,1125.82 " fill="none" id="ElevatorManager-backto-Elevator" style="stroke:#181818;stroke-width:1.0;"/><polygon fill="none" points="570.22,514.37,563.5849,517.1941,563.6399,524.405,570.2749,521.5809,570.22,514.37" style="stroke:#181818;stroke-width:1.0;"/><text fill="#000000" font-family="sans-serif" font-size="13" lengthAdjust="spacing" textLength="22" x="541.5" y="742.0283">1..1</text></g><!--reverse link ElevatorManager to ElevatorAlgorithm--><g id="link_ElevatorManager_ElevatorAlgorithm"><path codeLine="101" d="M793.06,521.17 C834.49,547.89 877.67,575.74 912.42,598.15 " fill="none" id="ElevatorManager-backto-ElevatorAlgorithm" style="stroke:#181818;stroke-width:1.0;"/><polygon fill="none" points="782,514.04,784.8766,520.6525,792.0869,520.5404,789.2102,513.9279,782,514.04" style="stroke:#181818;stroke-width:1.0;"/><text fill="#000000" font-family="sans-serif" font-size="13" lengthAdjust="spacing" textLength="22" x="856.5" y="559.0283">1..1</text></g><!--reverse link ElevatorCoordinator to ElevatorManager--><g id="link_ElevatorCoordinator_ElevatorManager"><path codeLine="102" d="M562.87,268.72 C573.97,289.58 586.55,313.22 598.49,335.65 " fill="none" id="ElevatorCoordinator-backto-ElevatorManager" style="stroke:#181818;stroke-width:1.0;"/><polygon fill="none" points="556.7,257.11,555.9923,264.2863,562.3443,267.6997,563.0521,260.5234,556.7,257.11" style="stroke:#181818;stroke-width:1.0;"/><text fill="#000000" font-family="sans-serif" font-size="13" lengthAdjust="spacing" textLength="20" x="582.5" y="302.0283">1..*</text></g><!--reverse link LookAheadScanAlgorithm to Elevator--><g id="link_LookAheadScanAlgorithm_Elevator"><path codeLine="103" d="M843.5,1060.67 C843.5,1082.55 843.5,1104.83 843.5,1125.94 " fill="none" id="LookAheadScanAlgorithm-backto-Elevator" style="stroke:#181818;stroke-width:1.0;"/><polygon fill="none" points="843.5,1047.47,839.5,1053.47,843.5,1059.47,847.5,1053.47,843.5,1047.47" style="stroke:#181818;stroke-width:1.0;"/></g><!--SRC=[jLP9Jnin5BxFhx2u9BG1YUkeGg8i5IfK5Ic7dbepyv9OzJArFHI4-j_xnjjC9auANRWGl-NpUzzRF1Mdnf2tBUCraykdWk3V0M5rIPYquIIfW9BChKQB808EzzGgNP8hPkoRyt0yBduMbKECacSZcWO0RHPSqMWbwCCfRMZ5xEEwecgr_gWCiqp9p-kgccceEdb9pkBFKSoNqeAMbDyQyByNjC9epdUfHn3d3piXikgOfwLsO3hlZWDLQzPrhK5AGRPY9FMydjnJnkaTzmWVbEq56I_mJjVgtjjVrixE5oonvOrk6_VlJFtmzDs0iMZBOZQxwV8OhmaBoXlutYB052lLzGoAPzbAxGS_rO2SnaF5bO5qefngqUievtZ81POjGWmC7jO3omUJWmqUVvlXdmTmmfTACxiI3aFMPbje0kkSY6feEo1HWsa5EEAAYLGM28U59MgHiAwff4lGfqfQhNWnSOr33GP3AYyZVMZ26TVaxZ5DI91fObNNrnhfS27Cmjt4hY0P7thyzqpMNGp2twEL4l4oZkS5eaQFOeAPaoxoqRu9SHCc6Wu2fDr2pt25HOEH8X5TRd8VU1pTEjt4d3qBRdztDt4bb_-YdRojiQgPzWUiZMi4p-ELKjzELa3hUKLbtsePEfFoQR2LBrBxzpjDsmqf5czJjgqURHEo2ezDDyn8zd7S-BYYTXZyxn5z_gm5bYYlNEuNMecOQNhCflkUajpWdw8JFj8Pxh6CrGhgbaEqtRfFiiEUGtR0drRC3EOSKscKD0pV5pUDekMMOMFqKrz5fExPJICwcj71TRd6okSvMMhLDb-acX6Ak0mT45DL3D-rcXXOIoXk7_Drr5m3x1BtMHDxPKRcq7_6X74-FduPk-61gkjezqczwu9EQy6TBklGUx1-MpdU9cuxP-lreY8P_COQbeWcvxu-anlWhcPcnPeYVWqITN3GKrgIlQF3mrTxHP8CrTdFWE1pjCKd-q9l-iILdedcDrRz_jem7_RWq2N2f6otBCIXpoy0]--></g></svg>