<?xml version="1.0" encoding="us-ascii" standalone="no"?><svg xmlns="http://www.w3.org/2000/svg" xmlns:xlink="http://www.w3.org/1999/xlink" contentStyleType="text/css" height="353px" preserveAspectRatio="none" style="width:355px;height:353px;background:#FFFFFF;" version="1.1" viewBox="0 0 355 353" width="355px" zoomAndPan="magnify"><defs/><g><!--class Factory--><g id="elem_Factory"><rect codeLine="1" fill="#F1F1F1" height="66.6211" id="Factory" rx="2.5" ry="2.5" style="stroke:#181818;stroke-width:0.5;" width="130" x="112.5" y="134"/><ellipse cx="150" cy="150" fill="#B4A7E5" rx="11" ry="11" style="stroke:#181818;stroke-width:1.0;"/><path d="M150.9531,146.6406 L150.9531,153.2969 L152.6719,153.2969 Q153.2813,153.2969 153.5469,153.5313 Q153.8125,153.7656 153.8125,154.1563 Q153.8125,154.5313 153.5469,154.7656 Q153.2813,155 152.6719,155 L147.5313,155 Q146.9219,155 146.6563,154.7656 Q146.3906,154.5313 146.3906,154.1406 Q146.3906,153.7656 146.6563,153.5313 Q146.9219,153.2969 147.5313,153.2969 L149.25,153.2969 L149.25,146.6406 L147.5313,146.6406 Q146.9219,146.6406 146.6563,146.4063 Q146.3906,146.1719 146.3906,145.7813 Q146.3906,145.4063 146.6563,145.1719 Q146.9219,144.9375 147.5313,144.9375 L152.6719,144.9375 Q153.2813,144.9375 153.5469,145.1719 Q153.8125,145.4063 153.8125,145.7813 Q153.8125,146.1719 153.5469,146.4063 Q153.2813,146.6406 152.6719,146.6406 L150.9531,146.6406 Z " fill="#000000"/><text fill="#000000" font-family="sans-serif" font-size="14" font-style="italic" lengthAdjust="spacing" textLength="48" x="169" y="155.7969">Factory</text><line style="stroke:#181818;stroke-width:0.5;" x1="113.5" x2="241.5" y1="166" y2="166"/><line style="stroke:#181818;stroke-width:0.5;" x1="113.5" x2="241.5" y1="174" y2="174"/><ellipse cx="123.5" cy="188.8105" fill="#84BE84" rx="3" ry="3" style="stroke:#038048;stroke-width:1.0;"/><text fill="#000000" font-family="sans-serif" font-size="14" lengthAdjust="spacing" textLength="104" x="132.5" y="193.1074">operation(): void</text></g><!--class FactoryClient--><g id="elem_FactoryClient"><rect codeLine="4" fill="#F1F1F1" height="66.6211" id="FactoryClient" rx="2.5" ry="2.5" style="stroke:#181818;stroke-width:0.5;" width="341" x="7" y="7"/><ellipse cx="131.25" cy="23" fill="#ADD1B2" rx="11" ry="11" style="stroke:#181818;stroke-width:1.0;"/><path d="M134.0156,18.875 Q134.1719,18.6563 134.3594,18.5469 Q134.5469,18.4375 134.7656,18.4375 Q135.1406,18.4375 135.375,18.7031 Q135.6094,18.9531 135.6094,19.5625 L135.6094,21.0156 Q135.6094,21.625 135.375,21.8906 Q135.1406,22.1563 134.7656,22.1563 Q134.4219,22.1563 134.2188,21.9531 Q134.0156,21.7656 133.9063,21.25 Q133.8594,20.8906 133.6719,20.7031 Q133.3438,20.3281 132.7344,20.1094 Q132.125,19.8906 131.5,19.8906 Q130.7344,19.8906 130.0938,20.2188 Q129.4688,20.5469 128.9688,21.2969 Q128.4844,22.0469 128.4844,23.0781 L128.4844,24.1719 Q128.4844,25.4063 129.375,26.2344 Q130.2656,27.0469 131.8594,27.0469 Q132.7969,27.0469 133.4531,26.7969 Q133.8438,26.6406 134.2656,26.2031 Q134.5313,25.9375 134.6719,25.8594 Q134.8281,25.7813 135.0313,25.7813 Q135.3594,25.7813 135.6094,26.0469 Q135.875,26.2969 135.875,26.6406 Q135.875,26.9844 135.5313,27.3906 Q135.0313,27.9688 134.2344,28.2969 Q133.1563,28.75 131.8594,28.75 Q130.3438,28.75 129.1406,28.125 Q128.1563,27.625 127.4688,26.5625 Q126.7813,25.4844 126.7813,24.2031 L126.7813,23.0469 Q126.7813,21.7188 127.3906,20.5781 Q128.0156,19.4219 129.1094,18.8125 Q130.2031,18.1875 131.4375,18.1875 Q132.1719,18.1875 132.8125,18.3594 Q133.4688,18.5156 134.0156,18.875 Z " fill="#000000"/><text fill="#000000" font-family="sans-serif" font-size="14" lengthAdjust="spacing" textLength="84" x="151.75" y="28.7969">FactoryClient</text><line style="stroke:#181818;stroke-width:0.5;" x1="8" x2="347" y1="39" y2="39"/><line style="stroke:#181818;stroke-width:0.5;" x1="8" x2="347" y1="47" y2="47"/><ellipse cx="18" cy="61.8105" fill="#84BE84" rx="3" ry="3" style="stroke:#038048;stroke-width:1.0;"/><text fill="#000000" font-family="sans-serif" font-size="14" lengthAdjust="spacing" textLength="315" x="27" y="66.1074">staticGetMethod(type: factoryTypeEnum): Factory</text></g><!--class FactoryImpl1--><g id="elem_FactoryImpl1"><rect codeLine="7" fill="#F1F1F1" height="85.2422" id="FactoryImpl1" rx="2.5" ry="2.5" style="stroke:#181818;stroke-width:0.5;" width="130" x="30.5" y="261"/><ellipse cx="53.15" cy="277" fill="#ADD1B2" rx="11" ry="11" style="stroke:#181818;stroke-width:1.0;"/><path d="M55.9156,272.875 Q56.0719,272.6563 56.2594,272.5469 Q56.4469,272.4375 56.6656,272.4375 Q57.0406,272.4375 57.275,272.7031 Q57.5094,272.9531 57.5094,273.5625 L57.5094,275.0156 Q57.5094,275.625 57.275,275.8906 Q57.0406,276.1563 56.6656,276.1563 Q56.3219,276.1563 56.1188,275.9531 Q55.9156,275.7656 55.8063,275.25 Q55.7594,274.8906 55.5719,274.7031 Q55.2438,274.3281 54.6344,274.1094 Q54.025,273.8906 53.4,273.8906 Q52.6344,273.8906 51.9938,274.2188 Q51.3688,274.5469 50.8688,275.2969 Q50.3844,276.0469 50.3844,277.0781 L50.3844,278.1719 Q50.3844,279.4063 51.275,280.2344 Q52.1656,281.0469 53.7594,281.0469 Q54.6969,281.0469 55.3531,280.7969 Q55.7438,280.6406 56.1656,280.2031 Q56.4313,279.9375 56.5719,279.8594 Q56.7281,279.7813 56.9313,279.7813 Q57.2594,279.7813 57.5094,280.0469 Q57.775,280.2969 57.775,280.6406 Q57.775,280.9844 57.4313,281.3906 Q56.9313,281.9688 56.1344,282.2969 Q55.0563,282.75 53.7594,282.75 Q52.2438,282.75 51.0406,282.125 Q50.0563,281.625 49.3688,280.5625 Q48.6813,279.4844 48.6813,278.2031 L48.6813,277.0469 Q48.6813,275.7188 49.2906,274.5781 Q49.9156,273.4219 51.0094,272.8125 Q52.1031,272.1875 53.3375,272.1875 Q54.0719,272.1875 54.7125,272.3594 Q55.3688,272.5156 55.9156,272.875 Z " fill="#000000"/><text fill="#000000" font-family="sans-serif" font-size="14" lengthAdjust="spacing" textLength="81" x="68.85" y="282.7969">FactoryImpl1</text><line style="stroke:#181818;stroke-width:0.5;" x1="31.5" x2="159.5" y1="293" y2="293"/><line style="stroke:#181818;stroke-width:0.5;" x1="31.5" x2="159.5" y1="301" y2="301"/><ellipse cx="41.5" cy="315.8105" fill="#84BE84" rx="3" ry="3" style="stroke:#038048;stroke-width:1.0;"/><text fill="#000000" font-family="sans-serif" font-size="14" lengthAdjust="spacing" textLength="91" x="50.5" y="320.1074">FactoryImpl1()</text><ellipse cx="41.5" cy="334.4316" fill="#84BE84" rx="3" ry="3" style="stroke:#038048;stroke-width:1.0;"/><text fill="#000000" font-family="sans-serif" font-size="14" lengthAdjust="spacing" textLength="104" x="50.5" y="338.7285">operation(): void</text></g><!--class FactoryImpl2--><g id="elem_FactoryImpl2"><rect codeLine="11" fill="#F1F1F1" height="85.2422" id="FactoryImpl2" rx="2.5" ry="2.5" style="stroke:#181818;stroke-width:0.5;" width="130" x="195.5" y="261"/><ellipse cx="218.15" cy="277" fill="#ADD1B2" rx="11" ry="11" style="stroke:#181818;stroke-width:1.0;"/><path d="M220.9156,272.875 Q221.0719,272.6563 221.2594,272.5469 Q221.4469,272.4375 221.6656,272.4375 Q222.0406,272.4375 222.275,272.7031 Q222.5094,272.9531 222.5094,273.5625 L222.5094,275.0156 Q222.5094,275.625 222.275,275.8906 Q222.0406,276.1563 221.6656,276.1563 Q221.3219,276.1563 221.1188,275.9531 Q220.9156,275.7656 220.8063,275.25 Q220.7594,274.8906 220.5719,274.7031 Q220.2438,274.3281 219.6344,274.1094 Q219.025,273.8906 218.4,273.8906 Q217.6344,273.8906 216.9938,274.2188 Q216.3688,274.5469 215.8688,275.2969 Q215.3844,276.0469 215.3844,277.0781 L215.3844,278.1719 Q215.3844,279.4063 216.275,280.2344 Q217.1656,281.0469 218.7594,281.0469 Q219.6969,281.0469 220.3531,280.7969 Q220.7438,280.6406 221.1656,280.2031 Q221.4313,279.9375 221.5719,279.8594 Q221.7281,279.7813 221.9313,279.7813 Q222.2594,279.7813 222.5094,280.0469 Q222.775,280.2969 222.775,280.6406 Q222.775,280.9844 222.4313,281.3906 Q221.9313,281.9688 221.1344,282.2969 Q220.0563,282.75 218.7594,282.75 Q217.2438,282.75 216.0406,282.125 Q215.0563,281.625 214.3688,280.5625 Q213.6813,279.4844 213.6813,278.2031 L213.6813,277.0469 Q213.6813,275.7188 214.2906,274.5781 Q214.9156,273.4219 216.0094,272.8125 Q217.1031,272.1875 218.3375,272.1875 Q219.0719,272.1875 219.7125,272.3594 Q220.3688,272.5156 220.9156,272.875 Z " fill="#000000"/><text fill="#000000" font-family="sans-serif" font-size="14" lengthAdjust="spacing" textLength="81" x="233.85" y="282.7969">FactoryImpl2</text><line style="stroke:#181818;stroke-width:0.5;" x1="196.5" x2="324.5" y1="293" y2="293"/><line style="stroke:#181818;stroke-width:0.5;" x1="196.5" x2="324.5" y1="301" y2="301"/><ellipse cx="206.5" cy="315.8105" fill="#84BE84" rx="3" ry="3" style="stroke:#038048;stroke-width:1.0;"/><text fill="#000000" font-family="sans-serif" font-size="14" lengthAdjust="spacing" textLength="91" x="215.5" y="320.1074">FactoryImpl2()</text><ellipse cx="206.5" cy="334.4316" fill="#84BE84" rx="3" ry="3" style="stroke:#038048;stroke-width:1.0;"/><text fill="#000000" font-family="sans-serif" font-size="14" lengthAdjust="spacing" textLength="104" x="215.5" y="338.7285">operation(): void</text></g><!--reverse link Factory to FactoryImpl1--><g id="link_Factory_FactoryImpl1"><path d="M146.75,218.74 C138.25,232.64 129.11,247.57 120.94,260.92 " fill="none" id="Factory-backto-FactoryImpl1" style="stroke:#181818;stroke-width:1.0;stroke-dasharray:7.0,7.0;"/><polygon fill="none" points="141.03,214.69,157.44,201.28,152.97,221.99,141.03,214.69" style="stroke:#181818;stroke-width:1.0;"/></g><!--reverse link Factory to FactoryImpl2--><g id="link_Factory_FactoryImpl2"><path d="M208.62,218.74 C217.23,232.64 226.48,247.57 234.75,260.92 " fill="none" id="Factory-backto-FactoryImpl2" style="stroke:#181818;stroke-width:1.0;stroke-dasharray:7.0,7.0;"/><polygon fill="none" points="202.38,221.97,197.8,201.28,214.29,214.6,202.38,221.97" style="stroke:#181818;stroke-width:1.0;"/></g><!--reverse link FactoryClient to Factory--><g id="link_FactoryClient_Factory"><path codeLine="16" d="M177.5,87.1 C177.5,102.54 177.5,119.47 177.5,133.71 " fill="none" id="FactoryClient-backto-Factory" style="stroke:#181818;stroke-width:1.0;"/><polygon fill="none" points="177.5,74.02,173.5,80.02,177.5,86.02,181.5,80.02,177.5,74.02" style="stroke:#181818;stroke-width:1.0;"/><text fill="#000000" font-family="sans-serif" font-size="13" lengthAdjust="spacing" textLength="22" x="153.4031" y="122.7406">1..1</text></g><!--SRC=[ZP312i8m343l_OgmYnkoGNVSLNHuy2B-GEqoLkZQiaPbYFzkdHPq1raEWOINbn1b28TMI8ITa6I7ySuWn1gimq6GiYRDAhXQrR07arfu7y6DLcWeufu2B6ka0r9dcvH6XnMqR_GKYgsvzC7q6PxBzhtJ75J8s0Uhdr_pZQNPqXDVUBdCMlwrhewefvxlb8CpqWtHmBGBFVjv2DWyXuGN1K-Y_ma0]--></g></svg>